<svg width="581" height="435" viewBox="0 0 581 435" fill="none" xmlns="http://www.w3.org/2000/svg">
<path d="M87.0016 296.861C157.229 296.861 169.035 250.663 197 243.5C216.576 243.5 255.737 201.189 296.5 249.5C310 265.5 435.634 266.963 487.835 274.437C540.037 281.912 534.444 287.518 534.444 296.861C534.444 306.204 499.953 301.533 496.225 311.81C493.242 320.032 509.275 323.956 517.665 324.891C539.105 333.3 575.553 350.491 579.189 365.066C582.917 380.016 575.661 395.859 556.816 399.636C547.495 401.505 517.665 398.702 485.039 403.374C452.413 408.045 421.651 439.812 361.992 433.272C342.417 431.126 347.078 417.388 324.706 405.242C302.333 393.096 278.097 409.914 241.743 418.323C208.68 425.97 135.944 433.051 119.628 430.469C101.917 427.666 45.0543 422.06 77.6803 398.702C100.985 382.018 113.103 377.213 107.51 366.001C102.756 356.473 71.8126 358.475 28 351C14.4312 348.685 -50.9999 296.861 87.0016 296.861Z" fill="#E1E9F5"/>
<ellipse cx="389" cy="366" rx="60" ry="10" fill="#D1DDEE"/>
<ellipse cx="529.5" cy="375.5" rx="28.5" ry="3.5" fill="#D1DDEE"/>
<ellipse cx="238.5" cy="362.5" rx="68.5" ry="12.5" fill="#D1DDEE"/>
<ellipse cx="160" cy="311.5" rx="91" ry="21.5" fill="#D1DDEE"/>
<path d="M0.744221 97.6521C-2.31778 80.2937 4.57192 69.1473 12.2269 65.7437C19.8819 62.34 33.5668 59.9734 44.1228 72.1253C60.8856 91.4224 75.4593 140.754 82.3978 146.153C93.8803 155.088 130.879 178.063 150.017 203.589C170.43 235.924 196.712 303.4 138.534 314.632C65.812 328.672 58.157 276.342 54.3294 261.025C50.7209 246.585 54.3294 206.143 47.9503 180.615C44.5465 166.995 4.57172 119.35 0.744221 97.6521Z" fill="#ABC3E9"/>
<path d="M149.79 202.215C170.203 234.549 196.486 302.025 138.308 313.257L12 64.3691C12 64.3691 33.3398 58.5988 43.8959 70.7507C60.6586 90.0478 75.2324 139.38 82.1709 144.779C93.6534 153.714 130.653 176.688 149.79 202.215Z" fill="#8AA8D3"/>
<line x1="11.8886" y1="64.5413" x2="138.889" y2="310.541" stroke="#203342" stroke-opacity="0.4" stroke-width="2"/>
<path d="M60 117.5C61 121.5 63.5 138 52.5 143M42.5 157C47 163 57 165 61.5 163" stroke="#203342" stroke-opacity="0.4" stroke-width="2"/>
<path d="M32.5 79C33.5 83 41 95.5 30 100.5M17 117C21.5 123 34.5 122.5 39 120.5" stroke="#203342" stroke-opacity="0.4" stroke-width="2"/>
<path d="M77 190.5C90 187.5 88.8333 171.167 88.5 166.5" stroke="#203342" stroke-opacity="0.4" stroke-width="2"/>
<path d="M87.5 212.5C81.1 212.9 67.5 212.5 59.5 202.5M101.5 240C121 238 125.333 194.167 125 189.5" stroke="#203342" stroke-opacity="0.4" stroke-width="2"/>
<path d="M115 267.5C108.6 267.9 79.5 267.5 69 245.5M129 290C154.5 287 154.833 243.167 154.5 238.5" stroke="#203342" stroke-opacity="0.4" stroke-width="2"/>
<path d="M193.777 145.277C206.368 225.371 193.419 293.681 182.972 295.323C172.525 296.965 115.732 259.839 103.141 179.744C90.5501 99.6501 126.928 6.91868 137.375 5.27635C151.651 3.03223 181.186 65.1829 193.777 145.277Z" fill="#A8E5CA"/>
<path d="M183.597 295.323C194.044 293.681 206.993 225.371 194.402 145.277C181.81 65.183 152.275 3.03231 138 5.27643L183.597 295.323Z" fill="#89CFB0"/>
<line x1="138.987" y1="4.83735" x2="185.987" y2="289.837" stroke="#649D84" stroke-opacity="0.9" stroke-width="2"/>
<path d="M114.282 64.5874L152.5 90.5001" stroke="#649D84" stroke-opacity="0.9" stroke-width="2"/>
<path d="M152.5 90.0001L169.584 62.7227" stroke="#649D84" stroke-opacity="0.9" stroke-width="2"/>
<path d="M161 142L107.787 117.452" stroke="#649D84" stroke-opacity="0.9" stroke-width="2"/>
<path d="M161.001 142L181.624 116.671" stroke="#649D84" stroke-opacity="0.9" stroke-width="2"/>
<path d="M169 191L107.789 164.453" stroke="#649D84" stroke-opacity="0.9" stroke-width="2"/>
<path d="M169 191L192.583 152.725" stroke="#649D84" stroke-opacity="0.9" stroke-width="2"/>
<line x1="178.668" y1="241.943" x2="124.668" y2="222.943" stroke="#649D84" stroke-opacity="0.9" stroke-width="2"/>
<path d="M324.112 165.991C296.527 229.037 252.203 270.3 242.239 265.94C232.274 261.58 200.321 205.449 227.906 142.402C255.491 79.3555 332.168 33.2678 342.133 37.6277C355.749 43.5853 351.697 102.944 324.112 165.991Z" fill="#A8E6CA"/>
<path d="M242 266.312C251.965 270.672 296.289 229.41 323.874 166.363C351.459 103.316 355.511 43.9576 341.895 38L242 266.312Z" fill="#89CFB0"/>
<line y1="-1" x2="253.711" y2="-1" transform="matrix(-0.417919 0.908484 -0.896939 -0.442155 340.793 39.6462)" stroke="#649D84" stroke-opacity="0.9" stroke-width="2"/>
<path d="M292.407 69.57L309.296 109.012" stroke="#649D84" stroke-opacity="0.9" stroke-width="2"/>
<path d="M309.546 108.652L336.563 98.3449" stroke="#649D84" stroke-opacity="0.9" stroke-width="2"/>
<path d="M290.141 150.666L260.848 104.039" stroke="#649D84" stroke-opacity="0.9" stroke-width="2"/>
<path d="M290.142 150.666L318.949 143.687" stroke="#649D84" stroke-opacity="0.9" stroke-width="2"/>
<path d="M271.849 190.25L237.306 137.831" stroke="#649D84" stroke-opacity="0.9" stroke-width="2"/>
<path d="M271.849 190.25L309.453 175.575" stroke="#649D84" stroke-opacity="0.9" stroke-width="2"/>
<line y1="-1" x2="54.0664" y2="-1" transform="matrix(-0.604575 -0.796548 0.827074 -0.562093 254.618 231.643)" stroke="#649D84" stroke-opacity="0.9" stroke-width="2"/>
<path d="M174.772 88.1557C178.22 73.6618 187.308 67.3277 194.391 67.2571C201.474 67.1865 212.888 69.9445 217.003 82.9152C223.537 103.512 218.293 146.675 221.866 153.193C227.779 163.979 248.784 194.222 255.071 220.449C260.063 252.385 257.817 313.554 208.897 302.737C147.748 289.216 159.367 246.05 161.536 232.883C163.581 220.47 179.953 190.308 183.568 168.363C185.497 156.654 170.461 106.273 174.772 88.1557Z" fill="#9AD2F1"/>
<path d="M254.199 220.32C259.191 252.257 256.945 313.426 208.025 302.608L193.519 67.1284C200.602 67.0578 212.016 69.8158 216.131 82.7865C222.665 103.384 217.421 146.546 220.994 153.064C226.907 163.85 247.912 194.093 254.199 220.32Z" fill="#86C1E2"/>
<line x1="194.184" y1="66.9063" x2="208.443" y2="301.748" stroke="#203342" stroke-opacity="0.4" stroke-width="2"/>
<path d="M213.251 124.604C212.655 128.057 208.932 141.742 198.664 141.852M186.084 149.302C187.522 155.511 194.609 160.499 198.794 160.49" stroke="#203342" stroke-opacity="0.4" stroke-width="2"/>
<path d="M205.092 85.2325C204.496 88.6854 206.034 100.978 195.767 101.088M179.995 109.451C181.433 115.66 191.711 119.735 195.896 119.726" stroke="#203342" stroke-opacity="0.4" stroke-width="2"/>
<path d="M201.4 187.19C212.536 189.321 217.237 176.224 218.58 172.481" stroke="#203342" stroke-opacity="0.4" stroke-width="2"/>
<path d="M202.009 207.897C196.896 206.011 186.461 201.03 183.676 190.509M203.45 234.082C219.295 239.223 237.715 206.636 239.058 202.894" stroke="#203342" stroke-opacity="0.4" stroke-width="2"/>
<path d="M204.501 260.096C199.388 258.209 176.904 247.906 176.296 227.199M207.659 282.394C228.512 288.817 243.822 254.857 245.165 251.115" stroke="#203342" stroke-opacity="0.4" stroke-width="2"/>
<path d="M273.866 128.739C273.866 128.739 278.652 124.311 279.489 122.276C280.326 120.242 285.71 102.649 285.71 102.649L300.904 93.3144L317.054 96.5457L329.377 105.641L325.309 114.737C325.309 114.737 325.668 116.412 324.95 117.609C324.591 118.207 314.422 130.534 314.183 134.244C313.944 137.834 309.876 132.449 309.876 132.449C309.876 132.449 307.962 135.68 305.689 137.475C304.253 138.552 300.186 141.185 297.075 141.185C294.084 141.185 290.137 135.321 290.137 135.321L285.83 139.51L281.403 140.467L273.866 128.739Z" fill="#FFDACD"/>
<path d="M360.601 165.241C360.601 165.241 358.448 158.419 352.466 159.376C346.484 160.334 348.279 167.275 349.236 169.788C350.432 173.02 354.261 179.961 352.346 180.918C350.432 181.876 365.028 177.208 367.301 176.251C370.052 175.054 373.402 171.583 372.804 167.155C372.325 163.326 370.411 161.77 367.061 161.77C362.994 161.531 360.601 165.241 360.601 165.241Z" fill="#FF2825"/>
<path d="M291.213 161.052C291.213 161.052 296.955 171.105 306.646 179.602C313.584 185.705 323.753 190.612 329.257 192.407C342.416 196.955 360.003 193.724 366.822 191.45C373.641 189.176 366.343 197.793 361.079 200.426C354.858 203.418 345.527 204.734 339.545 204.495C328.06 204.136 317.772 201.622 308.919 198.391C298.51 194.561 285.47 183.671 280.924 178.525C276.857 173.977 272.311 168.472 272.311 168.472L287.624 157.461L291.213 161.052Z" fill="#FED2B7"/>
<path d="M223.021 344.876L227.328 339.012H240.488L235.224 347.748L230.558 349.783L223.021 344.876Z" fill="#FFDFD1"/>
<path d="M216.604 355.527C216.604 355.527 216.203 350.142 219.552 347.509C222.902 344.876 225.295 344.517 227.448 344.397C229.602 344.278 235.583 345.834 236.301 350.501C237.019 355.168 245.513 354.211 245.513 354.211C245.513 354.211 253.648 353.852 256.4 355.527C259.151 357.203 259.75 358.759 259.63 360.434C259.51 362.11 259.032 363.187 258.553 364.144C258.075 365.102 216.365 364.743 216.365 364.743L216.604 355.527Z" fill="#712A3E"/>
<path d="M258.354 364.356C258.819 363.427 259.284 362.383 259.4 360.758L237.9 358.379L216.4 356V364.936C216.4 364.936 257.89 365.284 258.354 364.356Z" fill="#481725"/>
<path d="M263.457 353.613C263.457 353.613 262.859 348.227 266.209 345.594C269.559 342.961 276.139 344.876 276.139 344.876C278.651 347.629 282.599 351.219 284.393 351.817C288.82 353.613 290.615 353.493 292.888 353.254C295.041 352.895 299.348 351.937 302.099 353.613C304.851 355.288 305.449 356.844 305.33 358.519C305.21 360.195 304.731 361.272 304.253 362.229C303.774 363.187 263.457 362.828 263.457 362.828V353.613Z" fill="#712A3E"/>
<path d="M304.096 362.617C304.575 361.659 305.053 360.582 305.173 358.907L263.301 358V363.215C263.301 363.215 303.618 363.574 304.096 362.617Z" fill="#481725"/>
<path d="M266.568 350.142C266.807 351.219 267.406 353.134 269.439 353.493C270.636 353.732 273.387 353.972 275.062 352.655C277.335 350.98 276.857 342.124 276.857 342.124V332.669L266.448 333.028C266.448 333.267 265.731 345.953 266.568 350.142Z" fill="#FFDFD1"/>
<path d="M328.659 280.609C328.659 280.609 332.248 302.869 336.794 308.614C346.963 321.419 355.577 319.026 365.626 327.403C375.676 335.781 386.323 357.442 385.725 364.862C385.127 372.402 392.544 338.055 377.59 312.085C362.635 286.234 328.659 280.609 328.659 280.609Z" fill="#47CE92"/>
<path d="M329 280.747C329 280.747 332.589 303.007 337.135 308.752C347.304 321.557 355.918 319.164 365.967 327.541C376.016 335.918 386.664 357.58 386.066 365C385.468 372.54 388.954 349.97 374 324C359.046 298.15 329 280.747 329 280.747Z" fill="#5CBF93"/>
<path d="M456.07 310.409C456.07 310.409 447.815 327.164 442.791 330.635C431.665 338.414 425.324 334.345 415.394 338.533C405.345 342.722 391.707 357.323 390.391 363.426C389.075 369.53 391.467 340.448 409.652 323.574C427.717 306.579 456.07 310.409 456.07 310.409Z" fill="#47CE92"/>
<path d="M455.982 311.37C455.982 311.37 447.727 328.124 442.702 331.595C431.576 339.374 425.236 335.305 415.306 339.494C405.257 343.683 391.618 358.283 390.302 364.387C388.986 370.49 389.816 353.375 408.001 336.5C426.066 319.506 455.982 311.37 455.982 311.37Z" fill="#5CBF93"/>
<path d="M456.094 311C456.094 311 426.177 319.136 408.113 336.13C389.928 353.005 390.414 364.017 390.414 364.017" stroke="#209C92"/>
<path d="M389.314 354.091C389.314 354.091 388.596 319.385 388.955 307.776C389.194 296.646 390.51 282.764 409.771 268.642C429.033 254.52 446.858 254.28 446.858 254.28C446.858 254.28 446.619 273.668 442.192 281.926C437.168 291.141 431.784 293.894 420.419 302.51C417.907 304.425 410.609 310.888 407.498 314.718C399.961 324.411 389.314 354.091 389.314 354.091Z" fill="#47CE92"/>
<path d="M389.418 354.165C389.418 354.165 394.142 335.109 394.501 323.5C394.74 312.37 398.24 300.622 417.501 286.5C436.762 272.378 446.962 254.354 446.962 254.354C446.962 254.354 446.723 273.742 442.296 282C437.272 291.215 431.888 293.968 420.523 302.584C418.011 304.499 410.713 310.962 407.602 314.792C400.065 324.485 389.418 354.165 389.418 354.165Z" fill="#5CBF93"/>
<path d="M390 353.811C390 353.811 394.724 334.754 395.083 323.146C395.322 312.016 398.822 300.267 418.083 286.146C437.344 272.024 447.544 254 447.544 254" stroke="#209C92"/>
<path d="M330.454 244.706C330.454 244.706 334.761 253.443 342.178 255.597C349.476 257.751 355.697 256.674 360.482 258.589C365.268 260.504 370.771 264.094 377.59 270.796C384.409 277.618 367.66 249.852 360.482 244.706C353.304 239.56 343.853 239.441 339.786 240.757C337.632 241.355 330.454 244.706 330.454 244.706Z" fill="#47CE92"/>
<path d="M341.848 255.882C334.352 253.73 330 245 330 245C364.864 245 384.524 277.886 377.633 271.07C370.742 264.373 365.181 260.785 360.345 258.872C355.509 256.959 349.222 258.035 341.848 255.882Z" fill="#5CBF93"/>
<path d="M331 245C365.864 245 378.633 271.07 378.633 271.07" stroke="#209C92"/>
<path d="M406.183 230.106C406.183 230.106 410.37 235.611 408.575 241.116C406.781 246.741 396.851 252.246 393.142 254.879C389.434 257.392 397.449 249.254 398.406 246.501C399.363 243.51 398.526 237.645 400.201 235.012C401.876 232.38 406.183 230.106 406.183 230.106Z" fill="#47CE92"/>
<path d="M406.041 230.227C406.041 230.227 410.228 235.732 408.433 241.237C406.639 246.862 396.709 252.367 393.001 255C389.292 257.513 398.544 250.253 399.501 247.5C400.458 244.508 402.852 242.36 404.527 239.727C406.202 237.094 406.041 230.227 406.041 230.227Z" fill="#5CBF93"/>
<path d="M385.007 218.976C385.007 218.976 382.854 203.298 383.332 198.152C383.93 193.006 388.476 184.868 394.458 180.918C400.44 177.089 402.234 175.652 402.234 175.652C402.234 175.652 403.311 183.192 402.234 187.022C401.158 190.851 392.544 198.032 390.032 202.58C387.998 206.29 385.007 218.976 385.007 218.976Z" fill="#47CE92"/>
<path d="M384.745 219.323C384.745 219.323 386.022 208.646 386.501 203.5C387.099 198.354 390.519 189.449 396.501 185.5C402.483 181.67 401.972 176 401.972 176C401.972 176 403.049 183.54 401.972 187.369C400.896 191.199 392.282 198.38 389.77 202.927C387.736 206.637 384.745 219.323 384.745 219.323Z" fill="#5CBF93"/>
<path d="M385 219.323C385 219.323 386.277 208.646 386.756 203.5C387.354 198.354 390.774 189.449 396.756 185.5C402.737 181.67 402.227 176 402.227 176" stroke="#209C92" stroke-width="0.5"/>
<path d="M329 281C372 303 381.5 338 385 353.5" stroke="#209C92"/>
<path d="M295.999 157.821C295.999 157.821 301.741 167.873 311.432 176.371C318.371 182.474 328.539 187.381 334.043 189.176C347.202 193.724 364.789 190.492 371.608 188.219C378.427 185.945 371.129 194.561 365.865 197.194C359.644 200.186 350.313 201.503 344.331 201.263C332.846 200.904 322.558 198.391 313.705 195.16C303.297 191.33 290.256 180.44 285.71 175.293C281.643 170.746 277.097 165.241 277.097 165.241L292.41 154.23L295.999 157.821Z" fill="#FFDCCE"/>
<path d="M295.998 156.743C295.998 156.743 289.06 161.89 286.787 163.804C284.514 165.719 279.848 170.746 279.848 170.746L277.096 168.472C277.096 168.472 269.798 187.62 267.167 195.758C265.492 200.785 264.295 205.332 263.936 210.838C263.458 216.343 263.458 222.087 262.62 226.396C262.022 229.148 258.912 234.055 256.28 235.252C253.767 236.449 254.007 242.791 254.007 242.791L219.911 239.44L204.598 222.327C204.598 222.327 210.22 178.405 233.788 153.273C257.237 128.021 272.67 128.619 272.67 128.619C272.67 128.619 276.737 128.619 280.566 131.851C284.394 135.082 295.998 156.743 295.998 156.743Z" fill="#4D1B63"/>
<path d="M265.252 337.217H278.173C278.173 337.217 283.317 299.279 283.317 291.021C283.317 280.729 258.912 234.055 258.912 234.055L249.102 238.842L266.209 292.458L265.252 337.217Z" fill="#627C98"/>
<path d="M204.598 222.327C204.598 222.327 201.966 249.493 220.748 262.897C239.531 276.301 251.255 292.458 251.853 295.09C252.571 297.963 227.328 339.132 227.328 339.132H242.522C242.522 339.132 270.277 298.8 273.507 294.731C276.737 290.662 262.501 267.804 262.501 267.804L248.982 238.722C238.335 240.398 218.475 230.465 204.598 222.327Z" fill="#485D7B"/>
<path d="M553.363 334.767C553.363 334.767 556.601 334.304 559.052 332.083C561.503 329.863 564.001 327.411 564.001 327.411C564.001 327.411 558.959 327.041 556.508 329.308C554.103 331.575 553.363 334.767 553.363 334.767Z" fill="#47CE92"/>
<path d="M546.61 338.885C546.61 338.885 548.414 336.155 548.368 332.824C548.275 329.493 547.027 326.485 547.027 326.485C547.027 326.485 544.529 329.585 544.622 332.916C544.668 336.247 546.61 338.885 546.61 338.885Z" fill="#47CE92"/>
<path d="M560.717 338.052C560.717 338.052 557.572 337.08 554.427 338.098C551.236 339.116 548.738 341.151 548.738 341.151C548.738 341.151 552.392 342.632 555.583 341.66C558.682 340.643 560.717 338.052 560.717 338.052Z" fill="#47CE92"/>
<path d="M541.199 347.027C541.199 347.027 542.032 343.835 540.876 340.735C539.719 337.589 537.592 335.183 537.592 335.183C537.592 335.183 536.251 338.885 537.361 342.031C538.517 345.13 541.199 347.027 541.199 347.027Z" fill="#47CE92"/>
<path d="M554.843 347.351C554.843 347.351 551.883 345.963 548.6 346.565C545.316 347.166 542.541 348.832 542.541 348.832C542.541 348.832 545.963 350.821 549.247 350.22C552.531 349.664 554.843 347.351 554.843 347.351Z" fill="#47CE92"/>
<path d="M535.973 355.309C535.973 355.309 536.713 352.116 535.511 349.017C534.308 345.917 532.088 343.557 532.088 343.557C532.088 343.557 530.84 347.305 532.042 350.405C533.245 353.504 535.973 355.309 535.973 355.309Z" fill="#47CE92"/>
<path d="M550.126 353.689C550.126 353.689 547.027 352.671 543.836 353.597C540.645 354.522 538.055 356.512 538.055 356.512C538.055 356.512 541.662 358.085 544.853 357.159C548.044 356.234 550.126 353.689 550.126 353.689Z" fill="#47CE92"/>
<path d="M548.09 362.433C548.09 362.433 545.084 361.092 541.8 361.739C538.517 362.341 535.788 364.099 535.788 364.099C535.788 364.099 539.257 366.042 542.494 365.394C545.778 364.747 548.09 362.433 548.09 362.433Z" fill="#47CE92"/>
<path d="M533.152 363.081C533.152 363.081 533.152 359.796 531.302 357.067C529.406 354.337 526.724 352.486 526.724 352.486C526.724 352.486 526.354 356.419 528.204 359.149C530.053 361.878 533.152 363.081 533.152 363.081Z" fill="#47CE92"/>
<path d="M554.843 333.379C540.875 342.539 531.533 367.199 531.533 374.971" stroke="#5F9E86" stroke-miterlimit="10"/>
<path d="M507.216 298.943C507.216 298.943 510.366 294.493 510.646 288.739C510.925 282.984 511.065 277 511.065 277C511.065 277 505.047 282.678 504.767 288.432C504.487 294.109 507.216 298.943 507.216 298.943Z" fill="#B5C6EA"/>
<path d="M504.206 312.216C504.206 312.216 503.226 306.692 499.447 302.702C495.668 298.713 490.979 296.565 490.979 296.565C490.979 296.565 491.609 303.316 495.388 307.306C499.167 311.295 504.206 312.216 504.206 312.216Z" fill="#B5C6EA"/>
<path d="M519.043 294.109C519.043 294.109 514.494 296.718 512.044 301.858C509.595 306.999 509.105 312.523 509.105 312.523C509.105 312.523 514.844 309.914 517.293 304.851C519.673 299.71 519.043 294.109 519.043 294.109Z" fill="#B5C6EA"/>
<path d="M507.146 328.788C507.146 328.788 504.556 323.878 499.867 321.423C495.178 318.968 490 318.584 490 318.584C490 318.584 492.589 324.799 497.348 327.254C502.107 329.709 507.146 328.788 507.146 328.788Z" fill="#B5C6EA"/>
<path d="M522.752 312.523C522.752 312.523 517.923 314.441 514.914 319.121C511.904 323.801 510.645 329.249 510.645 329.249C510.645 329.249 516.663 327.484 519.673 322.804C522.682 318.201 522.752 312.523 522.752 312.523Z" fill="#B5C6EA"/>
<path d="M510.505 345.207C510.505 345.207 507.845 340.374 503.017 338.072C498.258 335.77 493.149 335.54 493.149 335.54C493.149 335.54 495.878 341.678 500.707 343.98C505.396 346.282 510.505 345.207 510.505 345.207Z" fill="#B5C6EA"/>
<path d="M524.431 326.026C524.431 326.026 519.812 328.558 517.293 333.545C514.774 338.532 514.074 344.133 514.074 344.133C514.074 344.133 519.882 341.678 522.402 336.691C524.991 331.704 524.431 326.026 524.431 326.026Z" fill="#B5C6EA"/>
<path d="M507.286 295.49C501.827 323.648 518.553 365.156 527.161 374.669" stroke="#9FB3D6" stroke-miterlimit="10"/>
<path d="M206.161 142.571C205.683 148.837 207.253 154.982 209.726 160.825C211.416 164.8 213.286 168.836 216.3 171.847C217.325 172.991 218.591 174.014 219.917 174.857C224.919 177.927 232.149 177.923 235.882 173.342C238.652 169.845 238.89 164.905 241.479 161.349C244.549 156.948 250.452 155.499 255.694 155.436C260.936 155.373 266.479 156.213 271.72 154.945C278.227 153.495 283.767 148.913 286.595 142.826C288.882 137.763 288.939 132.16 290.864 126.977C293.33 120.168 298.93 114.802 305.797 112.268C309.653 110.94 313.629 110.456 317.424 109.309C321.219 108.162 329.653 106.952 331.399 103.517C332.061 102.131 332.12 100.745 331.818 99.2386C330.309 94.1182 324.64 85.807 320.964 82.9773C314.815 78.5224 304.21 75.998 296.618 75.2794C286.435 74.502 277.22 80.4721 269.452 86.9234C263.37 91.9276 258.975 98.4974 254.159 104.525C249.282 110.734 243.682 116.702 236.514 119.538C231.695 121.348 226.273 121.954 221.393 123.342C218.984 123.946 216.634 124.972 214.527 126.479C209.287 130.158 206.639 136.305 206.161 142.571Z" fill="#FF8B2E"/>
<g opacity="0.8752">
<path opacity="0.3352" d="M216.3 171.847C217.325 172.991 218.59 174.014 219.916 174.857C224.919 177.927 232.149 177.923 235.882 173.342C238.651 169.845 238.889 164.905 241.478 161.349C244.548 156.948 250.452 155.499 255.694 155.436C260.935 155.373 266.479 156.213 271.72 154.945C278.226 153.495 283.767 148.913 286.595 142.826C288.881 137.763 288.938 132.16 290.863 126.977C293.33 120.168 298.93 114.802 305.797 112.268C309.652 110.94 313.628 110.456 317.424 109.309C321.219 108.162 329.653 106.952 331.398 103.517C332.06 102.131 332.12 100.745 331.818 99.2386C330.914 100.143 329.891 101.409 328.927 101.891C324.349 104.183 318.987 104.608 313.926 104.732C307.239 104.916 300.19 104.981 294.528 108.719C284.169 115.714 283.998 131.922 274.543 139.82C269.485 144.161 262.496 145.25 256.05 146.519C249.604 147.788 242.737 149.72 238.402 154.904C235.752 158.038 234.369 162.196 232.202 165.692C230.035 169.188 226.362 172.383 222.144 171.783C220.818 171.543 219.733 171.182 218.408 170.942C217.745 171.123 216.902 171.244 216.3 171.847Z" fill="#FDCA6B"/>
</g>
<path d="M310.375 129.864C310.108 129.549 309.88 129.174 309.699 128.788C309.046 127.337 309.245 125.392 310.525 124.544C311.499 123.919 312.776 124.024 313.761 123.449C314.977 122.773 315.511 121.234 315.67 119.826C315.829 118.418 315.764 116.898 316.234 115.531C316.784 113.83 318.114 112.496 319.756 111.943C321.12 111.501 322.563 111.678 323.948 111.337C325.766 110.906 327.299 109.583 328.138 107.822C328.585 106.83 328.818 105.777 329.216 104.795C329.615 103.813 330.156 101.585 331.087 101.233C331.462 101.102 331.82 101.134 332.199 101.266C331.942 101.479 331.588 101.711 331.438 101.953C330.723 103.107 330.468 104.535 330.298 105.892C330.068 107.685 329.859 109.58 328.743 110.975C326.662 113.523 322.489 113.015 320.2 115.289C318.946 116.501 318.475 118.344 317.973 120.035C317.471 121.726 316.786 123.508 315.335 124.497C314.456 125.103 313.349 125.333 312.391 125.796C311.433 126.26 310.511 127.139 310.551 128.294C310.576 128.659 310.639 128.963 310.665 129.328C310.6 129.5 310.546 129.723 310.375 129.864Z" fill="#FF8B2E"/>
</svg>
