<svg width="22" height="15" viewBox="0 0 22 15" fill="none" xmlns="http://www.w3.org/2000/svg">
<path d="M0.750001 8.2499L19.7121 8.2499L13.9829 13.7068C13.6829 13.9926 13.6713 14.4673 13.957 14.7673C14.2424 15.0669 14.7171 15.0789 15.0175 14.7932L21.5605 8.56077C21.8436 8.27727 22 7.90078 22 7.49991C22 7.09941 21.8436 6.72254 21.5474 6.42667L15.0171 0.206995C14.872 0.0686213 14.686 -1.26794e-06 14.5 -1.25168e-06C14.302 -1.23437e-06 14.104 0.0779969 13.9566 0.23287C13.6709 0.532866 13.6825 1.00724 13.9825 1.29298L19.7357 6.74992L0.750001 6.74992C0.336002 6.74992 1.21548e-06 7.08591 1.25167e-06 7.49991C1.28786e-06 7.9139 0.336002 8.2499 0.750001 8.2499Z" fill="white"/>
</svg>
