<svg width="18" height="10" viewBox="0 0 18 10" fill="none" xmlns="http://www.w3.org/2000/svg">
<path d="M17.5 4.50007H1.52525L5.34475 0.862111C5.54475 0.671614 5.5525 0.355118 5.362 0.15512C5.17175 -0.0446275 4.85525 -0.0526275 4.655 0.13787L0.293 4.29282C0.10425 4.48182 0 4.73281 0 5.00006C0 5.26706 0.10425 5.5183 0.30175 5.71555L4.65525 9.862C4.752 9.95425 4.876 10 5 10C5.132 10 5.264 9.948 5.36225 9.84475C5.55275 9.64475 5.545 9.32851 5.345 9.13801L1.5095 5.50005H17.5C17.776 5.50005 18 5.27606 18 5.00006C18 4.72406 17.776 4.50007 17.5 4.50007Z" fill="#0EA89B"/>
</svg>
