<svg width="15" height="15" viewBox="0 0 15 15" fill="none" xmlns="http://www.w3.org/2000/svg">
<path d="M13.3623 2.88574C13.1953 2.64841 12.9932 2.42868 12.7822 2.21777C12.5713 2.00686 12.3516 1.80466 12.1142 1.63766C10.8047 0.591796 9.19628 0 7.49999 0C5.50485 0 3.63278 0.802734 2.21777 2.21777C0.802763 3.63281 0 5.50485 0 7.49999C0 9.20507 0.591796 10.8134 1.63772 12.123C1.8135 12.3515 2.00683 12.5712 2.21777 12.7822C2.42871 12.9932 2.64844 13.1865 2.87695 13.3623C4.18649 14.4082 5.79492 15 7.49999 15C9.49514 15 11.3672 14.1973 12.7822 12.7822C14.1973 11.3671 15 9.49508 15 7.49999C15 5.80371 14.4082 4.19531 13.3623 2.88574ZM1.78711 7.49999C1.78711 5.9707 2.38476 4.53808 3.45706 3.457C4.53808 2.38476 5.9707 1.78711 7.49999 1.78711C8.73049 1.78711 9.89938 2.17383 10.8662 2.88574L2.89453 10.8662C2.17383 9.89938 1.78711 8.73043 1.78711 7.49999ZM11.5429 11.5429C10.4619 12.6152 9.02929 13.2129 7.49999 13.2129C6.2695 13.2129 5.10061 12.8262 4.13376 12.1055L12.1142 4.13379C12.8262 5.10055 13.2129 6.2695 13.2129 7.49999C13.2129 9.02929 12.6152 10.4619 11.5429 11.5429Z" fill="#DB2E27"/>
</svg>
