<svg width="558" height="518" viewBox="0 0 558 518" fill="none" xmlns="http://www.w3.org/2000/svg">
<path d="M14.0999 118.331C10.1755 96.3033 18.9105 82.2512 28.6584 77.9469C38.4062 73.6427 55.6232 70.6044 69.0423 86.0491C90.3104 110.482 108.667 172.894 117.528 179.73C132.087 190.997 178.927 220.114 203.107 252.395C228.932 293.286 262.227 378.738 188.548 392.916C96.5135 410.64 86.7657 344.43 81.9551 325.061C77.3976 306.831 81.9551 255.56 73.8529 223.279C69.6753 206.188 19.0371 145.802 14.0999 118.331Z" fill="#E4EAF4"/>
<path d="M202.854 250.75C228.679 291.64 261.974 377.092 188.295 391.271L28.4053 76.1746C28.4053 76.1746 55.3701 68.8321 68.7892 84.2767C90.0572 108.71 108.414 171.121 117.275 177.957C131.834 189.351 178.674 218.468 202.854 250.75Z" fill="#8AA8D3" fill-opacity="0.5"/>
<path d="M28.2783 76.4278L189.055 387.852" stroke="#203342" stroke-opacity="0.1" stroke-width="2"/>
<path d="M89.1698 143.523C90.4358 148.587 93.6007 169.475 79.6752 175.805M67.0156 193.529C72.7124 201.124 85.372 203.656 91.0688 201.124" stroke="#203342" stroke-opacity="0.1" stroke-width="2"/>
<path d="M54.3586 94.7842C55.6246 99.848 65.1192 115.672 51.1937 122.002M34.7363 142.89C40.4331 150.486 56.8905 149.853 62.5873 147.321" stroke="#203342" stroke-opacity="0.1" stroke-width="2"/>
<path d="M110.692 235.938C127.15 232.14 125.631 211.505 125.251 205.555" stroke="#203342" stroke-opacity="0.1" stroke-width="2"/>
<path d="M123.985 263.789C115.883 264.295 98.6657 263.789 88.5381 251.13M141.708 298.603C166.394 296.071 171.838 240.622 171.458 234.672" stroke="#203342" stroke-opacity="0.1" stroke-width="2"/>
<path d="M158.797 333.416C150.695 333.923 113.856 333.416 100.563 305.565M176.521 361.9C208.803 358.103 209.182 302.654 208.803 296.704" stroke="#203342" stroke-opacity="0.1" stroke-width="2"/>
<path d="M258.557 178.717C274.508 280.12 258.051 366.585 244.885 368.61C231.719 370.636 159.812 323.669 143.861 222.266C127.91 120.863 173.991 3.50883 187.157 1.3567C205.26 -1.4284 242.606 77.314 258.557 178.717Z" fill="#D1F2E4"/>
<path d="M245.643 368.61C258.808 366.584 275.266 279.993 259.315 178.717C243.364 77.314 206.018 -1.30181 187.915 1.48329L245.643 368.61Z" fill="#89CFB0" fill-opacity="0.5"/>
<path d="M189.182 0.850327L248.681 361.647" stroke="#649D84" stroke-opacity="0.3" stroke-width="2"/>
<path d="M157.912 76.5544L206.272 109.343" stroke="#649D84" stroke-opacity="0.3" stroke-width="2"/>
<path d="M206.273 108.71L227.921 74.1491" stroke="#649D84" stroke-opacity="0.3" stroke-width="2"/>
<path d="M217.031 174.539L149.683 143.397" stroke="#649D84" stroke-opacity="0.3" stroke-width="2"/>
<path d="M217.033 174.539L243.112 142.511" stroke="#649D84" stroke-opacity="0.3" stroke-width="2"/>
<path d="M227.159 236.571L149.683 202.897" stroke="#649D84" stroke-opacity="0.3" stroke-width="2"/>
<path d="M227.16 236.571L257.037 188.085" stroke="#649D84" stroke-opacity="0.3" stroke-width="2"/>
<path d="M239.442 301.008L171.08 276.955" stroke="#649D84" stroke-opacity="0.3" stroke-width="2"/>
<path d="M423.508 204.922C388.568 284.677 332.486 336.961 319.827 331.391C307.167 325.821 266.783 254.801 301.724 175.046C336.664 95.2905 433.763 36.93 446.296 42.3736C463.639 49.9693 458.449 125.04 423.508 204.922Z" fill="#E8F8F1"/>
<path d="M319.574 331.897C332.234 337.468 388.316 285.184 423.256 205.429C458.196 125.673 463.26 50.4757 446.043 42.88L319.574 331.897Z" fill="#D6F0E4"/>
<path d="M445.792 45.5385L311.601 337.341" stroke="#649D84" stroke-opacity="0.2" stroke-width="2"/>
<path d="M383.377 82.7576L404.772 132.636" stroke="#649D84" stroke-opacity="0.2" stroke-width="2"/>
<path d="M405.15 132.256L439.331 119.217" stroke="#649D84" stroke-opacity="0.2" stroke-width="2"/>
<path d="M380.469 185.426L343.377 126.433" stroke="#649D84" stroke-opacity="0.2" stroke-width="2"/>
<path d="M380.467 185.426L416.926 176.565" stroke="#649D84" stroke-opacity="0.2" stroke-width="2"/>
<path d="M357.424 235.558L313.749 169.222" stroke="#649D84" stroke-opacity="0.2" stroke-width="2"/>
<path d="M357.426 235.558L405.026 216.949" stroke="#649D84" stroke-opacity="0.2" stroke-width="2"/>
<path d="M334.512 288.728L293.115 234.166" stroke="#649D84" stroke-opacity="0.2" stroke-width="2"/>
<path d="M234.502 106.304C238.807 87.948 250.327 79.9725 259.315 79.8459C268.303 79.7193 282.735 83.264 287.926 99.7214C296.154 125.8 289.571 180.489 294.129 188.718C301.598 202.39 328.183 240.622 336.159 273.917C342.488 314.301 339.577 391.777 277.671 378.105C200.322 361.014 215.007 306.325 217.665 289.614C220.197 273.917 240.959 235.685 245.516 207.96C248.048 193.022 229.059 129.218 234.502 106.304Z" fill="#DFE7F3"/>
<path d="M335.021 273.663C341.351 314.047 338.439 391.524 276.534 377.852L258.178 79.7193C267.166 79.5927 281.598 83.1374 286.788 99.5948C295.017 125.673 288.434 180.363 292.991 188.591C300.461 202.137 327.046 240.495 335.021 273.663Z" fill="#86C1E2" fill-opacity="0.5"/>
<path d="M259.062 79.4661L277.039 376.712" stroke="#203342" stroke-opacity="0.1" stroke-width="2"/>
<path d="M248.808 183.781C250.58 191.63 259.568 197.959 264.885 197.959" stroke="#203342" stroke-opacity="0.1" stroke-width="2"/>
<path d="M272.862 102.633C272.103 107.064 274.002 122.509 261.089 122.762M241.087 133.269C242.859 141.118 255.899 146.308 261.216 146.308" stroke="#203342" stroke-opacity="0.1" stroke-width="2"/>
<path d="M268.177 231.76C282.229 234.419 288.179 217.835 289.951 213.151" stroke="#203342" stroke-opacity="0.1" stroke-width="2"/>
<path d="M270.836 291.134C290.838 297.59 314.259 256.446 315.904 251.636M268.937 257.966C262.481 255.56 249.315 249.231 245.771 235.938L268.937 257.966Z" stroke="#203342" stroke-opacity="0.1" stroke-width="2"/>
<path d="M276.153 352.279C302.612 360.381 321.981 317.465 323.627 312.655M272.102 324.048C265.646 321.643 237.162 308.604 236.402 282.399L272.102 324.048Z" stroke="#203342" stroke-opacity="0.1" stroke-width="2"/>
<path d="M13.4674 444.82C-31.7271 421.274 56.7631 399.626 106.642 391.777H360.972C395.532 391.777 556.688 408.108 556.688 444.82C556.688 481.533 500.1 503.687 454.146 514.701C408.065 525.715 360.972 496.345 326.411 492.674C291.851 489.002 251.087 518.372 221.717 514.701C192.347 511.03 165.129 497.864 145.253 470.646C125.378 443.175 69.929 474.191 13.4674 444.82Z" fill="#E1E9F5" stroke="#E1E9F5"/>
<path d="M519.215 442.542C532.15 442.542 542.635 441.408 542.635 440.01C542.635 438.611 532.15 437.478 519.215 437.478C506.28 437.478 495.795 438.611 495.795 440.01C495.795 441.408 506.28 442.542 519.215 442.542Z" fill="#D1DDEE"/>
<path d="M538.965 406.462C538.965 406.462 541.623 406.082 543.649 404.31C545.674 402.538 547.7 400.512 547.7 400.512C547.7 400.512 543.522 400.259 541.497 402.031C539.598 403.804 538.965 406.462 538.965 406.462Z" fill="#47CE92"/>
<path d="M533.393 409.753C533.393 409.753 534.913 407.475 534.786 404.816C534.659 402.031 533.647 399.626 533.647 399.626C533.647 399.626 531.621 402.158 531.621 404.943C531.748 407.601 533.393 409.753 533.393 409.753Z" fill="#47CE92"/>
<path d="M545.042 409.12C545.042 409.12 542.511 408.361 539.852 409.12C537.194 410.007 535.168 411.652 535.168 411.652C535.168 411.652 538.206 412.918 540.738 412.032C543.27 411.273 545.042 409.12 545.042 409.12Z" fill="#47CE92"/>
<path d="M528.964 416.463C528.964 416.463 529.597 413.805 528.71 411.273C527.698 408.741 526.052 406.715 526.052 406.715C526.052 406.715 524.913 409.754 525.925 412.285C526.812 414.944 528.964 416.463 528.964 416.463Z" fill="#47CE92"/>
<path d="M540.105 416.716C540.105 416.716 537.699 415.577 535.041 416.083C532.382 416.59 530.104 417.982 530.104 417.982C530.104 417.982 532.889 419.628 535.674 419.122C538.206 418.615 540.105 416.716 540.105 416.716Z" fill="#47CE92"/>
<path d="M524.658 423.299C524.658 423.299 525.291 420.641 524.278 418.109C523.265 415.577 521.493 413.678 521.493 413.678C521.493 413.678 520.48 416.716 521.493 419.248C522.379 421.78 524.658 423.299 524.658 423.299Z" fill="#47CE92"/>
<path d="M536.308 421.907C536.308 421.907 533.776 421.02 531.117 421.78C528.459 422.54 526.307 424.185 526.307 424.185C526.307 424.185 529.218 425.451 531.877 424.692C534.535 424.059 536.308 421.907 536.308 421.907Z" fill="#47CE92"/>
<path d="M534.661 429.123C534.661 429.123 532.256 427.983 529.47 428.616C526.812 429.123 524.533 430.515 524.533 430.515C524.533 430.515 527.318 432.161 530.103 431.528C532.762 431.021 534.661 429.123 534.661 429.123Z" fill="#47CE92"/>
<path d="M522.38 429.629C522.38 429.629 522.38 426.97 520.861 424.692C519.341 422.413 517.063 420.894 517.063 420.894C517.063 420.894 516.81 424.185 518.329 426.337C519.848 428.616 522.38 429.629 522.38 429.629Z" fill="#47CE92"/>
<path d="M540.106 405.323C528.586 412.792 520.99 433.047 520.99 439.503" stroke="#5F9E86" stroke-miterlimit="10"/>
<path d="M501.112 376.965C501.112 376.965 503.643 373.294 503.897 368.61C504.15 363.926 504.276 358.989 504.276 358.989C504.276 358.989 499.339 363.673 499.086 368.357C498.833 373.041 501.112 376.965 501.112 376.965Z" fill="#B5C6EA"/>
<path d="M498.579 387.852C498.579 387.852 497.819 383.295 494.654 380.004C491.489 376.712 487.691 374.94 487.691 374.94C487.691 374.94 488.198 380.51 491.363 383.801C494.401 387.093 498.579 387.852 498.579 387.852Z" fill="#B5C6EA"/>
<path d="M510.735 373.041C510.735 373.041 506.937 375.193 505.038 379.371C503.013 383.548 502.633 388.106 502.633 388.106C502.633 388.106 507.317 385.954 509.342 381.776C511.241 377.598 510.735 373.041 510.735 373.041Z" fill="#B5C6EA"/>
<path d="M500.986 401.525C500.986 401.525 498.834 397.474 495.036 395.448C491.238 393.423 486.934 393.169 486.934 393.169C486.934 393.169 489.086 398.233 493.01 400.259C496.808 402.284 500.986 401.525 500.986 401.525Z" fill="#B5C6EA"/>
<path d="M513.771 388.106C513.771 388.106 509.846 389.625 507.314 393.549C504.782 397.347 503.77 401.905 503.77 401.905C503.77 401.905 508.707 400.512 511.239 396.588C513.771 392.79 513.771 388.106 513.771 388.106Z" fill="#B5C6EA"/>
<path d="M503.77 414.944C503.77 414.944 501.618 411.019 497.567 409.121C493.642 407.222 489.465 407.095 489.465 407.095C489.465 407.095 491.744 412.159 495.668 414.058C499.592 415.83 503.77 414.944 503.77 414.944Z" fill="#B5C6EA"/>
<path d="M515.164 399.246C515.164 399.246 511.366 401.272 509.34 405.449C507.315 409.5 506.682 414.184 506.682 414.184C506.682 414.184 511.492 412.159 513.518 408.108C515.67 403.93 515.164 399.246 515.164 399.246Z" fill="#B5C6EA"/>
<path d="M501.112 374.18C496.681 397.347 510.353 431.401 517.442 439.25" stroke="#9FB3D6" stroke-miterlimit="10"/>
<path d="M36.509 432.921C49.4436 432.921 59.9292 431.787 59.9292 430.389C59.9292 428.99 49.4436 427.857 36.509 427.857C23.5744 427.857 13.0889 428.99 13.0889 430.389C13.0889 431.787 23.5744 432.921 36.509 432.921Z" fill="#D1DDEE"/>
<path d="M56.2578 397.98C56.2578 397.98 58.9163 397.6 60.9418 395.828C62.9674 394.056 64.9929 392.03 64.9929 392.03C64.9929 392.03 60.8152 391.777 58.7897 393.549C56.8908 395.448 56.2578 397.98 56.2578 397.98Z" fill="#47CE92"/>
<path d="M50.6854 401.398C50.6854 401.398 52.2046 399.12 52.078 396.461C51.9514 393.676 50.9386 391.271 50.9386 391.271C50.9386 391.271 48.9131 393.803 48.9131 396.588C49.0397 399.246 50.6854 401.398 50.6854 401.398Z" fill="#47CE92"/>
<path d="M62.2075 400.765C62.2075 400.765 59.6755 400.006 57.017 400.765C54.3585 401.651 52.333 403.297 52.333 403.297C52.333 403.297 55.3713 404.563 57.9032 403.677C60.5617 402.917 62.2075 400.765 62.2075 400.765Z" fill="#47CE92"/>
<path d="M46.2572 408.108C46.2572 408.108 46.8902 405.449 46.004 402.917C44.9913 400.386 43.3455 398.36 43.3455 398.36C43.3455 398.36 42.2062 401.398 43.0923 403.93C43.9785 406.589 46.2572 408.108 46.2572 408.108Z" fill="#47CE92"/>
<path d="M57.3956 408.361C57.3956 408.361 54.9903 407.222 52.3318 407.728C49.6733 408.234 47.3945 409.627 47.3945 409.627C47.3945 409.627 50.1796 411.273 52.8381 410.766C55.4966 410.26 57.3956 408.361 57.3956 408.361Z" fill="#47CE92"/>
<path d="M41.9509 414.944C41.9509 414.944 42.5839 412.285 41.5711 409.754C40.5584 407.222 38.7861 405.323 38.7861 405.323C38.7861 405.323 37.7733 408.361 38.7861 410.893C39.6722 413.425 41.9509 414.944 41.9509 414.944Z" fill="#47CE92"/>
<path d="M53.5981 413.551C53.5981 413.551 51.0662 412.665 48.4077 413.425C45.7492 414.184 43.7236 415.83 43.7236 415.83C43.7236 415.83 46.6353 417.096 49.2938 416.336C51.8257 415.704 53.5981 413.551 53.5981 413.551Z" fill="#47CE92"/>
<path d="M51.9519 420.767C51.9519 420.767 49.4199 419.628 46.7614 420.261C44.1029 420.767 41.8242 422.16 41.8242 422.16C41.8242 422.16 44.6093 423.806 47.2678 423.173C50.0529 422.666 51.9519 420.767 51.9519 420.767Z" fill="#47CE92"/>
<path d="M39.6717 421.274C39.6717 421.274 39.6717 418.615 38.1526 416.337C36.6334 414.058 34.3547 412.539 34.3547 412.539C34.3547 412.539 34.1015 415.83 35.6206 417.982C37.1398 420.261 39.6717 421.274 39.6717 421.274Z" fill="#47CE92"/>
<path d="M57.3962 396.841C45.876 404.31 38.2803 424.565 38.2803 431.022" stroke="#5F9E86" stroke-miterlimit="10"/>
<path d="M18.279 368.61C18.279 368.61 20.8109 364.939 21.0641 360.255C21.3172 355.571 21.4438 350.633 21.4438 350.633C21.4438 350.633 16.5066 355.318 16.2534 360.002C16.1268 364.686 18.279 368.61 18.279 368.61Z" fill="#B5C6EA"/>
<path d="M15.8726 379.497C15.8726 379.497 15.113 374.94 11.9481 371.648C8.78321 368.357 4.98535 366.585 4.98535 366.585C4.98535 366.585 5.49173 372.155 8.65662 375.446C11.6949 378.738 15.8726 379.497 15.8726 379.497Z" fill="#B5C6EA"/>
<path d="M28.0279 364.686C28.0279 364.686 24.23 366.838 22.3311 371.015C20.3056 375.193 19.9258 379.75 19.9258 379.75C19.9258 379.75 24.6098 377.598 26.6353 373.421C28.5343 369.243 28.0279 364.686 28.0279 364.686Z" fill="#B5C6EA"/>
<path d="M18.2787 393.17C18.2787 393.17 16.1265 389.119 12.3287 387.093C8.53081 385.067 4.22656 384.814 4.22656 384.814C4.22656 384.814 6.37869 389.878 10.3031 391.904C14.101 393.929 18.2787 393.17 18.2787 393.17Z" fill="#B5C6EA"/>
<path d="M31.0635 379.75C31.0635 379.75 27.1391 381.27 24.6072 385.194C22.0753 388.992 21.0625 393.549 21.0625 393.549C21.0625 393.549 25.9997 392.157 28.5316 388.232C31.0635 384.435 31.0635 379.75 31.0635 379.75Z" fill="#B5C6EA"/>
<path d="M21.0641 406.589C21.0641 406.589 18.912 402.664 14.8609 400.765C10.9364 398.866 6.75879 398.74 6.75879 398.74C6.75879 398.74 9.03751 403.804 12.962 405.703C16.8864 407.475 21.0641 406.589 21.0641 406.589Z" fill="#B5C6EA"/>
<path d="M32.4575 390.891C32.4575 390.891 28.6596 392.916 26.6341 397.094C24.6086 401.145 23.9756 405.829 23.9756 405.829C23.9756 405.829 28.7862 403.804 30.8117 399.753C32.9639 395.575 32.4575 390.891 32.4575 390.891Z" fill="#B5C6EA"/>
<path d="M18.4055 365.825C13.9746 388.992 27.6469 423.046 34.7363 430.895" stroke="#9FB3D6" stroke-miterlimit="10"/>
<path d="M213.994 418.489C289.993 418.489 351.603 411.064 351.603 401.905C351.603 392.745 289.993 385.321 213.994 385.321C137.995 385.321 76.3848 392.745 76.3848 401.905C76.3848 411.064 137.995 418.489 213.994 418.489Z" fill="#D1DDEE"/>
<path d="M397.685 292.526L391.988 299.616C391.735 300.122 391.608 300.628 391.988 301.135L396.925 308.73L388.443 305.439C387.937 305.186 387.304 305.312 386.924 305.819L381.227 312.908L381.734 303.92C381.734 303.287 381.48 302.907 380.974 302.527L372.492 299.236L381.227 296.957C381.86 296.83 382.113 296.324 382.24 295.818L382.746 286.829L387.684 294.425C388.063 294.932 388.57 295.058 389.203 294.932L397.685 292.526Z" fill="white"/>
<path d="M415.533 325.061C416.546 326.454 416.039 327.467 414.647 326.834L404.899 322.529L405.659 332.024C405.785 333.417 404.393 333.29 403.507 332.024L391.986 317.212V317.086C396.797 315.567 400.595 312.149 402.874 307.971L403.127 308.097L415.533 325.061Z" fill="white"/>
<path d="M396.164 193.782L430.851 323.416C432.244 328.606 428.699 334.303 422.876 335.822L216.905 391.017C211.082 392.537 205.258 389.498 203.866 384.181L169.178 254.548C167.786 249.357 171.331 243.66 177.154 242.141L382.872 187.072C388.568 185.173 394.645 188.212 396.164 193.782Z" fill="white"/>
<path d="M381.352 281.259C391.353 278.601 401.734 284.551 404.393 294.552C405.659 299.362 405.026 304.3 402.874 308.224C400.595 312.402 396.797 315.82 391.986 317.339C391.607 317.466 391.48 317.466 391.1 317.592C386.669 318.732 382.365 318.352 378.567 316.579C373.63 314.301 369.706 309.996 368.06 304.3C365.275 294.172 371.351 283.918 381.352 281.259ZM391.48 299.362L396.544 293.033L388.695 295.058C388.188 295.185 387.682 294.932 387.429 294.678L382.998 287.969L382.618 296.071C382.618 296.704 382.239 296.957 381.732 297.084L373.883 299.109L381.479 302.021C381.985 302.274 382.239 302.654 382.239 303.16L381.859 311.262L386.923 304.933C387.176 304.426 387.809 304.3 388.189 304.553L395.784 307.465L391.353 300.755C391.227 300.249 391.227 299.616 391.48 299.362Z" fill="white"/>
<path d="M392.24 316.453L389.455 336.075C389.075 337.847 387.809 338.607 387.429 337.214L383.125 328.1L376.289 337.341C375.403 338.607 374.263 337.847 374.516 336.202L376.922 315.567L377.681 315.946C381.732 317.845 386.543 318.225 390.974 316.959C391.733 316.833 391.86 316.833 392.24 316.453Z" fill="white"/>
<path d="M375.528 225.431L348.437 232.647C347.297 232.9 346.411 232.267 346.158 231.381C345.905 230.241 346.538 229.355 347.424 229.102L374.515 221.886C375.655 221.633 376.541 222.266 376.794 223.152C377.3 224.038 376.667 225.178 375.528 225.431Z" fill="white"/>
<path d="M322.992 239.483L310.206 242.901C309.067 243.154 308.181 242.521 307.927 241.635C307.674 240.496 308.307 239.609 309.193 239.356L321.979 235.938C323.119 235.685 324.005 236.318 324.258 237.204C324.891 238.09 324.258 239.23 322.992 239.483Z" fill="white"/>
<path d="M279.823 251.13L189.307 275.309C188.168 275.562 187.028 274.93 186.775 274.17C186.522 273.031 187.155 272.144 188.294 271.891L278.81 247.712C279.949 247.458 280.836 248.091 281.089 248.977C281.595 249.737 280.962 250.75 279.823 251.13Z" fill="white"/>
<path d="M381.86 251.13L281.723 277.968C280.583 278.221 279.697 277.588 279.444 276.702C279.191 275.562 279.824 274.676 280.71 274.423L380.847 247.585C381.986 247.332 382.872 247.965 383.126 248.851C383.379 249.737 382.746 250.876 381.86 251.13Z" fill="white"/>
<path d="M359.704 279.36L334.259 286.196C333.119 286.45 332.233 285.817 331.98 284.931C331.727 284.044 332.36 282.905 333.246 282.652L358.692 275.816C359.831 275.562 360.717 276.195 360.97 277.082C361.224 277.968 360.591 279.107 359.704 279.36Z" fill="white"/>
<path d="M281.089 301.388L209.942 320.504C208.803 320.757 207.917 320.124 207.664 319.238C207.41 318.352 208.043 317.212 208.93 316.959L280.456 297.843C281.595 297.59 282.482 298.223 282.735 299.109C282.861 299.995 282.228 301.008 281.089 301.388Z" fill="white"/>
<path d="M324.511 312.781L247.414 333.417C246.275 333.67 245.389 333.037 245.135 332.151C244.882 331.011 245.515 330.125 246.401 329.872L323.118 309.363C324.258 309.11 325.144 309.743 325.397 310.629C326.03 311.516 325.397 312.655 324.511 312.781Z" fill="white"/>
<path d="M234.122 337.088L215.766 342.025C214.626 342.278 213.74 341.645 213.487 340.759C213.234 339.62 213.867 338.734 214.753 338.48L233.109 333.543C234.249 333.29 235.135 333.923 235.388 334.809C235.641 335.695 235.008 336.835 234.122 337.088Z" fill="white"/>
<path d="M330.334 334.429L282.734 347.215C281.595 347.469 280.709 346.836 280.456 345.95C280.202 344.81 280.835 343.924 281.722 343.671L329.321 330.885C330.461 330.631 331.347 331.264 331.6 332.151C331.853 333.037 331.22 334.176 330.334 334.429Z" fill="white"/>
<path d="M269.57 350.634L221.464 363.546C220.325 363.799 219.438 363.167 219.185 362.28C218.932 361.141 219.565 360.255 220.451 360.002L268.937 346.962C270.077 346.709 271.216 347.342 271.469 348.102C271.469 349.241 270.836 350.38 269.57 350.634Z" fill="white"/>
<path d="M402.874 307.338L414.901 323.162C415.913 324.681 415.534 326.074 414.268 325.441L404.773 322.023L406.419 333.29C406.672 334.809 405.406 335.062 404.267 333.67L391.48 317.466L392.24 317.212C396.418 315.693 400.089 312.528 402.368 308.477C402.747 307.971 402.874 307.844 402.874 307.338Z" fill="white"/>
<path d="M266.531 376.712L268.177 387.726L277.545 385.321L285.647 393.423L291.724 386.08L302.864 387.726L303.497 377.978L313.625 372.914L308.561 364.812L313.625 354.811L304.51 351.14L302.864 340.126L293.496 342.531L285.394 334.429L279.318 341.772L268.177 340.126L267.544 349.874L257.417 354.938L262.48 363.04L257.417 373.041L266.531 376.712ZM145.633 402.538V148.714C145.633 146.688 147.279 145.043 149.304 145.043H330.336C332.361 145.043 334.007 146.688 334.007 148.714V248.218V326.707V371.269V402.158C334.007 404.183 332.361 405.829 330.336 405.829H196.018H149.051C147.025 406.209 145.633 404.563 145.633 402.538Z" fill="white"/>
<path d="M332.613 145.929L329.322 148.967L329.195 407.855L334.006 404.31L333.879 149.727V148.714C334.006 148.714 333.879 146.815 332.613 145.929Z" fill="white"/>
<path d="M143.228 149.22L147.532 145.549C150.57 147.954 150.19 149.094 150.19 149.094L143.228 149.22Z" fill="white"/>
<path d="M264.761 390.764L263.115 379.75L254 376.079L259.317 366.078L254 357.976L264.128 352.912L264.761 343.164L275.901 344.81L282.231 337.468L289.953 345.57L299.321 343.164L300.967 354.178L310.082 357.849L305.018 367.851L310.082 375.953L299.954 381.016L299.321 390.764L288.181 388.739L282.104 396.081L274.002 388.359L264.761 390.764Z" fill="white"/>
<path d="M263.114 379.624L264.76 390.638L274.128 388.232L282.23 396.334L288.307 388.992L299.447 390.638L300.08 380.89L310.208 375.826L305.144 367.724L310.208 357.723L301.093 354.052L299.447 343.038L290.079 345.443L281.977 337.341L275.901 344.684L264.76 343.038L264.127 352.786L254 357.849L259.063 365.952L254 375.953L263.114 379.624ZM142.216 405.449V151.752C142.216 149.727 143.862 148.081 145.887 148.081H326.919C328.944 148.081 330.59 149.727 330.59 151.752V251.256V329.745V374.307V405.196C330.59 407.222 328.944 408.867 326.919 408.867H192.601H145.634C143.608 409.121 142.216 407.475 142.216 405.449Z" fill="white"/>
<path d="M293.624 185.553H277.167C275.774 185.553 274.762 184.54 274.762 183.148C274.762 181.755 275.774 180.742 277.167 180.742H293.624C295.017 180.742 296.03 181.755 296.03 183.148C295.65 184.54 294.637 185.553 293.624 185.553Z" fill="white"/>
<path d="M261.721 185.553H253.999C252.607 185.553 251.594 184.54 251.594 183.148C251.594 181.755 252.607 180.742 253.999 180.742H261.721C263.114 180.742 264.127 181.755 264.127 183.148C264.127 184.54 263.114 185.553 261.721 185.553Z" fill="white"/>
<path d="M235.897 185.553H181.461C180.068 185.553 179.056 184.54 179.056 183.148C179.056 181.755 180.068 180.742 181.461 180.742H235.897C237.29 180.742 238.302 181.755 238.302 183.148C237.923 184.54 237.29 185.553 235.897 185.553Z" fill="white"/>
<path d="M300.081 224.798H167.789C166.397 224.798 165.384 223.785 165.384 222.392C165.384 221 166.397 219.987 167.789 219.987H300.081C301.474 219.987 302.487 221 302.487 222.392C302.107 223.785 301.094 224.798 300.081 224.798Z" fill="white"/>
<path d="M311.474 257.586H277.926C276.533 257.586 275.521 256.573 275.521 255.181C275.521 253.788 276.533 252.775 277.926 252.775H311.474C312.866 252.775 313.879 253.788 313.879 255.181C313.499 256.573 312.486 257.586 311.474 257.586Z" fill="white"/>
<path d="M262.103 257.586H167.789C166.397 257.586 165.384 256.573 165.384 255.181C165.384 253.788 166.397 252.775 167.789 252.775H262.103C263.495 252.775 264.508 253.788 264.508 255.181C264.128 256.573 263.115 257.586 262.103 257.586Z" fill="white"/>
<path d="M311.475 290.501H209.692C208.3 290.501 207.287 289.488 207.287 288.095C207.287 286.703 208.3 285.69 209.692 285.69H311.095C312.488 285.69 313.501 286.703 313.501 288.095C313.501 289.488 312.488 290.501 311.475 290.501Z" fill="white"/>
<path d="M311.475 323.289H248.684C247.291 323.289 246.278 322.276 246.278 320.884C246.278 319.491 247.291 318.478 248.684 318.478H311.475C312.867 318.478 313.88 319.491 313.88 320.884C313.501 322.276 312.488 323.289 311.475 323.289Z" fill="white"/>
<path d="M231.593 323.289H167.789C166.397 323.289 165.384 322.276 165.384 320.884C165.384 319.491 166.397 318.478 167.789 318.478H231.593C232.986 318.478 233.999 319.491 233.999 320.884C233.872 322.276 232.859 323.289 231.593 323.289Z" fill="white"/>
<path d="M230.581 364.939H179.942C178.55 364.939 177.537 363.926 177.537 362.533C177.537 361.141 178.55 360.128 179.942 360.128H230.581C231.973 360.128 232.986 361.141 232.986 362.533C232.986 363.926 231.973 364.939 230.581 364.939Z" fill="white"/>
<path d="M462.376 445.96H140.57C139.431 445.96 134.62 443.808 134.62 441.149C134.62 438.491 139.431 436.339 140.57 436.339H462.376C463.515 436.339 468.832 438.491 468.832 441.149C468.832 443.808 463.515 445.96 462.376 445.96Z" fill="white"/>
<path d="M286.786 341.519C285.394 339.873 287.419 337.594 289.192 338.86C308.181 353.419 325.145 357.976 337.425 337.088C338.311 335.442 340.336 331.771 340.843 329.999C341.729 326.707 345.147 324.682 348.565 325.568C352.236 326.58 354.135 330.505 352.743 334.05C345.273 352.153 319.701 377.472 286.786 341.519Z" fill="white"/>
<path d="M150.699 381.776C150.952 385.827 153.358 408.488 155.13 423.046C156.016 430.389 156.143 435.706 156.776 435.579C158.548 435.073 163.992 387.346 163.612 381.143C163.232 374.94 160.067 370.129 156.523 370.382C152.978 370.509 150.319 375.573 150.699 381.776Z" fill="white"/>
<path d="M159.687 423.932C159.054 423.932 155.383 424.439 154.75 424.565C152.597 410.007 149.939 385.447 150.192 381.143C150.192 380.637 150.319 380.257 150.319 379.75C151.078 373.674 151.078 367.344 149.686 361.394C146.521 347.722 144.116 332.784 143.736 328.733C143.229 320.63 147.913 313.794 154.117 313.414C160.32 313.035 165.51 318.605 166.523 326.58C169.055 345.949 159.687 423.552 159.687 423.932Z" fill="white"/>
<path d="M165.763 361.9C166.902 346.962 167.408 333.29 166.649 326.58C165.636 318.605 160.446 313.035 154.243 313.414C148.039 313.794 143.355 320.63 143.862 328.733C143.988 329.745 144.115 331.264 144.368 333.417C153.61 337.088 160.319 345.57 162.091 355.697C162.598 358.103 163.864 360.255 165.763 361.9Z" fill="white"/>
<path d="M154.622 423.932C154.622 423.932 155.002 434.44 154.116 436.465C153.23 438.491 153.103 440.77 155.762 440.77C158.42 440.77 164.877 440.77 165.889 440.77C167.662 440.77 169.181 440.516 169.054 439.377C169.054 438.238 161.079 437.858 159.433 436.718C157.914 435.579 159.053 424.565 159.053 424.565L154.622 423.932Z" fill="white"/>
<path d="M165.129 437.984C163.61 438.491 161.964 438.871 160.318 438.871C158.039 438.871 155.761 438.238 153.862 437.351C153.355 439.124 153.482 440.77 155.887 440.77C158.546 440.77 165.002 440.77 166.015 440.77C167.787 440.77 169.306 440.516 169.18 439.377C169.18 438.744 167.281 438.364 165.129 437.984Z" fill="white"/>
<path d="M164.75 383.169C165.003 387.22 167.409 409.88 169.181 424.439C170.067 431.781 170.194 437.098 170.827 436.972C172.599 436.465 178.043 388.739 177.663 382.536C177.283 376.332 174.118 371.522 170.573 371.775C167.029 371.902 164.37 377.092 164.75 383.169Z" fill="white"/>
<path d="M173.739 425.325C173.107 425.325 169.435 425.831 168.802 425.958C166.65 411.399 163.992 386.84 164.245 382.536C164.245 382.029 164.371 381.649 164.371 381.143C165.131 375.066 165.131 368.737 163.738 362.787C160.574 349.114 158.168 334.176 157.788 330.125C157.282 322.023 161.966 315.187 168.169 314.807C174.372 314.427 179.563 319.997 180.576 327.973C182.981 347.342 173.739 424.945 173.739 425.325Z" fill="white"/>
<path d="M168.674 425.325C168.674 425.325 169.053 435.832 168.167 437.858C167.281 439.883 167.028 442.289 169.813 442.162C172.471 442.036 177.662 441.909 178.675 441.782C180.953 441.529 183.738 441.656 183.612 440.516C183.612 439.377 175.13 439.25 173.611 438.111C172.092 436.972 173.231 425.958 173.231 425.958L168.674 425.325Z" fill="white"/>
<path d="M178.422 439.124C176.903 439.63 175.257 440.01 173.611 440.01C171.586 440.01 169.56 439.63 167.788 438.744C167.282 440.516 167.282 442.162 169.814 442.162C172.472 442.035 177.662 441.909 178.675 441.782C180.954 441.529 183.739 441.656 183.612 440.516C183.612 439.757 181.081 439.503 178.422 439.124Z" fill="white"/>
<path d="M166.269 262.776C164.37 262.776 162.345 261.89 159.56 259.358C157.914 257.966 156.774 255.56 156.774 253.915V244.8H170.7C170.7 244.8 171.713 249.61 170.7 254.421C170.067 258.092 167.788 262.776 166.269 262.776Z" fill="white"/>
<path d="M117.277 260.498C117.15 259.611 117.91 258.725 118.796 258.725C119.682 258.599 120.315 259.232 120.568 259.991C121.961 265.435 123.48 270.752 125.505 275.689C129.556 286.07 133.228 287.589 134.494 288.475C134.62 288.475 135.38 288.728 135.506 288.728C139.431 289.615 146.393 281.006 147.659 274.297C147.659 273.917 148.546 271.638 148.419 271.891C149.432 268.98 152.723 267.334 155.635 268.473C173.485 274.676 123.606 336.581 117.277 260.498Z" fill="white"/>
<path d="M147.027 324.935C152.091 330.758 181.587 333.29 181.587 333.29C183.74 330.758 173.612 301.894 173.612 301.894C173.612 301.894 178.549 281.133 178.296 273.537C178.169 270.372 175.637 267.967 172.599 267.967H153.863C150.951 267.967 148.546 270.119 148.293 273.031C147.786 278.981 155.635 301.261 155.635 301.261C155.635 301.261 142.723 319.871 147.027 324.935Z" fill="white"/>
<path d="M173.739 301.894C173.739 301.894 178.549 280.5 178.423 273.031C178.296 270.245 176.017 267.967 173.232 267.967H170.447C169.434 270.372 167.156 272.271 163.611 272.271C160.193 272.271 157.914 270.372 156.775 267.967H154.116C156.902 274.043 155.889 282.019 151.078 286.703C153.104 294.045 155.636 301.261 155.636 301.261C155.636 301.261 141.837 322.023 143.862 325.188C148.166 331.771 181.588 333.29 181.588 333.29C183.866 330.125 173.739 301.894 173.739 301.894Z" fill="white"/>
<path d="M160.571 269.233L169.053 268.347L166.395 259.105L160.824 259.738L160.571 269.233Z" fill="white"/>
<path d="M160.824 259.738L166.268 259.105L167.154 262.017C165.888 263.409 164.369 266.448 162.344 266.448C161.711 266.448 161.078 266.321 160.571 265.941L160.824 259.738Z" fill="white"/>
<path d="M159.308 240.496L163.992 240.242C165.384 240.116 166.65 239.736 167.79 238.976C169.435 237.964 171.461 238.09 172.727 239.609C174.119 241.255 174.752 243.407 171.714 245.686C170.195 246.825 167.916 245.813 166.397 246.446C166.27 246.446 166.27 246.446 166.144 246.446L161.966 246.699C160.447 246.825 159.561 248.091 159.561 249.484C159.561 250.37 158.928 251.509 158.928 251.509L157.029 249.104L155.257 247.585C154.877 247.205 154.624 246.825 154.624 246.319V246.066C154.244 243.154 156.396 240.749 159.308 240.496Z" fill="white"/>
<path d="M211.718 253.029C211.718 253.029 209.439 257.333 210.579 258.472C211.718 259.611 212.604 260.118 214.377 258.599C216.149 257.08 217.668 254.168 218.301 252.142C218.934 250.243 218.554 246.446 218.301 246.066C217.162 244.673 216.402 248.344 216.022 250.117C215.516 251.889 214.883 253.788 214.123 253.282C213.364 252.775 214.503 249.484 213.744 248.724C212.984 247.965 211.718 253.029 211.718 253.029Z" fill="white"/>
<path d="M118.796 253.155C118.796 253.155 120.948 257.586 119.809 258.725C118.669 259.865 117.656 260.371 116.011 258.852C114.365 257.206 112.846 254.294 112.213 252.269C111.58 250.243 112.086 246.572 112.339 246.192C113.479 244.8 114.112 248.598 114.492 250.243C114.871 252.016 115.504 253.915 116.264 253.535C117.024 253.155 116.011 249.737 116.77 248.977C117.656 248.218 118.796 253.155 118.796 253.155Z" fill="white"/>
<path d="M187.283 285.057C192.22 290.754 196.018 287.716 200.322 281.512C202.095 278.348 204.373 275.816 210.45 258.725C211.083 256.826 213.995 257.459 213.742 259.485C207.792 311.516 179.561 303.287 171.079 279.993C170.446 278.221 169.94 276.575 169.813 273.917C169.686 270.625 172.345 267.967 175.51 267.967C178.675 267.967 181.46 270.499 181.46 273.664C181.713 275.816 183.865 281.259 187.283 285.057Z" fill="white"/>
<path d="M179.435 275.436C177.662 274.17 176.903 272.018 177.029 269.866C177.282 265.435 174.624 261.384 171.206 258.219C168.801 256.067 167.661 252.775 168.041 249.484L168.547 245.306H154.495C154.495 248.724 152.849 252.016 150.064 254.168C146.9 256.447 144.241 259.738 142.722 263.789C138.924 273.664 142.595 284.424 151.077 288.349C148.798 297.717 152.976 307.211 161.205 310.376C170.32 313.921 180.954 308.477 184.878 298.096C188.296 289.488 185.764 280.247 179.435 275.436Z" fill="white"/>
<path d="M353.502 424.059C350.843 423.806 349.324 421.021 350.337 418.615C354.768 408.488 358.312 397.347 359.199 393.17C360.844 384.561 355.401 376.332 347.045 374.813C338.69 373.294 336.032 379.244 334.386 387.853C333.12 394.562 329.828 420.134 332.234 431.781C332.234 431.908 334.133 441.276 343.627 441.276C349.957 441.276 405.026 439.25 405.153 434.313C405.153 430.389 370.972 425.831 353.502 424.059Z" fill="white"/>
<path d="M352.11 414.311C355.654 405.449 358.44 396.714 359.199 393.043C360.845 384.435 355.401 376.206 347.046 374.687C338.691 373.168 336.032 379.118 334.386 387.726C334.386 387.979 334.26 388.232 334.26 388.486C348.818 397.221 350.717 412.286 352.11 414.311Z" fill="white"/>
<path d="M451.106 437.478C447.941 435.326 444.27 433.933 440.472 433.047C440.346 433.047 440.093 433.047 439.966 433.174C439.333 433.554 438.953 433.933 438.7 434.06C438.573 434.187 438.447 434.187 438.32 434.187C433.13 435.073 427.306 434.566 421.23 433.427C420.597 433.3 420.217 433.933 420.597 434.44L424.141 439.63C424.268 439.757 424.521 439.883 424.648 439.883C426.547 439.883 435.915 440.01 441.485 440.263C445.916 440.516 449.714 440.39 453.005 440.263C453.638 440.263 453.891 439.504 453.512 439.124C452.625 438.617 451.993 437.984 451.106 437.478Z" fill="white"/>
<path d="M450.219 434.946L444.902 432.034C442.624 430.768 439.206 433.554 438.699 434.06C438.826 434.06 438.952 434.06 439.079 434.06C443.763 434.06 448.067 436.465 450.852 440.01C451.106 440.39 451.612 440.643 452.118 440.643C457.056 440.896 460.6 440.896 462.499 440.896C463.512 440.896 464.018 439.504 463.132 438.871C460.094 436.972 452.118 436.085 450.219 434.946Z" fill="white"/>
<path d="M379.075 423.806C376.037 423.553 373.884 420.894 374.138 417.856C375.277 405.956 375.024 393.043 374.264 388.612C372.872 380.004 364.896 374.18 356.541 375.573C348.186 376.965 347.679 383.548 349.198 392.157C350.338 398.866 355.275 424.818 361.351 435.579L361.478 435.706C363.25 438.744 365.023 440.516 366.922 440.263C368.441 440.896 427.054 440.137 427.054 440.137C427.054 440.137 427.181 435.706 427.434 434.06C415.914 429.123 391.608 424.945 379.075 423.806Z" fill="white"/>
<path d="M332.615 340.886C334.134 338.86 340.084 330.885 340.971 328.859V328.733C341.097 328.606 341.097 328.353 341.224 328.226C342.996 325.188 346.794 324.302 349.832 325.947C352.871 327.72 353.757 331.518 352.111 334.556C350.465 337.341 348.946 339.62 347.174 342.025C346.034 343.544 344.642 345.19 343.376 346.583C342.49 345.696 332.615 341.012 332.615 340.886Z" fill="white"/>
<path d="M360.211 358.229C361.477 358.482 362.869 358.736 364.135 358.989C368.692 359.875 372.997 356.33 372.997 351.773C372.997 344.051 373.123 337.088 373.123 332.404C373.123 329.112 370.591 326.327 367.3 326.201L347.424 325.314C344.386 325.188 341.728 327.467 341.348 330.505C340.841 334.683 340.588 341.012 340.082 347.975C339.829 351.646 342.361 355.064 345.905 355.824C350.589 356.71 355.4 357.343 360.211 358.229Z" fill="white"/>
<path d="M347.173 325.314L350.465 325.441C351.477 328.1 353.756 330.252 357.427 330.378C361.099 330.505 363.63 328.606 364.896 326.074L367.808 326.201C370.846 326.327 373.252 328.859 373.125 331.897C372.998 339.746 372.872 354.938 373.125 368.737C373.378 381.143 377.556 391.777 375.151 395.069C375.151 395.069 341.983 397.094 333.754 388.232C335.4 380.004 336.286 369.496 337.678 358.482C339.071 347.595 340.463 336.581 341.35 330.252C341.603 327.34 344.135 325.188 347.173 325.314Z" fill="white"/>
<path d="M356.414 319.744H356.794C359.706 320.124 362.364 317.972 362.617 315.187L363.503 307.465L357.933 306.832L356.414 319.744Z" fill="white"/>
<path d="M355.401 327.846L362.87 326.201L357.3 316.2L350.717 318.985L352.489 325.821C352.742 327.34 354.008 328.1 355.401 327.846Z" fill="white"/>
<path d="M350.592 319.111L357.175 316.326L359.453 320.377C358.441 322.529 357.175 324.935 354.643 325.694C353.883 325.947 352.997 325.821 352.238 325.694L350.592 319.111Z" fill="white"/>
<path d="M351.098 323.542C355.908 324.175 360.213 320.757 360.719 315.946L361.858 306.325L347.173 304.553C347.173 304.553 346.287 312.022 346.667 317.212C347.047 321.137 348.692 323.289 351.098 323.542Z" fill="white"/>
<path d="M359.479 309.903L359.326 311.16L362.091 311.495L362.243 310.238L359.479 309.903Z" fill="white"/>
<path d="M358.439 313.921C358.186 315.82 358.946 317.465 360.085 317.592C361.225 317.719 362.744 315.44 362.997 313.541C363.25 311.642 362.111 310.883 360.971 310.756C359.705 310.629 358.693 312.022 358.439 313.921Z" fill="white"/>
<path d="M345.655 308.351C345.402 307.085 345.529 305.819 345.908 304.679C345.908 304.679 346.415 300.375 348.187 299.742C349.833 299.236 352.365 300.502 353.884 301.008C355.023 301.388 358.821 301.641 358.821 301.641C361.859 302.021 364.012 304.679 363.632 307.718L363.505 308.857L360.72 310.883L359.707 313.035H359.454C358.441 312.908 357.808 312.022 357.808 311.136C357.935 309.617 357.049 308.098 355.403 307.971L350.972 307.464C348.314 307.085 346.668 308.477 346.415 310.376L346.288 312.149L345.655 308.351Z" fill="white"/>
<path d="M375.402 333.67C371.604 357.723 346.791 384.561 303.875 382.156C302.863 382.156 302.103 381.27 302.23 380.257C302.23 379.371 302.989 378.738 303.749 378.611C332.739 374.687 357.299 360.508 362.995 331.897C363.882 327.72 367.3 325.947 370.465 326.58C373.756 327.213 375.908 330.378 375.402 333.67Z" fill="white"/>
<path d="M358.695 343.164C361.607 336.835 362.493 332.91 362.493 332.91C362.493 332.91 362.746 332.024 362.872 331.771C363.505 329.239 364.771 327.846 364.771 327.846C364.771 327.846 367.557 324.935 372.747 327.34C376.925 329.366 375.785 334.303 375.785 334.303C375.659 334.936 376.165 340.379 369.582 350.254C369.709 350.127 358.315 344.051 358.695 343.164Z" fill="white"/>
<path d="M299.193 377.598C299.193 377.598 304.384 377.345 305.017 378.991C305.65 380.51 305.776 381.776 303.498 382.662C301.219 383.675 297.674 383.802 295.522 383.548C293.37 383.295 289.952 381.27 289.699 380.763C288.939 379.118 292.737 380.004 294.636 380.384C296.535 380.763 298.687 381.017 298.56 380.004C298.434 378.991 294.762 378.611 294.383 377.598C294.003 376.459 299.193 377.598 299.193 377.598Z" fill="white"/>
<path d="M283.369 343.418C283.369 343.418 288.56 342.911 288.94 341.266C289.319 339.62 289.193 338.48 286.914 337.847C284.509 337.214 280.964 337.468 278.939 338.101C277.293 338.607 275.141 340.126 274.128 341.012H279.445C281.597 341.012 282.483 340.379 282.483 341.139C282.483 342.152 278.939 343.038 278.685 344.177C278.306 345.317 283.369 343.418 283.369 343.418Z" fill="white"/>
<path d="M397.685 292.526L391.988 299.616C391.735 300.122 391.608 300.628 391.988 301.135L396.925 308.73L388.443 305.439C387.937 305.186 387.304 305.312 386.924 305.819L381.227 312.908L381.734 303.92C381.734 303.287 381.48 302.907 380.974 302.527L372.492 299.236L381.227 296.957C381.86 296.83 382.113 296.324 382.24 295.818L382.746 286.829L387.684 294.425C388.063 294.932 388.57 295.058 389.203 294.932L397.685 292.526Z" fill="white"/>
<path d="M415.533 325.061C416.546 326.454 416.039 327.467 414.647 326.834L404.899 322.529L405.659 332.024C405.785 333.417 404.393 333.29 403.507 332.024L391.986 317.212V317.086C396.797 315.567 400.595 312.149 402.874 307.971L403.127 308.097L415.533 325.061Z" fill="#27DBB0"/>
<path d="M396.164 193.782L430.851 323.416C432.244 328.606 428.699 334.303 422.876 335.822L216.905 391.017C211.082 392.537 205.258 389.498 203.866 384.181L169.178 254.548C167.786 249.357 171.331 243.66 177.154 242.141L382.872 187.072C388.568 185.173 394.645 188.212 396.164 193.782Z" fill="#E3E1FF"/>
<path d="M381.352 281.259C391.353 278.601 401.734 284.551 404.393 294.552C405.659 299.362 405.026 304.3 402.874 308.224C400.595 312.402 396.797 315.82 391.986 317.339C391.607 317.466 391.48 317.466 391.1 317.592C386.669 318.732 382.365 318.352 378.567 316.579C373.63 314.301 369.706 309.996 368.06 304.3C365.275 294.172 371.351 283.918 381.352 281.259ZM391.48 299.362L396.544 293.033L388.695 295.058C388.188 295.185 387.682 294.932 387.429 294.678L382.998 287.969L382.618 296.071C382.618 296.704 382.239 296.957 381.732 297.084L373.883 299.109L381.479 302.021C381.985 302.274 382.239 302.654 382.239 303.16L381.859 311.262L386.923 304.933C387.176 304.426 387.809 304.3 388.189 304.553L395.784 307.465L391.353 300.755C391.227 300.249 391.227 299.616 391.48 299.362Z" fill="#B4B7FF"/>
<path d="M392.24 316.453L389.455 336.075C389.075 337.847 387.809 338.607 387.429 337.214L383.125 328.1L376.289 337.341C375.403 338.607 374.263 337.847 374.516 336.202L376.922 315.567L377.681 315.946C381.732 317.845 386.543 318.225 390.974 316.959C391.733 316.833 391.86 316.833 392.24 316.453Z" fill="#B4B7FF"/>
<path d="M375.528 225.431L348.437 232.647C347.297 232.9 346.411 232.267 346.158 231.381C345.905 230.241 346.538 229.355 347.424 229.102L374.515 221.886C375.655 221.633 376.541 222.266 376.794 223.152C377.3 224.038 376.667 225.178 375.528 225.431Z" fill="#B4B7FF"/>
<path d="M322.992 239.483L310.206 242.901C309.067 243.154 308.181 242.521 307.927 241.635C307.674 240.496 308.307 239.609 309.193 239.356L321.979 235.938C323.119 235.685 324.005 236.318 324.258 237.204C324.891 238.09 324.258 239.23 322.992 239.483Z" fill="#C4C4C4"/>
<path d="M279.823 251.13L189.307 275.309C188.168 275.562 187.028 274.93 186.775 274.17C186.522 273.031 187.155 272.144 188.294 271.891L278.81 247.712C279.949 247.458 280.836 248.091 281.089 248.977C281.595 249.737 280.962 250.75 279.823 251.13Z" fill="#C4C4C4"/>
<path d="M381.86 251.13L281.723 277.968C280.583 278.221 279.697 277.588 279.444 276.702C279.191 275.562 279.824 274.676 280.71 274.423L380.847 247.585C381.986 247.332 382.872 247.965 383.126 248.851C383.379 249.737 382.746 250.876 381.86 251.13Z" fill="#B4B7FF"/>
<path d="M359.704 279.36L334.259 286.196C333.119 286.45 332.233 285.817 331.98 284.931C331.727 284.044 332.36 282.905 333.246 282.652L358.692 275.816C359.831 275.562 360.717 276.195 360.97 277.082C361.224 277.968 360.591 279.107 359.704 279.36Z" fill="#B4B7FF"/>
<path d="M281.089 301.388L209.942 320.504C208.803 320.757 207.917 320.124 207.664 319.238C207.41 318.352 208.043 317.212 208.93 316.959L280.456 297.843C281.595 297.59 282.482 298.223 282.735 299.109C282.861 299.995 282.228 301.008 281.089 301.388Z" fill="#C4C4C4"/>
<path d="M324.511 312.781L247.414 333.417C246.275 333.67 245.389 333.037 245.135 332.151C244.882 331.011 245.515 330.125 246.401 329.872L323.118 309.363C324.258 309.11 325.144 309.743 325.397 310.629C326.03 311.516 325.397 312.655 324.511 312.781Z" fill="#C4C4C4"/>
<path d="M234.122 337.088L215.766 342.025C214.626 342.278 213.74 341.645 213.487 340.759C213.234 339.62 213.867 338.734 214.753 338.48L233.109 333.543C234.249 333.29 235.135 333.923 235.388 334.809C235.641 335.695 235.008 336.835 234.122 337.088Z" fill="#C4C4C4"/>
<path d="M330.334 334.429L282.734 347.215C281.595 347.469 280.709 346.836 280.456 345.95C280.202 344.81 280.835 343.924 281.722 343.671L329.321 330.885C330.461 330.631 331.347 331.264 331.6 332.151C331.853 333.037 331.22 334.176 330.334 334.429Z" fill="#C4C4C4"/>
<path d="M269.57 350.634L221.464 363.546C220.325 363.799 219.438 363.167 219.185 362.28C218.932 361.141 219.565 360.255 220.451 360.002L268.937 346.962C270.077 346.709 271.216 347.342 271.469 348.102C271.469 349.241 270.836 350.38 269.57 350.634Z" fill="#C4C4C4"/>
<path d="M402.874 307.338L414.901 323.162C415.913 324.681 415.534 326.074 414.268 325.441L404.773 322.023L406.419 333.29C406.672 334.809 405.406 335.062 404.267 333.67L391.48 317.466L392.24 317.212C396.418 315.693 400.089 312.528 402.368 308.477C402.747 307.971 402.874 307.844 402.874 307.338Z" fill="#B4B7FF"/>
<path d="M266.531 376.712L268.177 387.726L277.545 385.321L285.647 393.423L291.724 386.08L302.864 387.726L303.497 377.978L313.625 372.914L308.561 364.812L313.625 354.811L304.51 351.14L302.864 340.126L293.496 342.531L285.394 334.429L279.318 341.772L268.177 340.126L267.544 349.874L257.417 354.938L262.48 363.04L257.417 373.041L266.531 376.712ZM145.633 402.538V148.714C145.633 146.688 147.279 145.043 149.304 145.043H330.336C332.361 145.043 334.007 146.688 334.007 148.714V248.218V326.707V371.269V402.158C334.007 404.183 332.361 405.829 330.336 405.829H196.018H149.051C147.025 406.209 145.633 404.563 145.633 402.538Z" fill="#758D9E"/>
<path d="M332.613 145.929L329.322 148.967L329.195 407.855L334.006 404.31L333.879 149.727V148.714C334.006 148.714 333.879 146.815 332.613 145.929Z" fill="#506370"/>
<path d="M143.228 149.22L147.532 145.549C150.57 147.954 150.19 149.094 150.19 149.094L143.228 149.22Z" fill="#6E8496"/>
<path d="M264.761 390.764L263.115 379.75L254 376.079L259.317 366.078L254 357.976L264.128 352.912L264.761 343.164L275.901 344.81L282.231 337.468L289.953 345.57L299.321 343.164L300.967 354.178L310.082 357.849L305.018 367.851L310.082 375.953L299.954 381.016L299.321 390.764L288.181 388.739L282.104 396.081L274.002 388.359L264.761 390.764Z" fill="#27DBB0"/>
<path d="M263.114 379.624L264.76 390.638L274.128 388.232L282.23 396.334L288.307 388.992L299.447 390.638L300.08 380.89L310.208 375.826L305.144 367.724L310.208 357.723L301.093 354.052L299.447 343.038L290.079 345.443L281.977 337.341L275.901 344.684L264.76 343.038L264.127 352.786L254 357.849L259.063 365.952L254 375.953L263.114 379.624ZM142.216 405.449V151.752C142.216 149.727 143.862 148.081 145.887 148.081H326.919C328.944 148.081 330.59 149.727 330.59 151.752V251.256V329.745V374.307V405.196C330.59 407.222 328.944 408.867 326.919 408.867H192.601H145.634C143.608 409.121 142.216 407.475 142.216 405.449Z" fill="white"/>
<path d="M293.624 185.553H277.167C275.774 185.553 274.762 184.54 274.762 183.148C274.762 181.755 275.774 180.742 277.167 180.742H293.624C295.017 180.742 296.03 181.755 296.03 183.148C295.65 184.54 294.637 185.553 293.624 185.553Z" fill="#E2E2E2"/>
<path d="M261.721 185.553H253.999C252.607 185.553 251.594 184.54 251.594 183.148C251.594 181.755 252.607 180.742 253.999 180.742H261.721C263.114 180.742 264.127 181.755 264.127 183.148C264.127 184.54 263.114 185.553 261.721 185.553Z" fill="#E2E2E2"/>
<path d="M235.897 185.553H181.461C180.068 185.553 179.056 184.54 179.056 183.148C179.056 181.755 180.068 180.742 181.461 180.742H235.897C237.29 180.742 238.302 181.755 238.302 183.148C237.923 184.54 237.29 185.553 235.897 185.553Z" fill="#E2E2E2"/>
<path d="M300.081 224.798H167.789C166.397 224.798 165.384 223.785 165.384 222.392C165.384 221 166.397 219.987 167.789 219.987H300.081C301.474 219.987 302.487 221 302.487 222.392C302.107 223.785 301.094 224.798 300.081 224.798Z" fill="#E2E2E2"/>
<path d="M311.474 257.586H277.926C276.533 257.586 275.521 256.573 275.521 255.181C275.521 253.788 276.533 252.775 277.926 252.775H311.474C312.866 252.775 313.879 253.788 313.879 255.181C313.499 256.573 312.486 257.586 311.474 257.586Z" fill="#E2E2E2"/>
<path d="M262.103 257.586H167.789C166.397 257.586 165.384 256.573 165.384 255.181C165.384 253.788 166.397 252.775 167.789 252.775H262.103C263.495 252.775 264.508 253.788 264.508 255.181C264.128 256.573 263.115 257.586 262.103 257.586Z" fill="#E2E2E2"/>
<path d="M311.475 290.501H209.692C208.3 290.501 207.287 289.488 207.287 288.095C207.287 286.703 208.3 285.69 209.692 285.69H311.095C312.488 285.69 313.501 286.703 313.501 288.095C313.501 289.488 312.488 290.501 311.475 290.501Z" fill="#E2E2E2"/>
<path d="M311.475 323.289H248.684C247.291 323.289 246.278 322.276 246.278 320.884C246.278 319.491 247.291 318.478 248.684 318.478H311.475C312.867 318.478 313.88 319.491 313.88 320.884C313.501 322.276 312.488 323.289 311.475 323.289Z" fill="#E2E2E2"/>
<path d="M231.593 323.289H167.789C166.397 323.289 165.384 322.276 165.384 320.884C165.384 319.491 166.397 318.478 167.789 318.478H231.593C232.986 318.478 233.999 319.491 233.999 320.884C233.872 322.276 232.859 323.289 231.593 323.289Z" fill="#E2E2E2"/>
<path d="M230.581 364.939H179.942C178.55 364.939 177.537 363.926 177.537 362.533C177.537 361.141 178.55 360.128 179.942 360.128H230.581C231.973 360.128 232.986 361.141 232.986 362.533C232.986 363.926 231.973 364.939 230.581 364.939Z" fill="#E2E2E2"/>
<path d="M462.376 445.96H140.57C139.431 445.96 134.62 443.808 134.62 441.149C134.62 438.491 139.431 436.339 140.57 436.339H462.376C463.515 436.339 468.832 438.491 468.832 441.149C468.832 443.808 463.515 445.96 462.376 445.96Z" fill="#C3D0E0"/>
<path d="M286.786 341.519C285.394 339.873 287.419 337.594 289.192 338.86C308.181 353.419 325.145 357.976 337.425 337.088C338.311 335.442 340.336 331.771 340.843 329.999C341.729 326.707 345.147 324.682 348.565 325.568C352.236 326.58 354.135 330.505 352.743 334.05C345.273 352.153 319.701 377.472 286.786 341.519Z" fill="#FA968C"/>
<path d="M150.699 381.776C150.952 385.827 153.358 408.488 155.13 423.046C156.016 430.389 156.143 435.706 156.776 435.579C158.548 435.073 163.992 387.346 163.612 381.143C163.232 374.94 160.067 370.129 156.523 370.382C152.978 370.509 150.319 375.573 150.699 381.776Z" fill="#FA968C"/>
<path d="M159.687 423.932C159.054 423.932 155.383 424.439 154.75 424.565C152.597 410.007 149.939 385.447 150.192 381.143C150.192 380.637 150.319 380.257 150.319 379.75C151.078 373.674 151.078 367.344 149.686 361.394C146.521 347.722 144.116 332.784 143.736 328.733C143.229 320.63 147.913 313.794 154.117 313.414C160.32 313.035 165.51 318.605 166.523 326.58C169.055 345.949 159.687 423.552 159.687 423.932Z" fill="#0073AA"/>
<path d="M165.763 361.9C166.902 346.962 167.408 333.29 166.649 326.58C165.636 318.605 160.446 313.035 154.243 313.414C148.039 313.794 143.355 320.63 143.862 328.733C143.988 329.745 144.115 331.264 144.368 333.417C153.61 337.088 160.319 345.57 162.091 355.697C162.598 358.103 163.864 360.255 165.763 361.9Z" fill="#195FA0"/>
<path d="M154.622 423.932C154.622 423.932 155.002 434.44 154.116 436.465C153.23 438.491 153.103 440.77 155.762 440.77C158.42 440.77 164.877 440.77 165.889 440.77C167.662 440.77 169.181 440.516 169.054 439.377C169.054 438.238 161.079 437.858 159.433 436.718C157.914 435.579 159.053 424.565 159.053 424.565L154.622 423.932Z" fill="#FA968C"/>
<path d="M165.129 437.984C163.61 438.491 161.964 438.871 160.318 438.871C158.039 438.871 155.761 438.238 153.862 437.351C153.355 439.124 153.482 440.77 155.887 440.77C158.546 440.77 165.002 440.77 166.015 440.77C167.787 440.77 169.306 440.516 169.18 439.377C169.18 438.744 167.281 438.364 165.129 437.984Z" fill="#A03C19"/>
<path d="M164.75 383.169C165.003 387.22 167.409 409.88 169.181 424.439C170.067 431.781 170.194 437.098 170.827 436.972C172.599 436.465 178.043 388.739 177.663 382.536C177.283 376.332 174.118 371.522 170.573 371.775C167.029 371.902 164.37 377.092 164.75 383.169Z" fill="#FA968C"/>
<path d="M173.739 425.325C173.107 425.325 169.435 425.831 168.802 425.958C166.65 411.399 163.992 386.84 164.245 382.536C164.245 382.029 164.371 381.649 164.371 381.143C165.131 375.066 165.131 368.737 163.738 362.787C160.574 349.114 158.168 334.176 157.788 330.125C157.282 322.023 161.966 315.187 168.169 314.807C174.372 314.427 179.563 319.997 180.576 327.973C182.981 347.342 173.739 424.945 173.739 425.325Z" fill="#0091C8"/>
<path d="M168.674 425.325C168.674 425.325 169.053 435.832 168.167 437.858C167.281 439.883 167.028 442.289 169.813 442.162C172.471 442.036 177.662 441.909 178.675 441.782C180.953 441.529 183.738 441.656 183.612 440.516C183.612 439.377 175.13 439.25 173.611 438.111C172.092 436.972 173.231 425.958 173.231 425.958L168.674 425.325Z" fill="#FA968C"/>
<path d="M178.422 439.124C176.903 439.63 175.257 440.01 173.611 440.01C171.586 440.01 169.56 439.63 167.788 438.744C167.282 440.516 167.282 442.162 169.814 442.162C172.472 442.035 177.662 441.909 178.675 441.782C180.954 441.529 183.739 441.656 183.612 440.516C183.612 439.757 181.081 439.503 178.422 439.124Z" fill="#CD5014"/>
<path d="M166.269 262.776C164.37 262.776 162.345 261.89 159.56 259.358C157.914 257.966 156.774 255.56 156.774 253.915V244.8H170.7C170.7 244.8 171.713 249.61 170.7 254.421C170.067 258.092 167.788 262.776 166.269 262.776Z" fill="#FAB9AF"/>
<path d="M117.277 260.498C117.15 259.611 117.91 258.725 118.796 258.725C119.682 258.599 120.315 259.232 120.568 259.991C121.961 265.435 123.48 270.752 125.505 275.689C129.556 286.07 133.228 287.589 134.494 288.475C134.62 288.475 135.38 288.728 135.506 288.728C139.431 289.615 146.393 281.006 147.659 274.297C147.659 273.917 148.546 271.638 148.419 271.891C149.432 268.98 152.723 267.334 155.635 268.473C173.485 274.676 123.606 336.581 117.277 260.498Z" fill="#FAB9AF"/>
<path d="M147.027 324.935C152.091 330.758 181.587 333.29 181.587 333.29C183.74 330.758 173.612 301.894 173.612 301.894C173.612 301.894 178.549 281.133 178.296 273.537C178.169 270.372 175.637 267.967 172.599 267.967H153.863C150.951 267.967 148.546 270.119 148.293 273.031C147.786 278.981 155.635 301.261 155.635 301.261C155.635 301.261 142.723 319.871 147.027 324.935Z" fill="#FAB9AF"/>
<path d="M173.739 301.894C173.739 301.894 178.549 280.5 178.423 273.031C178.296 270.245 176.017 267.967 173.232 267.967H170.447C169.434 270.372 167.156 272.271 163.611 272.271C160.193 272.271 157.914 270.372 156.775 267.967H154.116C156.902 274.043 155.889 282.019 151.078 286.703C153.104 294.045 155.636 301.261 155.636 301.261C155.636 301.261 141.837 322.023 143.862 325.188C148.166 331.771 181.588 333.29 181.588 333.29C183.866 330.125 173.739 301.894 173.739 301.894Z" fill="#FF8C46"/>
<path d="M160.571 269.233L169.053 268.347L166.395 259.105L160.824 259.738L160.571 269.233Z" fill="#FAB9AF"/>
<path d="M160.824 259.738L166.268 259.105L167.154 262.017C165.888 263.409 164.369 266.448 162.344 266.448C161.711 266.448 161.078 266.321 160.571 265.941L160.824 259.738Z" fill="#FA968C"/>
<path d="M159.308 240.496L163.992 240.242C165.384 240.116 166.65 239.736 167.79 238.976C169.435 237.964 171.461 238.09 172.727 239.609C174.119 241.255 174.752 243.407 171.714 245.686C170.195 246.825 167.916 245.813 166.397 246.446C166.27 246.446 166.27 246.446 166.144 246.446L161.966 246.699C160.447 246.825 159.561 248.091 159.561 249.484C159.561 250.37 158.928 251.509 158.928 251.509L157.029 249.104L155.257 247.585C154.877 247.205 154.624 246.825 154.624 246.319V246.066C154.244 243.154 156.396 240.749 159.308 240.496Z" fill="#BE1EC8"/>
<path d="M211.718 253.029C211.718 253.029 209.439 257.333 210.579 258.472C211.718 259.611 212.604 260.118 214.377 258.599C216.149 257.08 217.668 254.168 218.301 252.142C218.934 250.243 218.554 246.446 218.301 246.066C217.162 244.673 216.402 248.344 216.022 250.117C215.516 251.889 214.883 253.788 214.123 253.282C213.364 252.775 214.503 249.484 213.744 248.724C212.984 247.965 211.718 253.029 211.718 253.029Z" fill="#FAB9AF"/>
<path d="M118.796 253.155C118.796 253.155 120.948 257.586 119.809 258.725C118.669 259.865 117.656 260.371 116.011 258.852C114.365 257.206 112.846 254.294 112.213 252.269C111.58 250.243 112.086 246.572 112.339 246.192C113.479 244.8 114.112 248.598 114.492 250.243C114.871 252.016 115.504 253.915 116.264 253.535C117.024 253.155 116.011 249.737 116.77 248.977C117.656 248.218 118.796 253.155 118.796 253.155Z" fill="#FAB9AF"/>
<path d="M187.283 285.057C192.22 290.754 196.018 287.716 200.322 281.512C202.095 278.348 204.373 275.816 210.45 258.725C211.083 256.826 213.995 257.459 213.742 259.485C207.792 311.516 179.561 303.287 171.079 279.993C170.446 278.221 169.94 276.575 169.813 273.917C169.686 270.625 172.345 267.967 175.51 267.967C178.675 267.967 181.46 270.499 181.46 273.664C181.713 275.816 183.865 281.259 187.283 285.057Z" fill="#FAB9AF"/>
<path d="M179.435 275.436C177.662 274.17 176.903 272.018 177.029 269.866C177.282 265.435 174.624 261.384 171.206 258.219C168.801 256.067 167.661 252.775 168.041 249.484L168.547 245.306H154.495C154.495 248.724 152.849 252.016 150.064 254.168C146.9 256.447 144.241 259.738 142.722 263.789C138.924 273.664 142.595 284.424 151.077 288.349C148.798 297.717 152.976 307.211 161.205 310.376C170.32 313.921 180.954 308.477 184.878 298.096C188.296 289.488 185.764 280.247 179.435 275.436Z" fill="#BE1EC8"/>
<path d="M353.502 424.059C350.843 423.806 349.324 421.021 350.337 418.615C354.768 408.488 358.312 397.347 359.199 393.17C360.844 384.561 355.401 376.332 347.045 374.813C338.69 373.294 336.032 379.244 334.386 387.853C333.12 394.562 329.828 420.134 332.234 431.781C332.234 431.908 334.133 441.276 343.627 441.276C349.957 441.276 405.026 439.25 405.153 434.313C405.153 430.389 370.972 425.831 353.502 424.059Z" fill="#415050"/>
<path d="M352.11 414.311C355.654 405.449 358.44 396.714 359.199 393.043C360.845 384.435 355.401 376.206 347.046 374.687C338.691 373.168 336.032 379.118 334.386 387.726C334.386 387.979 334.26 388.232 334.26 388.486C348.818 397.221 350.717 412.286 352.11 414.311Z" fill="#3C4646"/>
<path d="M451.106 437.478C447.941 435.326 444.27 433.933 440.472 433.047C440.346 433.047 440.093 433.047 439.966 433.174C439.333 433.554 438.953 433.933 438.7 434.06C438.573 434.187 438.447 434.187 438.32 434.187C433.13 435.073 427.306 434.566 421.23 433.427C420.597 433.3 420.217 433.933 420.597 434.44L424.141 439.63C424.268 439.757 424.521 439.883 424.648 439.883C426.547 439.883 435.915 440.01 441.485 440.263C445.916 440.516 449.714 440.39 453.005 440.263C453.638 440.263 453.891 439.504 453.512 439.124C452.625 438.617 451.993 437.984 451.106 437.478Z" fill="#FAB9AF"/>
<path d="M450.219 434.946L444.902 432.034C442.624 430.768 439.206 433.554 438.699 434.06C438.826 434.06 438.952 434.06 439.079 434.06C443.763 434.06 448.067 436.465 450.852 440.01C451.106 440.39 451.612 440.643 452.118 440.643C457.056 440.896 460.6 440.896 462.499 440.896C463.512 440.896 464.018 439.504 463.132 438.871C460.094 436.972 452.118 436.085 450.219 434.946Z" fill="#415050"/>
<path d="M379.075 423.806C376.037 423.553 373.884 420.894 374.138 417.856C375.277 405.956 375.024 393.043 374.264 388.612C372.872 380.004 364.896 374.18 356.541 375.573C348.186 376.965 347.679 383.548 349.198 392.157C350.338 398.866 355.275 424.818 361.351 435.579L361.478 435.706C363.25 438.744 365.023 440.516 366.922 440.263C368.441 440.896 427.054 440.137 427.054 440.137C427.054 440.137 427.181 435.706 427.434 434.06C415.914 429.123 391.608 424.945 379.075 423.806Z" fill="#55696E"/>
<path d="M332.615 340.886C334.134 338.86 340.084 330.885 340.971 328.859V328.733C341.097 328.606 341.097 328.353 341.224 328.226C342.996 325.188 346.794 324.302 349.832 325.947C352.871 327.72 353.757 331.518 352.111 334.556C350.465 337.341 348.946 339.62 347.174 342.025C346.034 343.544 344.642 345.19 343.376 346.583C342.49 345.696 332.615 341.012 332.615 340.886Z" fill="#50D1DD"/>
<path d="M360.211 358.229C361.477 358.482 362.869 358.736 364.135 358.989C368.692 359.875 372.997 356.33 372.997 351.773C372.997 344.051 373.123 337.088 373.123 332.404C373.123 329.112 370.591 326.327 367.3 326.201L347.424 325.314C344.386 325.188 341.728 327.467 341.348 330.505C340.841 334.683 340.588 341.012 340.082 347.975C339.829 351.646 342.361 355.064 345.905 355.824C350.589 356.71 355.4 357.343 360.211 358.229Z" fill="#FAB9AF"/>
<path d="M347.173 325.314L350.465 325.441C351.477 328.1 353.756 330.252 357.427 330.378C361.099 330.505 363.63 328.606 364.896 326.074L367.808 326.201C370.846 326.327 373.252 328.859 373.125 331.897C372.998 339.746 372.872 354.938 373.125 368.737C373.378 381.143 377.556 391.777 375.151 395.069C375.151 395.069 341.983 397.094 333.754 388.232C335.4 380.004 336.286 369.496 337.678 358.482C339.071 347.595 340.463 336.581 341.35 330.252C341.603 327.34 344.135 325.188 347.173 325.314Z" fill="#25BBCC"/>
<path d="M356.414 319.744H356.794C359.706 320.124 362.364 317.972 362.617 315.187L363.503 307.465L357.933 306.832L356.414 319.744Z" fill="#00558C"/>
<path d="M355.401 327.846L362.87 326.201L357.3 316.2L350.717 318.985L352.489 325.821C352.742 327.34 354.008 328.1 355.401 327.846Z" fill="#FAB9AF"/>
<path d="M350.592 319.111L357.175 316.326L359.453 320.377C358.441 322.529 357.175 324.935 354.643 325.694C353.883 325.947 352.997 325.821 352.238 325.694L350.592 319.111Z" fill="#FA968C"/>
<path d="M351.098 323.542C355.908 324.175 360.213 320.757 360.719 315.946L361.858 306.325L347.173 304.553C347.173 304.553 346.287 312.022 346.667 317.212C347.047 321.137 348.692 323.289 351.098 323.542Z" fill="#FAB9AF"/>
<path d="M359.479 309.903L359.326 311.16L362.091 311.495L362.243 310.238L359.479 309.903Z" fill="#00558C"/>
<path d="M358.439 313.921C358.186 315.82 358.946 317.465 360.085 317.592C361.225 317.719 362.744 315.44 362.997 313.541C363.25 311.642 362.111 310.883 360.971 310.756C359.705 310.629 358.693 312.022 358.439 313.921Z" fill="#FAB9AF"/>
<path d="M345.655 308.351C345.402 307.085 345.529 305.819 345.908 304.679C345.908 304.679 346.415 300.375 348.187 299.742C349.833 299.236 352.365 300.502 353.884 301.008C355.023 301.388 358.821 301.641 358.821 301.641C361.859 302.021 364.012 304.679 363.632 307.718L363.505 308.857L360.72 310.883L359.707 313.035H359.454C358.441 312.908 357.808 312.022 357.808 311.136C357.935 309.617 357.049 308.098 355.403 307.971L350.972 307.464C348.314 307.085 346.668 308.477 346.415 310.376L346.288 312.149L345.655 308.351Z" fill="#00558C"/>
<path d="M375.402 333.67C371.604 357.723 346.791 384.561 303.875 382.156C302.863 382.156 302.103 381.27 302.23 380.257C302.23 379.371 302.989 378.738 303.749 378.611C332.739 374.687 357.299 360.508 362.995 331.897C363.882 327.72 367.3 325.947 370.465 326.58C373.756 327.213 375.908 330.378 375.402 333.67Z" fill="#FAB9AF"/>
<path d="M358.695 343.164C361.607 336.835 362.493 332.91 362.493 332.91C362.493 332.91 362.746 332.024 362.872 331.771C363.505 329.239 364.771 327.846 364.771 327.846C364.771 327.846 367.557 324.935 372.747 327.34C376.925 329.366 375.785 334.303 375.785 334.303C375.659 334.936 376.165 340.379 369.582 350.254C369.709 350.127 358.315 344.051 358.695 343.164Z" fill="#50D1DD"/>
<path d="M299.193 377.598C299.193 377.598 304.384 377.345 305.017 378.991C305.65 380.51 305.776 381.776 303.498 382.662C301.219 383.675 297.674 383.802 295.522 383.548C293.37 383.295 289.952 381.27 289.699 380.763C288.939 379.118 292.737 380.004 294.636 380.384C296.535 380.763 298.687 381.017 298.56 380.004C298.434 378.991 294.762 378.611 294.383 377.598C294.003 376.459 299.193 377.598 299.193 377.598Z" fill="#FAB9AF"/>
<path d="M283.369 343.418C283.369 343.418 288.56 342.911 288.94 341.266C289.319 339.62 289.193 338.48 286.914 337.847C284.509 337.214 280.964 337.468 278.939 338.101C277.293 338.607 275.141 340.126 274.128 341.012H279.445C281.597 341.012 282.483 340.379 282.483 341.139C282.483 342.152 278.939 343.038 278.685 344.177C278.306 345.317 283.369 343.418 283.369 343.418Z" fill="#FA968C"/>
</svg>
