<svg width="484" height="450" viewBox="0 0 484 450" fill="none" xmlns="http://www.w3.org/2000/svg">
<path d="M12.3588 102.861C8.95615 83.7619 16.5299 71.5781 24.9817 67.8461C33.4335 64.1142 48.3613 61.4798 59.9963 74.871C78.4366 96.0554 94.3523 150.169 102.036 156.096C114.659 165.865 155.271 191.111 176.236 219.101C198.628 254.554 227.496 328.645 163.613 340.938C83.815 356.305 75.3632 298.899 71.1922 282.105C67.2407 266.299 71.1922 221.845 64.1673 193.855C60.5451 179.037 16.6396 126.679 12.3588 102.861Z" fill="#E4EAF4"/>
<path d="M176.017 217.674C198.409 253.127 227.277 327.218 163.394 339.511L24.7627 66.3094C24.7627 66.3094 48.1424 59.9431 59.7773 73.3343C78.2176 94.5187 94.1334 148.632 101.817 154.559C114.44 164.438 155.052 189.684 176.017 217.674Z" fill="#8AA8D3" fill-opacity="0.5"/>
<path d="M24.6523 66.529L164.052 336.548" stroke="#203342" stroke-opacity="0.1" stroke-width="2"/>
<path d="M58.2393 168.06C63.1786 174.646 74.155 176.842 79.0944 174.646M77.4479 124.704C78.5455 129.094 81.2896 147.205 69.2156 152.693L77.4479 124.704Z" stroke="#203342" stroke-opacity="0.1" stroke-width="2"/>
<path d="M30.251 124.155C35.1903 130.741 49.4596 130.192 54.399 127.997M47.2644 82.4447C48.362 86.8353 56.5943 100.556 44.5203 106.044L47.2644 82.4447Z" stroke="#203342" stroke-opacity="0.1" stroke-width="2"/>
<path d="M96.1084 204.831C110.378 201.538 109.061 183.647 108.731 178.488" stroke="#203342" stroke-opacity="0.1" stroke-width="2"/>
<path d="M123 259.164C144.404 256.969 149.124 208.893 148.795 203.734M107.633 228.979C100.608 229.418 85.6805 228.979 76.8994 218.003L107.633 228.979Z" stroke="#203342" stroke-opacity="0.1" stroke-width="2"/>
<path d="M153.185 314.046C181.175 310.753 181.504 262.677 181.175 257.518M137.818 289.349C130.794 289.788 98.8523 289.349 87.3271 265.201L137.818 289.349Z" stroke="#203342" stroke-opacity="0.1" stroke-width="2"/>
<path d="M224.313 155.218C238.143 243.139 223.874 318.107 212.458 319.864C201.043 321.62 138.697 280.898 124.867 192.977C111.037 105.056 150.991 3.30503 162.406 1.43905C178.102 -0.975753 210.483 67.2973 224.313 155.218Z" fill="#D1F2E4"/>
<path d="M213.117 319.864C224.532 318.107 238.801 243.029 224.971 155.218C211.141 67.2973 178.761 -0.865988 163.064 1.54881L213.117 319.864Z" fill="#89CFB0" fill-opacity="0.5"/>
<path d="M164.162 1L215.751 313.827" stroke="#649D84" stroke-opacity="0.3" stroke-width="2"/>
<path d="M137.05 66.6387L178.98 95.0675" stroke="#649D84" stroke-opacity="0.3" stroke-width="2"/>
<path d="M178.981 94.5187L197.751 64.5532" stroke="#649D84" stroke-opacity="0.3" stroke-width="2"/>
<path d="M188.309 151.596L129.915 124.594" stroke="#649D84" stroke-opacity="0.3" stroke-width="2"/>
<path d="M188.311 151.596L210.922 123.826" stroke="#649D84" stroke-opacity="0.3" stroke-width="2"/>
<path d="M197.09 205.38L129.915 176.183" stroke="#649D84" stroke-opacity="0.3" stroke-width="2"/>
<path d="M197.092 205.38L222.996 163.341" stroke="#649D84" stroke-opacity="0.3" stroke-width="2"/>
<path d="M207.74 261.25L148.468 240.395" stroke="#649D84" stroke-opacity="0.3" stroke-width="2"/>
<path d="M367.334 177.939C337.04 247.09 288.414 292.423 277.438 287.593C266.462 282.764 231.447 221.186 261.742 152.035C292.036 82.8837 376.225 32.2827 387.092 37.0025C402.13 43.5883 397.629 108.678 367.334 177.939Z" fill="#E8F8F1"/>
<path d="M277.219 288.032C288.195 292.862 336.82 247.529 367.115 178.378C397.41 109.227 401.801 44.0274 386.873 37.4416L277.219 288.032Z" fill="#D6F0E4"/>
<path d="M386.654 39.7466L270.305 292.752" stroke="#649D84" stroke-opacity="0.2" stroke-width="2"/>
<path d="M332.539 72.0171L351.089 115.264" stroke="#649D84" stroke-opacity="0.2" stroke-width="2"/>
<path d="M351.418 114.935L381.054 103.629" stroke="#649D84" stroke-opacity="0.2" stroke-width="2"/>
<path d="M330.016 161.036L297.855 109.886" stroke="#649D84" stroke-opacity="0.2" stroke-width="2"/>
<path d="M330.016 161.036L361.628 153.352" stroke="#649D84" stroke-opacity="0.2" stroke-width="2"/>
<path d="M310.036 204.502L272.168 146.986" stroke="#649D84" stroke-opacity="0.2" stroke-width="2"/>
<path d="M310.037 204.502L351.308 188.367" stroke="#649D84" stroke-opacity="0.2" stroke-width="2"/>
<path d="M290.17 250.603L254.277 203.295" stroke="#649D84" stroke-opacity="0.2" stroke-width="2"/>
<path d="M203.458 92.4332C207.189 76.5175 217.178 69.6024 224.971 69.4926C232.764 69.3828 245.278 72.4562 249.778 86.7255C256.912 109.337 251.205 156.755 255.156 163.889C261.632 175.744 284.683 208.893 291.598 237.76C297.086 272.775 294.561 339.95 240.887 328.096C173.821 313.278 186.554 265.86 188.859 251.371C191.054 237.76 209.055 204.612 213.007 180.573C215.202 167.621 198.738 112.3 203.458 92.4332Z" fill="#DFE7F3"/>
<path d="M290.611 237.541C296.099 272.556 293.575 339.731 239.9 327.876L223.984 69.3828C231.778 69.2731 244.291 72.3464 248.791 86.6157C255.926 109.227 250.218 156.645 254.169 163.78C260.645 175.524 283.696 208.783 290.611 237.541Z" fill="#86C1E2" fill-opacity="0.5"/>
<path d="M224.752 69.1633L240.338 326.889" stroke="#203342" stroke-opacity="0.1" stroke-width="2"/>
<path d="M215.86 159.609C217.397 166.414 225.19 171.902 229.8 171.902" stroke="#203342" stroke-opacity="0.1" stroke-width="2"/>
<path d="M209.166 115.813C210.703 122.618 222.008 127.119 226.618 127.119M236.717 89.25C236.058 93.0918 237.705 106.483 226.509 106.702L236.717 89.25Z" stroke="#203342" stroke-opacity="0.1" stroke-width="2"/>
<path d="M232.654 201.209C244.838 203.514 249.997 189.135 251.534 185.074" stroke="#203342" stroke-opacity="0.1" stroke-width="2"/>
<path d="M234.961 252.688C252.303 258.286 272.61 222.613 274.037 218.442M233.314 223.93C227.716 221.845 216.301 216.356 213.228 204.831L233.314 223.93Z" stroke="#203342" stroke-opacity="0.1" stroke-width="2"/>
<path d="M239.57 305.704C262.511 312.729 279.305 275.519 280.732 271.348M236.058 281.227C230.46 279.141 205.763 267.836 205.104 245.115L236.058 281.227Z" stroke="#203342" stroke-opacity="0.1" stroke-width="2"/>
<path d="M11.8098 385.941C-27.3759 365.525 49.349 346.756 92.5959 339.95H313.111C343.077 339.95 482.806 354.11 482.806 385.941C482.806 417.773 433.742 436.982 393.897 446.531C353.943 456.08 313.111 430.615 283.146 427.432C253.18 424.249 217.836 449.714 192.371 446.531C166.906 443.348 143.307 431.932 126.074 408.333C108.841 384.515 60.7644 411.407 11.8098 385.941Z" fill="#E1E9F5" stroke="#E1E9F5"/>
<path d="M450.316 383.966C461.531 383.966 470.622 382.983 470.622 381.77C470.622 380.558 461.531 379.575 450.316 379.575C439.101 379.575 430.01 380.558 430.01 381.77C430.01 382.983 439.101 383.966 450.316 383.966Z" fill="#D1DDEE"/>
<path d="M467.439 352.683C467.439 352.683 469.745 352.354 471.501 350.817C473.257 349.28 475.013 347.524 475.013 347.524C475.013 347.524 471.391 347.305 469.635 348.841C467.988 350.378 467.439 352.683 467.439 352.683Z" fill="#47CE92"/>
<path d="M462.609 355.537C462.609 355.537 463.926 353.561 463.816 351.256C463.707 348.841 462.828 346.756 462.828 346.756C462.828 346.756 461.072 348.951 461.072 351.366C461.182 353.671 462.609 355.537 462.609 355.537Z" fill="#47CE92"/>
<path d="M472.708 354.988C472.708 354.988 470.513 354.329 468.208 354.988C465.903 355.756 464.146 357.183 464.146 357.183C464.146 357.183 466.781 358.281 468.976 357.513C471.171 356.854 472.708 354.988 472.708 354.988Z" fill="#47CE92"/>
<path d="M458.768 361.354C458.768 361.354 459.316 359.049 458.548 356.854C457.67 354.659 456.243 352.903 456.243 352.903C456.243 352.903 455.255 355.537 456.133 357.732C456.902 360.037 458.768 361.354 458.768 361.354Z" fill="#47CE92"/>
<path d="M468.427 361.574C468.427 361.574 466.342 360.586 464.037 361.025C461.732 361.464 459.756 362.672 459.756 362.672C459.756 362.672 462.171 364.098 464.585 363.659C466.781 363.22 468.427 361.574 468.427 361.574Z" fill="#47CE92"/>
<path d="M455.035 367.282C455.035 367.282 455.584 364.977 454.705 362.781C453.827 360.586 452.291 358.94 452.291 358.94C452.291 358.94 451.413 361.574 452.291 363.769C453.059 365.964 455.035 367.282 455.035 367.282Z" fill="#47CE92"/>
<path d="M465.134 366.074C465.134 366.074 462.939 365.306 460.634 365.964C458.329 366.623 456.463 368.05 456.463 368.05C456.463 368.05 458.987 369.148 461.292 368.489C463.598 367.94 465.134 366.074 465.134 366.074Z" fill="#47CE92"/>
<path d="M463.707 372.331C463.707 372.331 461.621 371.343 459.207 371.892C456.902 372.331 454.926 373.538 454.926 373.538C454.926 373.538 457.341 374.965 459.755 374.416C462.06 373.977 463.707 372.331 463.707 372.331Z" fill="#47CE92"/>
<path d="M453.059 372.77C453.059 372.77 453.059 370.465 451.742 368.489C450.425 366.513 448.449 365.196 448.449 365.196C448.449 365.196 448.23 368.05 449.547 369.916C450.864 371.892 453.059 372.77 453.059 372.77Z" fill="#47CE92"/>
<path d="M468.428 351.695C458.439 358.171 451.854 375.733 451.854 381.331" stroke="#5F9E86" stroke-miterlimit="10"/>
<path d="M434.619 327.108C434.619 327.108 436.814 323.925 437.034 319.864C437.253 315.802 437.363 311.522 437.363 311.522C437.363 311.522 433.082 315.583 432.863 319.644C432.643 323.705 434.619 327.108 434.619 327.108Z" fill="#B5C6EA"/>
<path d="M432.424 336.548C432.424 336.548 431.765 332.596 429.021 329.742C426.277 326.889 422.984 325.352 422.984 325.352C422.984 325.352 423.423 330.181 426.168 333.035C428.802 335.889 432.424 336.548 432.424 336.548Z" fill="#B5C6EA"/>
<path d="M442.962 323.705C442.962 323.705 439.669 325.571 438.023 329.194C436.267 332.816 435.938 336.767 435.938 336.767C435.938 336.767 439.999 334.901 441.755 331.279C443.401 327.657 442.962 323.705 442.962 323.705Z" fill="#B5C6EA"/>
<path d="M434.51 348.402C434.51 348.402 432.644 344.89 429.351 343.134C426.058 341.377 422.326 341.158 422.326 341.158C422.326 341.158 424.192 345.548 427.595 347.305C430.888 349.061 434.51 348.402 434.51 348.402Z" fill="#B5C6EA"/>
<path d="M445.595 336.767C445.595 336.767 442.192 338.084 439.997 341.487C437.802 344.78 436.924 348.732 436.924 348.732C436.924 348.732 441.205 347.524 443.4 344.121C445.595 340.829 445.595 336.767 445.595 336.767Z" fill="#B5C6EA"/>
<path d="M436.925 360.037C436.925 360.037 435.059 356.635 431.546 354.988C428.144 353.342 424.521 353.232 424.521 353.232C424.521 353.232 426.497 357.622 429.9 359.269C433.303 360.806 436.925 360.037 436.925 360.037Z" fill="#B5C6EA"/>
<path d="M446.803 346.426C446.803 346.426 443.51 348.183 441.754 351.805C439.998 355.317 439.449 359.379 439.449 359.379C439.449 359.379 443.62 357.622 445.376 354.11C447.242 350.488 446.803 346.426 446.803 346.426Z" fill="#B5C6EA"/>
<path d="M434.62 324.693C430.778 344.78 442.632 374.306 448.779 381.112" stroke="#9FB3D6" stroke-miterlimit="10"/>
<path d="M31.7868 375.624C43.0016 375.624 52.0931 374.641 52.0931 373.428C52.0931 372.216 43.0016 371.233 31.7868 371.233C20.5719 371.233 11.4805 372.216 11.4805 373.428C11.4805 374.641 20.5719 375.624 31.7868 375.624Z" fill="#D1DDEE"/>
<path d="M48.9102 345.329C48.9102 345.329 51.2152 345 52.9714 343.463C54.7276 341.926 56.4839 340.17 56.4839 340.17C56.4839 340.17 52.8617 339.95 51.1054 341.487C49.459 343.134 48.9102 345.329 48.9102 345.329Z" fill="#47CE92"/>
<path d="M44.0787 348.293C44.0787 348.293 45.3958 346.317 45.2861 344.012C45.1763 341.597 44.2982 339.511 44.2982 339.511C44.2982 339.511 42.542 341.707 42.542 344.122C42.6518 346.427 44.0787 348.293 44.0787 348.293Z" fill="#47CE92"/>
<path d="M54.0684 347.744C54.0684 347.744 51.8731 347.085 49.5681 347.744C47.2631 348.512 45.5068 349.939 45.5068 349.939C45.5068 349.939 48.1412 351.037 50.3364 350.268C52.6415 349.61 54.0684 347.744 54.0684 347.744Z" fill="#47CE92"/>
<path d="M40.2388 354.11C40.2388 354.11 40.7876 351.805 40.0193 349.61C39.1412 347.414 37.7143 345.658 37.7143 345.658C37.7143 345.658 36.7264 348.292 37.4947 350.488C38.2631 352.793 40.2388 354.11 40.2388 354.11Z" fill="#47CE92"/>
<path d="M49.8969 354.329C49.8969 354.329 47.8114 353.342 45.5064 353.781C43.2013 354.22 41.2256 355.427 41.2256 355.427C41.2256 355.427 43.6404 356.854 45.9454 356.415C48.2505 355.976 49.8969 354.329 49.8969 354.329Z" fill="#47CE92"/>
<path d="M36.5055 360.037C36.5055 360.037 37.0543 357.732 36.1762 355.537C35.2981 353.342 33.7614 351.695 33.7614 351.695C33.7614 351.695 32.8833 354.329 33.7614 356.525C34.5297 358.72 36.5055 360.037 36.5055 360.037Z" fill="#47CE92"/>
<path d="M46.6045 358.83C46.6045 358.83 44.4093 358.061 42.1042 358.72C39.7992 359.379 38.043 360.806 38.043 360.806C38.043 360.806 40.5675 361.903 42.8726 361.245C45.0678 360.696 46.6045 358.83 46.6045 358.83Z" fill="#47CE92"/>
<path d="M45.1766 365.086C45.1766 365.086 42.9813 364.098 40.6763 364.647C38.3713 365.086 36.3955 366.294 36.3955 366.294C36.3955 366.294 38.8103 367.721 41.1153 367.172C43.5302 366.733 45.1766 365.086 45.1766 365.086Z" fill="#47CE92"/>
<path d="M34.53 365.525C34.53 365.525 34.53 363.22 33.2129 361.245C31.8957 359.269 29.92 357.952 29.92 357.952C29.92 357.952 29.7004 360.806 31.0176 362.672C32.3348 364.647 34.53 365.525 34.53 365.525Z" fill="#47CE92"/>
<path d="M49.8976 344.341C39.9091 350.817 33.3232 368.379 33.3232 373.977" stroke="#5F9E86" stroke-miterlimit="10"/>
<path d="M15.9806 319.864C15.9806 319.864 18.1759 316.681 18.3954 312.619C18.6149 308.558 18.7247 304.277 18.7247 304.277C18.7247 304.277 14.4439 308.338 14.2244 312.4C14.1146 316.461 15.9806 319.864 15.9806 319.864Z" fill="#B5C6EA"/>
<path d="M13.8948 329.303C13.8948 329.303 13.2362 325.352 10.4921 322.498C7.74799 319.644 4.45508 318.107 4.45508 318.107C4.45508 318.107 4.89413 322.937 7.63822 325.791C10.2726 328.645 13.8948 329.303 13.8948 329.303Z" fill="#B5C6EA"/>
<path d="M24.4331 316.461C24.4331 316.461 21.1402 318.327 19.4937 321.949C17.7375 325.571 17.4082 329.523 17.4082 329.523C17.4082 329.523 21.4695 327.657 23.2257 324.035C24.8721 320.413 24.4331 316.461 24.4331 316.461Z" fill="#B5C6EA"/>
<path d="M15.9807 341.158C15.9807 341.158 14.1147 337.645 10.8218 335.889C7.52884 334.133 3.79688 333.913 3.79688 333.913C3.79688 333.913 5.66286 338.304 9.06554 340.06C12.3584 341.816 15.9807 341.158 15.9807 341.158Z" fill="#B5C6EA"/>
<path d="M27.0659 329.523C27.0659 329.523 23.6632 330.84 21.4679 334.243C19.2726 337.536 18.3945 341.487 18.3945 341.487C18.3945 341.487 22.6753 340.28 24.8706 336.877C27.0659 333.584 27.0659 329.523 27.0659 329.523Z" fill="#B5C6EA"/>
<path d="M18.3955 352.793C18.3955 352.793 16.5295 349.39 13.0171 347.744C9.61439 346.097 5.99219 345.987 5.99219 345.987C5.99219 345.987 7.96794 350.378 11.3706 352.024C14.7733 353.561 18.3955 352.793 18.3955 352.793Z" fill="#B5C6EA"/>
<path d="M28.2741 339.182C28.2741 339.182 24.9812 340.938 23.225 344.561C21.4687 348.073 20.9199 352.134 20.9199 352.134C20.9199 352.134 25.0909 350.378 26.8472 346.866C28.7131 343.243 28.2741 339.182 28.2741 339.182Z" fill="#B5C6EA"/>
<path d="M16.0902 317.449C12.2485 337.536 24.103 367.062 30.2497 373.867" stroke="#9FB3D6" stroke-miterlimit="10"/>
<path d="M185.675 363.111C251.57 363.111 304.989 356.673 304.989 348.732C304.989 340.79 251.57 334.352 185.675 334.352C119.781 334.352 66.3623 340.79 66.3623 348.732C66.3623 356.673 119.781 363.111 185.675 363.111Z" fill="#D1DDEE"/>
<path d="M344.943 253.896L340.003 260.042C339.784 260.482 339.674 260.921 340.003 261.36L344.284 267.945L336.93 265.092C336.491 264.872 335.942 264.982 335.613 265.421L330.673 271.568L331.112 263.774C331.112 263.226 330.893 262.896 330.454 262.567L323.1 259.713L330.673 257.737C331.222 257.628 331.442 257.189 331.551 256.75L331.99 248.956L336.271 255.542C336.601 255.981 337.04 256.091 337.588 255.981L344.943 253.896Z" fill="white"/>
<path d="M360.42 282.105C361.298 283.312 360.859 284.19 359.652 283.642L351.2 279.91L351.858 288.142C351.968 289.349 350.761 289.24 349.992 288.142L340.004 275.3V275.19C344.175 273.873 347.468 270.909 349.444 267.287L349.663 267.397L360.42 282.105Z" fill="white"/>
<path d="M343.625 168.28L373.701 280.678C374.908 285.178 371.835 290.118 366.785 291.435L188.2 339.292C183.151 340.609 178.102 337.975 176.894 333.365L146.819 220.967C145.612 216.466 148.685 211.527 153.734 210.21L332.1 162.463C337.04 160.816 342.308 163.45 343.625 168.28Z" fill="white"/>
<path d="M330.782 244.127C339.453 241.822 348.454 246.981 350.759 255.652C351.857 259.823 351.308 264.104 349.442 267.506C347.466 271.129 344.173 274.092 340.002 275.409C339.673 275.519 339.563 275.519 339.234 275.629C335.392 276.617 331.66 276.288 328.367 274.751C324.087 272.775 320.684 269.043 319.257 264.104C316.842 255.323 322.111 246.432 330.782 244.127ZM339.563 259.823L343.954 254.335L337.148 256.091C336.709 256.201 336.27 255.981 336.051 255.762L332.209 249.944L331.88 256.969C331.88 257.518 331.55 257.737 331.111 257.847L324.306 259.603L330.892 262.128C331.331 262.348 331.55 262.677 331.55 263.116L331.221 270.141L335.612 264.653C335.831 264.214 336.38 264.104 336.709 264.323L343.295 266.848L339.453 261.03C339.344 260.591 339.344 260.042 339.563 259.823Z" fill="white"/>
<path d="M340.222 274.641L337.807 291.654C337.478 293.191 336.38 293.85 336.051 292.642L332.319 284.739L326.392 292.752C325.624 293.85 324.636 293.191 324.855 291.764L326.941 273.873L327.599 274.202C331.112 275.848 335.283 276.178 339.125 275.08C339.783 274.97 339.893 274.97 340.222 274.641Z" fill="white"/>
<path d="M325.733 195.721L302.243 201.977C301.255 202.197 300.487 201.648 300.268 200.88C300.048 199.892 300.597 199.124 301.365 198.904L324.855 192.648C325.842 192.428 326.611 192.977 326.83 193.745C327.269 194.514 326.721 195.501 325.733 195.721Z" fill="white"/>
<path d="M280.183 207.905L269.097 210.868C268.109 211.088 267.341 210.539 267.121 209.771C266.902 208.783 267.45 208.014 268.219 207.795L279.305 204.831C280.293 204.612 281.061 205.161 281.281 205.929C281.829 206.697 281.281 207.685 280.183 207.905Z" fill="white"/>
<path d="M242.752 218.003L164.271 238.968C163.283 239.187 162.295 238.639 162.075 237.98C161.856 236.992 162.405 236.224 163.393 236.004L241.874 215.039C242.862 214.82 243.63 215.369 243.849 216.137C244.288 216.796 243.74 217.674 242.752 218.003Z" fill="white"/>
<path d="M331.223 218.003L244.4 241.273C243.412 241.492 242.643 240.944 242.424 240.175C242.204 239.187 242.753 238.419 243.521 238.2L330.345 214.93C331.332 214.71 332.101 215.259 332.32 216.027C332.54 216.796 331.991 217.783 331.223 218.003Z" fill="white"/>
<path d="M312.013 242.48L289.95 248.408C288.962 248.627 288.194 248.078 287.975 247.31C287.755 246.542 288.304 245.554 289.072 245.334L311.135 239.407C312.123 239.187 312.891 239.736 313.11 240.505C313.33 241.273 312.781 242.261 312.013 242.48Z" fill="white"/>
<path d="M243.85 261.579L182.163 278.154C181.175 278.373 180.407 277.824 180.187 277.056C179.968 276.288 180.517 275.3 181.285 275.08L243.302 258.506C244.289 258.286 245.058 258.835 245.277 259.603C245.387 260.372 244.838 261.25 243.85 261.579Z" fill="white"/>
<path d="M281.499 271.458L214.652 289.349C213.665 289.569 212.896 289.02 212.677 288.252C212.457 287.264 213.006 286.496 213.774 286.276L280.291 268.494C281.279 268.275 282.047 268.824 282.267 269.592C282.816 270.36 282.267 271.348 281.499 271.458Z" fill="white"/>
<path d="M203.128 292.533L187.212 296.813C186.224 297.033 185.456 296.484 185.236 295.716C185.017 294.728 185.566 293.959 186.334 293.74L202.25 289.459C203.238 289.24 204.006 289.788 204.225 290.557C204.445 291.325 203.896 292.313 203.128 292.533Z" fill="white"/>
<path d="M286.548 290.228L245.276 301.314C244.289 301.533 243.52 300.984 243.301 300.216C243.081 299.228 243.63 298.46 244.398 298.24L285.67 287.154C286.657 286.935 287.426 287.483 287.645 288.252C287.865 289.02 287.316 290.008 286.548 290.228Z" fill="white"/>
<path d="M233.863 304.277L192.152 315.473C191.165 315.693 190.396 315.144 190.177 314.376C189.957 313.388 190.506 312.619 191.274 312.4L233.314 301.094C234.302 300.875 235.29 301.423 235.509 302.082C235.509 303.07 234.96 304.058 233.863 304.277Z" fill="white"/>
<path d="M349.443 266.738L359.871 280.459C360.749 281.776 360.42 282.983 359.322 282.434L351.09 279.471L352.517 289.24C352.736 290.557 351.638 290.776 350.651 289.569L339.564 275.519L340.223 275.3C343.845 273.982 347.028 271.238 349.004 267.726C349.333 267.287 349.443 267.177 349.443 266.738Z" fill="white"/>
<path d="M231.228 326.889L232.655 336.438L240.777 334.353L247.802 341.377L253.071 335.011L262.73 336.438L263.279 327.986L272.06 323.596L267.669 316.571L272.06 307.9L264.157 304.716L262.73 295.167L254.607 297.252L247.582 290.228L242.314 296.594L232.655 295.167L232.106 303.619L223.325 308.009L227.715 315.034L223.325 323.705L231.228 326.889ZM126.403 349.28V129.204C126.403 127.448 127.83 126.021 129.586 126.021H286.549C288.305 126.021 289.732 127.448 289.732 129.204V215.478V283.532V322.169V348.951C289.732 350.707 288.305 352.134 286.549 352.134H170.089H129.367C127.611 352.464 126.403 351.037 126.403 349.28Z" fill="white"/>
<path d="M288.524 126.789L285.67 129.424L285.561 353.891L289.732 350.817L289.622 130.082V129.204C289.732 129.204 289.622 127.558 288.524 126.789Z" fill="white"/>
<path d="M124.317 129.643L128.049 126.46C130.684 128.546 130.354 129.533 130.354 129.533L124.317 129.643Z" fill="white"/>
<path d="M229.692 339.072L228.265 329.523L220.362 326.34L224.972 317.668L220.362 310.644L229.143 306.253L229.692 297.801L239.351 299.228L244.84 292.862L251.535 299.887L259.658 297.801L261.085 307.351L268.988 310.534L264.597 319.205L268.988 326.23L260.207 330.621L259.658 339.072L249.999 337.316L244.73 343.682L237.705 336.987L229.692 339.072Z" fill="white"/>
<path d="M228.265 329.413L229.692 338.963L237.814 336.877L244.839 343.902L250.108 337.536L259.767 338.963L260.316 330.511L269.097 326.12L264.706 319.095L269.097 310.424L261.194 307.241L259.767 297.691L251.644 299.777L244.62 292.752L239.351 299.118L229.692 297.691L229.143 306.143L220.362 310.534L224.752 317.559L220.362 326.23L228.265 329.413ZM123.44 351.805V131.838C123.44 130.082 124.867 128.655 126.624 128.655H283.586C285.342 128.655 286.769 130.082 286.769 131.838V218.113V286.166V324.803V351.585C286.769 353.342 285.342 354.769 283.586 354.769H167.126H126.404C124.648 354.988 123.44 353.561 123.44 351.805Z" fill="white"/>
<path d="M254.718 161.145H240.449C239.241 161.145 238.363 160.267 238.363 159.06C238.363 157.852 239.241 156.974 240.449 156.974H254.718C255.925 156.974 256.804 157.852 256.804 159.06C256.474 160.267 255.596 161.145 254.718 161.145Z" fill="white"/>
<path d="M227.057 161.145H220.362C219.154 161.145 218.276 160.267 218.276 159.06C218.276 157.852 219.154 156.974 220.362 156.974H227.057C228.265 156.974 229.143 157.852 229.143 159.06C229.143 160.267 228.265 161.145 227.057 161.145Z" fill="white"/>
<path d="M204.666 161.145H157.467C156.26 161.145 155.382 160.267 155.382 159.06C155.382 157.852 156.26 156.974 157.467 156.974H204.666C205.873 156.974 206.751 157.852 206.751 159.06C206.422 160.267 205.873 161.145 204.666 161.145Z" fill="white"/>
<path d="M260.316 195.172H145.613C144.405 195.172 143.527 194.294 143.527 193.087C143.527 191.879 144.405 191.001 145.613 191.001H260.316C261.523 191.001 262.402 191.879 262.402 193.087C262.072 194.294 261.194 195.172 260.316 195.172Z" fill="white"/>
<path d="M270.194 223.601H241.107C239.9 223.601 239.021 222.723 239.021 221.515C239.021 220.308 239.9 219.43 241.107 219.43H270.194C271.402 219.43 272.28 220.308 272.28 221.515C271.951 222.723 271.072 223.601 270.194 223.601Z" fill="white"/>
<path d="M227.387 223.601H145.613C144.405 223.601 143.527 222.723 143.527 221.515C143.527 220.308 144.405 219.43 145.613 219.43H227.387C228.594 219.43 229.472 220.308 229.472 221.515C229.143 222.723 228.265 223.601 227.387 223.601Z" fill="white"/>
<path d="M270.195 252.139H181.945C180.737 252.139 179.859 251.261 179.859 250.054C179.859 248.847 180.737 247.968 181.945 247.968H269.866C271.073 247.968 271.951 248.847 271.951 250.054C271.951 251.261 271.073 252.139 270.195 252.139Z" fill="white"/>
<path d="M270.195 280.568H215.752C214.545 280.568 213.667 279.69 213.667 278.483C213.667 277.275 214.545 276.397 215.752 276.397H270.195C271.403 276.397 272.281 277.275 272.281 278.483C271.952 279.69 271.073 280.568 270.195 280.568Z" fill="white"/>
<path d="M200.934 280.568H145.613C144.405 280.568 143.527 279.69 143.527 278.483C143.527 277.275 144.405 276.397 145.613 276.397H200.934C202.141 276.397 203.019 277.275 203.019 278.483C202.91 279.69 202.031 280.568 200.934 280.568Z" fill="white"/>
<path d="M200.056 316.681H156.151C154.944 316.681 154.065 315.802 154.065 314.595C154.065 313.388 154.944 312.51 156.151 312.51H200.056C201.264 312.51 202.142 313.388 202.142 314.595C202.142 315.802 201.264 316.681 200.056 316.681Z" fill="white"/>
<path d="M401.033 386.929H122.013C121.026 386.929 116.854 385.063 116.854 382.758C116.854 380.453 121.026 378.587 122.013 378.587H401.033C402.021 378.587 406.631 380.453 406.631 382.758C406.631 385.063 402.021 386.929 401.033 386.929Z" fill="white"/>
<path d="M248.79 296.374C247.583 294.947 249.339 292.972 250.876 294.069C267.34 306.692 282.049 310.644 292.696 292.533C293.464 291.106 295.22 287.923 295.659 286.386C296.428 283.532 299.391 281.776 302.355 282.544C305.538 283.422 307.185 286.825 305.977 289.898C299.501 305.594 277.329 327.547 248.79 296.374Z" fill="white"/>
<path d="M130.795 331.279C131.015 334.792 133.1 354.439 134.637 367.062C135.405 373.428 135.515 378.039 136.064 377.929C137.6 377.49 142.32 336.109 141.991 330.73C141.662 325.352 138.918 321.181 135.844 321.4C132.771 321.51 130.466 325.901 130.795 331.279Z" fill="white"/>
<path d="M138.588 367.83C138.039 367.83 134.856 368.27 134.308 368.379C132.442 355.756 130.137 334.462 130.356 330.73C130.356 330.291 130.466 329.962 130.466 329.523C131.124 324.254 131.124 318.766 129.917 313.607C127.173 301.753 125.087 288.801 124.758 285.288C124.319 278.263 128.38 272.336 133.759 272.007C139.137 271.677 143.637 276.507 144.516 283.422C146.711 300.216 138.588 367.501 138.588 367.83Z" fill="white"/>
<path d="M143.857 314.046C144.844 301.094 145.284 289.24 144.625 283.422C143.747 276.507 139.247 271.677 133.868 272.007C128.49 272.336 124.428 278.263 124.867 285.288C124.977 286.166 125.087 287.483 125.307 289.349C133.319 292.533 139.137 299.887 140.673 308.668C141.113 310.753 142.21 312.619 143.857 314.046Z" fill="white"/>
<path d="M134.197 367.831C134.197 367.831 134.526 376.941 133.758 378.697C132.99 380.453 132.88 382.429 135.185 382.429C137.49 382.429 143.088 382.429 143.966 382.429C145.503 382.429 146.82 382.21 146.71 381.222C146.71 380.234 139.795 379.905 138.368 378.917C137.051 377.929 138.039 368.379 138.039 368.379L134.197 367.831Z" fill="white"/>
<path d="M143.307 380.014C141.99 380.453 140.563 380.783 139.136 380.783C137.16 380.783 135.184 380.234 133.538 379.465C133.099 381.002 133.209 382.429 135.294 382.429C137.599 382.429 143.197 382.429 144.075 382.429C145.612 382.429 146.929 382.21 146.819 381.222C146.819 380.673 145.173 380.344 143.307 380.014Z" fill="white"/>
<path d="M142.979 332.487C143.198 335.999 145.284 355.647 146.82 368.27C147.589 374.636 147.698 379.246 148.247 379.136C149.784 378.697 154.504 337.316 154.175 331.938C153.845 326.559 151.101 322.388 148.028 322.608C144.954 322.718 142.649 327.218 142.979 332.487Z" fill="white"/>
<path d="M150.772 369.038C150.223 369.038 147.04 369.477 146.491 369.587C144.625 356.964 142.32 335.67 142.54 331.938C142.54 331.499 142.649 331.169 142.649 330.73C143.308 325.462 143.308 319.974 142.101 314.815C139.357 302.96 137.271 290.008 136.942 286.496C136.503 279.471 140.564 273.543 145.942 273.214C151.321 272.885 155.821 277.714 156.699 284.63C158.785 301.423 150.772 368.709 150.772 369.038Z" fill="white"/>
<path d="M146.38 369.038C146.38 369.038 146.709 378.148 145.941 379.905C145.173 381.661 144.953 383.746 147.368 383.637C149.673 383.527 154.173 383.417 155.052 383.307C157.027 383.088 159.442 383.197 159.332 382.21C159.332 381.222 151.978 381.112 150.661 380.124C149.344 379.136 150.332 369.587 150.332 369.587L146.38 369.038Z" fill="white"/>
<path d="M154.832 381.002C153.515 381.441 152.088 381.77 150.661 381.77C148.905 381.77 147.149 381.441 145.612 380.673C145.173 382.21 145.173 383.636 147.368 383.636C149.673 383.527 154.174 383.417 155.052 383.307C157.028 383.088 159.442 383.197 159.333 382.21C159.333 381.551 157.137 381.331 154.832 381.002Z" fill="white"/>
<path d="M144.295 228.101C142.648 228.101 140.892 227.333 138.477 225.138C137.05 223.93 136.062 221.845 136.062 220.418V212.515H148.137C148.137 212.515 149.015 216.686 148.137 220.857C147.588 224.04 145.612 228.101 144.295 228.101Z" fill="white"/>
<path d="M101.817 226.126C101.707 225.357 102.366 224.589 103.134 224.589C103.902 224.479 104.451 225.028 104.671 225.686C105.878 230.406 107.195 235.016 108.951 239.297C112.464 248.298 115.647 249.615 116.745 250.383C116.854 250.383 117.513 250.603 117.623 250.603C121.025 251.371 127.062 243.907 128.16 238.09C128.16 237.76 128.928 235.785 128.819 236.004C129.697 233.48 132.551 232.053 135.075 233.041C150.552 238.419 107.305 292.094 101.817 226.126Z" fill="white"/>
<path d="M127.611 281.995C132.002 287.044 157.577 289.24 157.577 289.24C159.443 287.044 150.662 262.018 150.662 262.018C150.662 262.018 154.942 244.017 154.723 237.431C154.613 234.687 152.418 232.602 149.784 232.602H133.538C131.014 232.602 128.928 234.468 128.709 236.992C128.27 242.151 135.075 261.469 135.075 261.469C135.075 261.469 123.879 277.605 127.611 281.995Z" fill="white"/>
<path d="M150.772 262.018C150.772 262.018 154.943 243.468 154.833 236.992C154.723 234.577 152.747 232.602 150.333 232.602H147.918C147.04 234.687 145.064 236.334 141.991 236.334C139.027 236.334 137.051 234.687 136.063 232.602H133.758C136.173 237.87 135.295 244.785 131.124 248.847C132.88 255.213 135.075 261.469 135.075 261.469C135.075 261.469 123.111 279.471 124.867 282.215C128.599 287.922 157.577 289.24 157.577 289.24C159.553 286.496 150.772 262.018 150.772 262.018Z" fill="white"/>
<path d="M139.355 233.699L146.71 232.931L144.405 224.918L139.575 225.467L139.355 233.699Z" fill="white"/>
<path d="M139.575 225.467L144.295 224.918L145.063 227.443C143.966 228.65 142.648 231.284 140.892 231.284C140.343 231.284 139.795 231.175 139.355 230.845L139.575 225.467Z" fill="white"/>
<path d="M138.259 208.783L142.32 208.563C143.528 208.454 144.625 208.124 145.613 207.466C147.04 206.588 148.796 206.697 149.894 208.014C151.101 209.441 151.65 211.307 149.016 213.283C147.699 214.271 145.723 213.393 144.406 213.942C144.296 213.942 144.296 213.942 144.186 213.942L140.564 214.161C139.247 214.271 138.479 215.369 138.479 216.576C138.479 217.344 137.93 218.332 137.93 218.332L136.283 216.247L134.747 214.93C134.417 214.6 134.198 214.271 134.198 213.832V213.612C133.869 211.088 135.735 209.002 138.259 208.783Z" fill="white"/>
<path d="M183.701 219.649C183.701 219.649 181.725 223.381 182.713 224.369C183.701 225.357 184.469 225.796 186.006 224.479C187.543 223.162 188.86 220.637 189.409 218.881C189.958 217.235 189.628 213.942 189.409 213.612C188.421 212.405 187.762 215.588 187.433 217.125C186.994 218.662 186.445 220.308 185.786 219.869C185.128 219.43 186.116 216.576 185.457 215.917C184.799 215.259 183.701 219.649 183.701 219.649Z" fill="white"/>
<path d="M103.134 219.759C103.134 219.759 105 223.601 104.012 224.589C103.024 225.577 102.146 226.016 100.719 224.699C99.2921 223.272 97.975 220.747 97.4262 218.991C96.8773 217.235 97.3164 214.051 97.5359 213.722C98.5238 212.515 99.0726 215.808 99.4019 217.235C99.7312 218.771 100.28 220.418 100.939 220.088C101.597 219.759 100.719 216.796 101.378 216.137C102.146 215.478 103.134 219.759 103.134 219.759Z" fill="white"/>
<path d="M162.515 247.42C166.796 252.359 170.089 249.725 173.821 244.346C175.358 241.602 177.334 239.407 182.602 224.589C183.151 222.942 185.676 223.491 185.456 225.247C180.297 270.36 155.82 263.226 148.466 243.029C147.917 241.492 147.478 240.065 147.368 237.76C147.258 234.907 149.563 232.602 152.307 232.602C155.051 232.602 157.466 234.797 157.466 237.541C157.686 239.407 159.552 244.127 162.515 247.42Z" fill="white"/>
<path d="M155.71 239.078C154.173 237.98 153.515 236.114 153.624 234.248C153.844 230.406 151.539 226.894 148.575 224.15C146.49 222.284 145.502 219.43 145.831 216.576L146.27 212.954H134.087C134.087 215.917 132.66 218.771 130.245 220.637C127.501 222.613 125.196 225.467 123.879 228.979C120.586 237.541 123.769 246.871 131.123 250.274C129.147 258.396 132.769 266.628 139.904 269.372C147.807 272.446 157.027 267.726 160.43 258.725C163.393 251.261 161.198 243.249 155.71 239.078Z" fill="white"/>
<path d="M306.634 367.94C304.329 367.721 303.012 365.306 303.89 363.22C307.732 354.439 310.805 344.78 311.574 341.158C313.001 333.694 308.281 326.559 301.036 325.242C293.792 323.925 291.487 329.084 290.06 336.548C288.962 342.365 286.109 364.538 288.194 374.636C288.194 374.746 289.841 382.868 298.073 382.868C303.561 382.868 351.308 381.112 351.418 376.831C351.418 373.428 321.782 369.477 306.634 367.94Z" fill="white"/>
<path d="M305.428 359.488C308.501 351.805 310.916 344.231 311.575 341.048C313.002 333.584 308.282 326.45 301.037 325.132C293.793 323.815 291.488 328.974 290.061 336.438C290.061 336.658 289.951 336.877 289.951 337.097C302.574 344.67 304.22 357.732 305.428 359.488Z" fill="white"/>
<path d="M391.262 379.575C388.518 377.709 385.335 376.502 382.042 375.734C381.932 375.734 381.713 375.734 381.603 375.843C381.054 376.173 380.725 376.502 380.505 376.612C380.396 376.721 380.286 376.721 380.176 376.721C375.676 377.49 370.627 377.051 365.358 376.063C364.809 375.953 364.48 376.502 364.809 376.941L367.882 381.441C367.992 381.551 368.212 381.661 368.322 381.661C369.968 381.661 378.091 381.771 382.92 381.99C386.762 382.21 390.055 382.1 392.909 381.99C393.457 381.99 393.677 381.331 393.348 381.002C392.579 380.563 392.031 380.014 391.262 379.575Z" fill="white"/>
<path d="M390.494 377.38L385.884 374.855C383.909 373.758 380.945 376.173 380.506 376.612C380.616 376.612 380.725 376.612 380.835 376.612C384.896 376.612 388.628 378.697 391.043 381.771C391.263 382.1 391.702 382.319 392.141 382.319C396.422 382.539 399.495 382.539 401.141 382.539C402.02 382.539 402.459 381.331 401.69 380.783C399.056 379.136 392.141 378.368 390.494 377.38Z" fill="white"/>
<path d="M328.808 367.721C326.174 367.501 324.308 365.196 324.527 362.562C325.515 352.244 325.296 341.048 324.637 337.206C323.43 329.742 316.514 324.693 309.27 325.901C302.026 327.108 301.587 332.816 302.904 340.28C303.892 346.097 308.172 368.599 313.441 377.929L313.551 378.039C315.088 380.673 316.624 382.21 318.271 381.99C319.588 382.539 370.408 381.88 370.408 381.88C370.408 381.88 370.518 378.039 370.738 376.612C360.749 372.331 339.675 368.709 328.808 367.721Z" fill="white"/>
<path d="M288.525 295.825C289.843 294.069 295.001 287.154 295.77 285.398V285.288C295.88 285.178 295.88 284.959 295.989 284.849C297.526 282.215 300.819 281.446 303.453 282.873C306.088 284.41 306.856 287.703 305.429 290.337C304.002 292.752 302.685 294.728 301.148 296.813C300.16 298.131 298.953 299.557 297.855 300.765C297.087 299.997 288.525 295.935 288.525 295.825Z" fill="white"/>
<path d="M312.452 310.863C313.55 311.083 314.757 311.302 315.855 311.522C319.806 312.29 323.538 309.217 323.538 305.265C323.538 298.57 323.648 292.533 323.648 288.471C323.648 285.617 321.453 283.203 318.599 283.093L301.366 282.325C298.731 282.215 296.426 284.191 296.097 286.825C295.658 290.447 295.439 295.935 294.999 301.972C294.78 305.155 296.975 308.119 300.049 308.778C304.11 309.546 308.281 310.095 312.452 310.863Z" fill="white"/>
<path d="M301.147 282.325L304.001 282.434C304.879 284.739 306.854 286.605 310.038 286.715C313.221 286.825 315.416 285.178 316.514 282.983L319.038 283.093C321.672 283.203 323.758 285.398 323.648 288.032C323.538 294.838 323.429 308.009 323.648 319.974C323.868 330.73 327.49 339.95 325.404 342.804C325.404 342.804 296.646 344.561 289.512 336.877C290.939 329.742 291.707 320.632 292.914 311.083C294.122 301.643 295.329 292.093 296.098 286.605C296.317 284.081 298.512 282.215 301.147 282.325Z" fill="white"/>
<path d="M309.16 277.495H309.489C312.014 277.824 314.319 275.958 314.539 273.543L315.307 266.848L310.477 266.299L309.16 277.495Z" fill="white"/>
<path d="M308.28 284.52L314.756 283.093L309.926 274.422L304.219 276.836L305.755 282.764C305.975 284.081 307.073 284.739 308.28 284.52Z" fill="white"/>
<path d="M304.111 276.946L309.819 274.531L311.795 278.044C310.917 279.91 309.819 281.995 307.624 282.654C306.965 282.873 306.197 282.764 305.538 282.654L304.111 276.946Z" fill="white"/>
<path d="M304.551 280.788C308.722 281.337 312.454 278.373 312.893 274.202L313.881 265.86L301.148 264.323C301.148 264.323 300.38 270.799 300.709 275.3C301.038 278.702 302.465 280.568 304.551 280.788Z" fill="white"/>
<path d="M311.818 268.962L311.686 270.052L314.083 270.343L314.215 269.253L311.818 268.962Z" fill="white"/>
<path d="M310.915 272.446C310.696 274.092 311.354 275.519 312.342 275.629C313.33 275.739 314.647 273.763 314.867 272.116C315.086 270.47 314.098 269.811 313.111 269.702C312.013 269.592 311.135 270.799 310.915 272.446Z" fill="white"/>
<path d="M299.831 267.616C299.611 266.519 299.721 265.421 300.051 264.433C300.051 264.433 300.49 260.701 302.026 260.152C303.453 259.713 305.648 260.811 306.966 261.25C307.954 261.579 311.246 261.799 311.246 261.799C313.881 262.128 315.747 264.433 315.417 267.067L315.308 268.055L312.893 269.811L312.015 271.677H311.795C310.917 271.568 310.368 270.799 310.368 270.031C310.478 268.714 309.71 267.397 308.283 267.287L304.441 266.848C302.136 266.519 300.709 267.726 300.49 269.372L300.38 270.909L299.831 267.616Z" fill="white"/>
<path d="M325.623 289.569C322.33 310.424 300.817 333.694 263.607 331.608C262.729 331.608 262.07 330.84 262.18 329.962C262.18 329.194 262.839 328.645 263.497 328.535C288.633 325.132 309.927 312.839 314.867 288.032C315.635 284.41 318.598 282.873 321.343 283.422C324.196 283.971 326.062 286.715 325.623 289.569Z" fill="white"/>
<path d="M311.137 297.801C313.662 292.313 314.43 288.91 314.43 288.91C314.43 288.91 314.649 288.142 314.759 287.923C315.308 285.727 316.406 284.52 316.406 284.52C316.406 284.52 318.82 281.995 323.321 284.081C326.943 285.837 325.955 290.118 325.955 290.118C325.845 290.667 326.284 295.386 320.577 303.948C320.686 303.838 310.808 298.57 311.137 297.801Z" fill="white"/>
<path d="M259.547 327.657C259.547 327.657 264.047 327.437 264.596 328.864C265.145 330.182 265.254 331.279 263.279 332.048C261.303 332.926 258.23 333.035 256.364 332.816C254.498 332.596 251.534 330.84 251.314 330.401C250.656 328.974 253.949 329.743 255.595 330.072C257.242 330.401 259.108 330.621 258.998 329.743C258.888 328.864 255.705 328.535 255.376 327.657C255.046 326.669 259.547 327.657 259.547 327.657Z" fill="white"/>
<path d="M245.827 298.021C245.827 298.021 250.328 297.582 250.657 296.155C250.986 294.728 250.876 293.74 248.901 293.191C246.815 292.642 243.742 292.862 241.985 293.411C240.559 293.85 238.693 295.167 237.814 295.935H242.425C244.291 295.935 245.059 295.386 245.059 296.045C245.059 296.923 241.985 297.692 241.766 298.679C241.437 299.667 245.827 298.021 245.827 298.021Z" fill="white"/>
<path d="M344.943 253.896L340.003 260.042C339.784 260.482 339.674 260.921 340.003 261.36L344.284 267.945L336.93 265.092C336.491 264.872 335.942 264.982 335.613 265.421L330.673 271.568L331.112 263.774C331.112 263.226 330.893 262.896 330.454 262.567L323.1 259.713L330.673 257.737C331.222 257.628 331.442 257.189 331.551 256.75L331.99 248.956L336.271 255.542C336.601 255.981 337.04 256.091 337.588 255.981L344.943 253.896Z" fill="white"/>
<path d="M360.42 282.105C361.298 283.312 360.859 284.19 359.652 283.642L351.2 279.91L351.858 288.142C351.968 289.349 350.761 289.24 349.992 288.142L340.004 275.3V275.19C344.175 273.873 347.468 270.909 349.444 267.287L349.663 267.397L360.42 282.105Z" fill="#27DBB0"/>
<path d="M343.625 168.28L373.701 280.678C374.908 285.178 371.835 290.118 366.785 291.435L188.2 339.292C183.151 340.609 178.102 337.975 176.894 333.365L146.819 220.967C145.612 216.466 148.685 211.527 153.734 210.21L332.1 162.463C337.04 160.816 342.308 163.45 343.625 168.28Z" fill="#E3E1FF"/>
<path d="M330.782 244.127C339.453 241.822 348.454 246.981 350.759 255.652C351.857 259.823 351.308 264.104 349.442 267.506C347.466 271.129 344.173 274.092 340.002 275.409C339.673 275.519 339.563 275.519 339.234 275.629C335.392 276.617 331.66 276.288 328.367 274.751C324.087 272.775 320.684 269.043 319.257 264.104C316.842 255.323 322.111 246.432 330.782 244.127ZM339.563 259.823L343.954 254.335L337.148 256.091C336.709 256.201 336.27 255.981 336.051 255.762L332.209 249.944L331.88 256.969C331.88 257.518 331.55 257.737 331.111 257.847L324.306 259.603L330.892 262.128C331.331 262.348 331.55 262.677 331.55 263.116L331.221 270.141L335.612 264.653C335.831 264.214 336.38 264.104 336.709 264.323L343.295 266.848L339.453 261.03C339.344 260.591 339.344 260.042 339.563 259.823Z" fill="#B4B7FF"/>
<path d="M340.222 274.641L337.807 291.654C337.478 293.191 336.38 293.85 336.051 292.642L332.319 284.739L326.392 292.752C325.624 293.85 324.636 293.191 324.855 291.764L326.941 273.873L327.599 274.202C331.112 275.848 335.283 276.178 339.125 275.08C339.783 274.97 339.893 274.97 340.222 274.641Z" fill="#B4B7FF"/>
<path d="M325.733 195.721L302.243 201.977C301.255 202.197 300.487 201.648 300.268 200.88C300.048 199.892 300.597 199.124 301.365 198.904L324.855 192.648C325.842 192.428 326.611 192.977 326.83 193.745C327.269 194.514 326.721 195.501 325.733 195.721Z" fill="#B4B7FF"/>
<path d="M280.183 207.905L269.097 210.868C268.109 211.088 267.341 210.539 267.121 209.771C266.902 208.783 267.45 208.014 268.219 207.795L279.305 204.831C280.293 204.612 281.061 205.161 281.281 205.929C281.829 206.697 281.281 207.685 280.183 207.905Z" fill="#C4C4C4"/>
<path d="M242.752 218.003L164.271 238.968C163.283 239.187 162.295 238.639 162.075 237.98C161.856 236.992 162.405 236.224 163.393 236.004L241.874 215.039C242.862 214.82 243.63 215.369 243.849 216.137C244.288 216.796 243.74 217.674 242.752 218.003Z" fill="#C4C4C4"/>
<path d="M331.223 218.003L244.4 241.273C243.412 241.492 242.643 240.944 242.424 240.175C242.204 239.187 242.753 238.419 243.521 238.2L330.345 214.93C331.332 214.71 332.101 215.259 332.32 216.027C332.54 216.796 331.991 217.783 331.223 218.003Z" fill="#B4B7FF"/>
<path d="M312.013 242.48L289.95 248.408C288.962 248.627 288.194 248.078 287.975 247.31C287.755 246.542 288.304 245.554 289.072 245.334L311.135 239.407C312.123 239.187 312.891 239.736 313.11 240.505C313.33 241.273 312.781 242.261 312.013 242.48Z" fill="#B4B7FF"/>
<path d="M243.85 261.579L182.163 278.154C181.175 278.373 180.407 277.824 180.187 277.056C179.968 276.288 180.517 275.3 181.285 275.08L243.302 258.506C244.289 258.286 245.058 258.835 245.277 259.603C245.387 260.372 244.838 261.25 243.85 261.579Z" fill="#C4C4C4"/>
<path d="M281.499 271.458L214.652 289.349C213.665 289.569 212.896 289.02 212.677 288.252C212.457 287.264 213.006 286.496 213.774 286.276L280.291 268.494C281.279 268.275 282.047 268.824 282.267 269.592C282.816 270.36 282.267 271.348 281.499 271.458Z" fill="#C4C4C4"/>
<path d="M203.128 292.533L187.212 296.813C186.224 297.033 185.456 296.484 185.236 295.716C185.017 294.728 185.566 293.959 186.334 293.74L202.25 289.459C203.238 289.24 204.006 289.788 204.225 290.557C204.445 291.325 203.896 292.313 203.128 292.533Z" fill="#C4C4C4"/>
<path d="M286.548 290.228L245.276 301.314C244.289 301.533 243.52 300.984 243.301 300.216C243.081 299.228 243.63 298.46 244.398 298.24L285.67 287.154C286.657 286.935 287.426 287.483 287.645 288.252C287.865 289.02 287.316 290.008 286.548 290.228Z" fill="#C4C4C4"/>
<path d="M233.863 304.277L192.152 315.473C191.165 315.693 190.396 315.144 190.177 314.376C189.957 313.388 190.506 312.619 191.274 312.4L233.314 301.094C234.302 300.875 235.29 301.423 235.509 302.082C235.509 303.07 234.96 304.058 233.863 304.277Z" fill="#C4C4C4"/>
<path d="M349.443 266.738L359.871 280.459C360.749 281.776 360.42 282.983 359.322 282.434L351.09 279.471L352.517 289.24C352.736 290.557 351.638 290.776 350.651 289.569L339.564 275.519L340.223 275.3C343.845 273.982 347.028 271.238 349.004 267.726C349.333 267.287 349.443 267.177 349.443 266.738Z" fill="#B4B7FF"/>
<path d="M231.228 326.889L232.655 336.438L240.777 334.353L247.802 341.377L253.071 335.011L262.73 336.438L263.279 327.986L272.06 323.596L267.669 316.571L272.06 307.9L264.157 304.716L262.73 295.167L254.607 297.252L247.582 290.228L242.314 296.594L232.655 295.167L232.106 303.619L223.325 308.009L227.715 315.034L223.325 323.705L231.228 326.889ZM126.403 349.28V129.204C126.403 127.448 127.83 126.021 129.586 126.021H286.549C288.305 126.021 289.732 127.448 289.732 129.204V215.478V283.532V322.169V348.951C289.732 350.707 288.305 352.134 286.549 352.134H170.089H129.367C127.611 352.464 126.403 351.037 126.403 349.28Z" fill="#758D9E"/>
<path d="M288.524 126.789L285.67 129.424L285.561 353.891L289.732 350.817L289.622 130.082V129.204C289.732 129.204 289.622 127.558 288.524 126.789Z" fill="#506370"/>
<path d="M124.317 129.643L128.049 126.46C130.684 128.546 130.354 129.533 130.354 129.533L124.317 129.643Z" fill="#6E8496"/>
<path d="M229.692 339.072L228.265 329.523L220.362 326.34L224.972 317.668L220.362 310.644L229.143 306.253L229.692 297.801L239.351 299.228L244.84 292.862L251.535 299.887L259.658 297.801L261.085 307.351L268.988 310.534L264.597 319.205L268.988 326.23L260.207 330.621L259.658 339.072L249.999 337.316L244.73 343.682L237.705 336.987L229.692 339.072Z" fill="#27DBB0"/>
<path d="M228.265 329.413L229.692 338.963L237.814 336.877L244.839 343.902L250.108 337.536L259.767 338.963L260.316 330.511L269.097 326.12L264.706 319.095L269.097 310.424L261.194 307.241L259.767 297.691L251.644 299.777L244.62 292.752L239.351 299.118L229.692 297.691L229.143 306.143L220.362 310.534L224.752 317.559L220.362 326.23L228.265 329.413ZM123.44 351.805V131.838C123.44 130.082 124.867 128.655 126.624 128.655H283.586C285.342 128.655 286.769 130.082 286.769 131.838V218.113V286.166V324.803V351.585C286.769 353.342 285.342 354.769 283.586 354.769H167.126H126.404C124.648 354.988 123.44 353.561 123.44 351.805Z" fill="white"/>
<path d="M254.718 161.145H240.449C239.241 161.145 238.363 160.267 238.363 159.06C238.363 157.852 239.241 156.974 240.449 156.974H254.718C255.925 156.974 256.804 157.852 256.804 159.06C256.474 160.267 255.596 161.145 254.718 161.145Z" fill="#E2E2E2"/>
<path d="M227.057 161.145H220.362C219.154 161.145 218.276 160.267 218.276 159.06C218.276 157.852 219.154 156.974 220.362 156.974H227.057C228.265 156.974 229.143 157.852 229.143 159.06C229.143 160.267 228.265 161.145 227.057 161.145Z" fill="#E2E2E2"/>
<path d="M204.666 161.145H157.467C156.26 161.145 155.382 160.267 155.382 159.06C155.382 157.852 156.26 156.974 157.467 156.974H204.666C205.873 156.974 206.751 157.852 206.751 159.06C206.422 160.267 205.873 161.145 204.666 161.145Z" fill="#E2E2E2"/>
<path d="M260.316 195.172H145.613C144.405 195.172 143.527 194.294 143.527 193.087C143.527 191.879 144.405 191.001 145.613 191.001H260.316C261.523 191.001 262.402 191.879 262.402 193.087C262.072 194.294 261.194 195.172 260.316 195.172Z" fill="#E2E2E2"/>
<path d="M270.194 223.601H241.107C239.9 223.601 239.021 222.723 239.021 221.515C239.021 220.308 239.9 219.43 241.107 219.43H270.194C271.402 219.43 272.28 220.308 272.28 221.515C271.951 222.723 271.072 223.601 270.194 223.601Z" fill="#E2E2E2"/>
<path d="M227.387 223.601H145.613C144.405 223.601 143.527 222.723 143.527 221.515C143.527 220.308 144.405 219.43 145.613 219.43H227.387C228.594 219.43 229.472 220.308 229.472 221.515C229.143 222.723 228.265 223.601 227.387 223.601Z" fill="#E2E2E2"/>
<path d="M270.195 252.139H181.945C180.737 252.139 179.859 251.261 179.859 250.054C179.859 248.847 180.737 247.968 181.945 247.968H269.866C271.073 247.968 271.951 248.847 271.951 250.054C271.951 251.261 271.073 252.139 270.195 252.139Z" fill="#E2E2E2"/>
<path d="M270.195 280.568H215.752C214.545 280.568 213.667 279.69 213.667 278.483C213.667 277.275 214.545 276.397 215.752 276.397H270.195C271.403 276.397 272.281 277.275 272.281 278.483C271.952 279.69 271.073 280.568 270.195 280.568Z" fill="#E2E2E2"/>
<path d="M200.934 280.568H145.613C144.405 280.568 143.527 279.69 143.527 278.483C143.527 277.275 144.405 276.397 145.613 276.397H200.934C202.141 276.397 203.019 277.275 203.019 278.483C202.91 279.69 202.031 280.568 200.934 280.568Z" fill="#E2E2E2"/>
<path d="M200.056 316.681H156.151C154.944 316.681 154.065 315.802 154.065 314.595C154.065 313.388 154.944 312.51 156.151 312.51H200.056C201.264 312.51 202.142 313.388 202.142 314.595C202.142 315.802 201.264 316.681 200.056 316.681Z" fill="#E2E2E2"/>
<path d="M401.033 386.929H122.013C121.026 386.929 116.854 385.063 116.854 382.758C116.854 380.453 121.026 378.587 122.013 378.587H401.033C402.021 378.587 406.631 380.453 406.631 382.758C406.631 385.063 402.021 386.929 401.033 386.929Z" fill="#C3D0E0"/>
<path d="M248.79 296.374C247.583 294.947 249.339 292.972 250.876 294.069C267.34 306.692 282.049 310.644 292.696 292.533C293.464 291.106 295.22 287.923 295.659 286.386C296.428 283.532 299.391 281.776 302.355 282.544C305.538 283.422 307.185 286.825 305.977 289.898C299.501 305.594 277.329 327.547 248.79 296.374Z" fill="#FA968C"/>
<path d="M130.795 331.279C131.015 334.792 133.1 354.439 134.637 367.062C135.405 373.428 135.515 378.039 136.064 377.929C137.6 377.49 142.32 336.109 141.991 330.73C141.662 325.352 138.918 321.181 135.844 321.4C132.771 321.51 130.466 325.901 130.795 331.279Z" fill="#FA968C"/>
<path d="M138.588 367.83C138.039 367.83 134.856 368.27 134.308 368.379C132.442 355.756 130.137 334.462 130.356 330.73C130.356 330.291 130.466 329.962 130.466 329.523C131.124 324.254 131.124 318.766 129.917 313.607C127.173 301.753 125.087 288.801 124.758 285.288C124.319 278.263 128.38 272.336 133.759 272.007C139.137 271.677 143.637 276.507 144.516 283.422C146.711 300.216 138.588 367.501 138.588 367.83Z" fill="#0073AA"/>
<path d="M143.857 314.046C144.844 301.094 145.284 289.24 144.625 283.422C143.747 276.507 139.247 271.677 133.868 272.007C128.49 272.336 124.428 278.263 124.867 285.288C124.977 286.166 125.087 287.483 125.307 289.349C133.319 292.533 139.137 299.887 140.673 308.668C141.113 310.753 142.21 312.619 143.857 314.046Z" fill="#195FA0"/>
<path d="M134.197 367.831C134.197 367.831 134.526 376.941 133.758 378.697C132.99 380.453 132.88 382.429 135.185 382.429C137.49 382.429 143.088 382.429 143.966 382.429C145.503 382.429 146.82 382.21 146.71 381.222C146.71 380.234 139.795 379.905 138.368 378.917C137.051 377.929 138.039 368.379 138.039 368.379L134.197 367.831Z" fill="#FA968C"/>
<path d="M143.307 380.014C141.99 380.453 140.563 380.783 139.136 380.783C137.16 380.783 135.184 380.234 133.538 379.465C133.099 381.002 133.209 382.429 135.294 382.429C137.599 382.429 143.197 382.429 144.075 382.429C145.612 382.429 146.929 382.21 146.819 381.222C146.819 380.673 145.173 380.344 143.307 380.014Z" fill="#A03C19"/>
<path d="M142.979 332.487C143.198 335.999 145.284 355.647 146.82 368.27C147.589 374.636 147.698 379.246 148.247 379.136C149.784 378.697 154.504 337.316 154.175 331.938C153.845 326.559 151.101 322.388 148.028 322.608C144.954 322.718 142.649 327.218 142.979 332.487Z" fill="#FA968C"/>
<path d="M150.772 369.038C150.223 369.038 147.04 369.477 146.491 369.587C144.625 356.964 142.32 335.67 142.54 331.938C142.54 331.499 142.649 331.169 142.649 330.73C143.308 325.462 143.308 319.974 142.101 314.815C139.357 302.96 137.271 290.008 136.942 286.496C136.503 279.471 140.564 273.543 145.942 273.214C151.321 272.885 155.821 277.714 156.699 284.63C158.785 301.423 150.772 368.709 150.772 369.038Z" fill="#0091C8"/>
<path d="M146.38 369.038C146.38 369.038 146.709 378.148 145.941 379.905C145.173 381.661 144.953 383.746 147.368 383.637C149.673 383.527 154.173 383.417 155.052 383.307C157.027 383.088 159.442 383.197 159.332 382.21C159.332 381.222 151.978 381.112 150.661 380.124C149.344 379.136 150.332 369.587 150.332 369.587L146.38 369.038Z" fill="#FA968C"/>
<path d="M154.832 381.002C153.515 381.441 152.088 381.77 150.661 381.77C148.905 381.77 147.149 381.441 145.612 380.673C145.173 382.21 145.173 383.636 147.368 383.636C149.673 383.527 154.174 383.417 155.052 383.307C157.028 383.088 159.442 383.197 159.333 382.21C159.333 381.551 157.137 381.331 154.832 381.002Z" fill="#CD5014"/>
<path d="M144.295 228.101C142.648 228.101 140.892 227.333 138.477 225.138C137.05 223.93 136.062 221.845 136.062 220.418V212.515H148.137C148.137 212.515 149.015 216.686 148.137 220.857C147.588 224.04 145.612 228.101 144.295 228.101Z" fill="#FAB9AF"/>
<path d="M101.817 226.126C101.707 225.357 102.366 224.589 103.134 224.589C103.902 224.479 104.451 225.028 104.671 225.686C105.878 230.406 107.195 235.016 108.951 239.297C112.464 248.298 115.647 249.615 116.745 250.383C116.854 250.383 117.513 250.603 117.623 250.603C121.025 251.371 127.062 243.907 128.16 238.09C128.16 237.76 128.928 235.785 128.819 236.004C129.697 233.48 132.551 232.053 135.075 233.041C150.552 238.419 107.305 292.094 101.817 226.126Z" fill="#FAB9AF"/>
<path d="M127.611 281.995C132.002 287.044 157.577 289.24 157.577 289.24C159.443 287.044 150.662 262.018 150.662 262.018C150.662 262.018 154.942 244.017 154.723 237.431C154.613 234.687 152.418 232.602 149.784 232.602H133.538C131.014 232.602 128.928 234.468 128.709 236.992C128.27 242.151 135.075 261.469 135.075 261.469C135.075 261.469 123.879 277.605 127.611 281.995Z" fill="#FAB9AF"/>
<path d="M150.772 262.018C150.772 262.018 154.943 243.468 154.833 236.992C154.723 234.577 152.747 232.602 150.333 232.602H147.918C147.04 234.687 145.064 236.334 141.991 236.334C139.027 236.334 137.051 234.687 136.063 232.602H133.758C136.173 237.87 135.295 244.785 131.124 248.847C132.88 255.213 135.075 261.469 135.075 261.469C135.075 261.469 123.111 279.471 124.867 282.215C128.599 287.922 157.577 289.24 157.577 289.24C159.553 286.496 150.772 262.018 150.772 262.018Z" fill="#FF8C46"/>
<path d="M139.355 233.699L146.71 232.931L144.405 224.918L139.575 225.467L139.355 233.699Z" fill="#FAB9AF"/>
<path d="M139.575 225.467L144.295 224.918L145.063 227.443C143.966 228.65 142.648 231.284 140.892 231.284C140.343 231.284 139.795 231.175 139.355 230.845L139.575 225.467Z" fill="#FA968C"/>
<path d="M138.259 208.783L142.32 208.563C143.528 208.454 144.625 208.124 145.613 207.466C147.04 206.588 148.796 206.697 149.894 208.014C151.101 209.441 151.65 211.307 149.016 213.283C147.699 214.271 145.723 213.393 144.406 213.942C144.296 213.942 144.296 213.942 144.186 213.942L140.564 214.161C139.247 214.271 138.479 215.369 138.479 216.576C138.479 217.344 137.93 218.332 137.93 218.332L136.283 216.247L134.747 214.93C134.417 214.6 134.198 214.271 134.198 213.832V213.612C133.869 211.088 135.735 209.002 138.259 208.783Z" fill="#BE1EC8"/>
<path d="M183.701 219.649C183.701 219.649 181.725 223.381 182.713 224.369C183.701 225.357 184.469 225.796 186.006 224.479C187.543 223.162 188.86 220.637 189.409 218.881C189.958 217.235 189.628 213.942 189.409 213.612C188.421 212.405 187.762 215.588 187.433 217.125C186.994 218.662 186.445 220.308 185.786 219.869C185.128 219.43 186.116 216.576 185.457 215.917C184.799 215.259 183.701 219.649 183.701 219.649Z" fill="#FAB9AF"/>
<path d="M103.134 219.759C103.134 219.759 105 223.601 104.012 224.589C103.024 225.577 102.146 226.016 100.719 224.699C99.2921 223.272 97.975 220.747 97.4262 218.991C96.8773 217.235 97.3164 214.051 97.5359 213.722C98.5238 212.515 99.0726 215.808 99.4019 217.235C99.7312 218.771 100.28 220.418 100.939 220.088C101.597 219.759 100.719 216.796 101.378 216.137C102.146 215.478 103.134 219.759 103.134 219.759Z" fill="#FAB9AF"/>
<path d="M162.515 247.42C166.796 252.359 170.089 249.725 173.821 244.346C175.358 241.602 177.334 239.407 182.602 224.589C183.151 222.942 185.676 223.491 185.456 225.247C180.297 270.36 155.82 263.226 148.466 243.029C147.917 241.492 147.478 240.065 147.368 237.76C147.258 234.907 149.563 232.602 152.307 232.602C155.051 232.602 157.466 234.797 157.466 237.541C157.686 239.407 159.552 244.127 162.515 247.42Z" fill="#FAB9AF"/>
<path d="M155.71 239.078C154.173 237.98 153.515 236.114 153.624 234.248C153.844 230.406 151.539 226.894 148.575 224.15C146.49 222.284 145.502 219.43 145.831 216.576L146.27 212.954H134.087C134.087 215.917 132.66 218.771 130.245 220.637C127.501 222.613 125.196 225.467 123.879 228.979C120.586 237.541 123.769 246.871 131.123 250.274C129.147 258.396 132.769 266.628 139.904 269.372C147.807 272.446 157.027 267.726 160.43 258.725C163.393 251.261 161.198 243.249 155.71 239.078Z" fill="#BE1EC8"/>
<path d="M306.634 367.94C304.329 367.721 303.012 365.306 303.89 363.22C307.732 354.439 310.805 344.78 311.574 341.158C313.001 333.694 308.281 326.559 301.036 325.242C293.792 323.925 291.487 329.084 290.06 336.548C288.962 342.365 286.109 364.538 288.194 374.636C288.194 374.746 289.841 382.868 298.073 382.868C303.561 382.868 351.308 381.112 351.418 376.831C351.418 373.428 321.782 369.477 306.634 367.94Z" fill="#415050"/>
<path d="M305.428 359.488C308.501 351.805 310.916 344.231 311.575 341.048C313.002 333.584 308.282 326.45 301.037 325.132C293.793 323.815 291.488 328.974 290.061 336.438C290.061 336.658 289.951 336.877 289.951 337.097C302.574 344.67 304.22 357.732 305.428 359.488Z" fill="#3C4646"/>
<path d="M391.262 379.575C388.518 377.709 385.335 376.502 382.042 375.734C381.932 375.734 381.713 375.734 381.603 375.843C381.054 376.173 380.725 376.502 380.505 376.612C380.396 376.721 380.286 376.721 380.176 376.721C375.676 377.49 370.627 377.051 365.358 376.063C364.809 375.953 364.48 376.502 364.809 376.941L367.882 381.441C367.992 381.551 368.212 381.661 368.322 381.661C369.968 381.661 378.091 381.771 382.92 381.99C386.762 382.21 390.055 382.1 392.909 381.99C393.457 381.99 393.677 381.331 393.348 381.002C392.579 380.563 392.031 380.014 391.262 379.575Z" fill="#FAB9AF"/>
<path d="M390.494 377.38L385.884 374.855C383.909 373.758 380.945 376.173 380.506 376.612C380.616 376.612 380.725 376.612 380.835 376.612C384.896 376.612 388.628 378.697 391.043 381.771C391.263 382.1 391.702 382.319 392.141 382.319C396.422 382.539 399.495 382.539 401.141 382.539C402.02 382.539 402.459 381.331 401.69 380.783C399.056 379.136 392.141 378.368 390.494 377.38Z" fill="#415050"/>
<path d="M328.808 367.721C326.174 367.501 324.308 365.196 324.527 362.562C325.515 352.244 325.296 341.048 324.637 337.206C323.43 329.742 316.514 324.693 309.27 325.901C302.026 327.108 301.587 332.816 302.904 340.28C303.892 346.097 308.172 368.599 313.441 377.929L313.551 378.039C315.088 380.673 316.624 382.21 318.271 381.99C319.588 382.539 370.408 381.88 370.408 381.88C370.408 381.88 370.518 378.039 370.738 376.612C360.749 372.331 339.675 368.709 328.808 367.721Z" fill="#55696E"/>
<path d="M288.525 295.825C289.843 294.069 295.001 287.154 295.77 285.398V285.288C295.88 285.178 295.88 284.959 295.989 284.849C297.526 282.215 300.819 281.446 303.453 282.873C306.088 284.41 306.856 287.703 305.429 290.337C304.002 292.752 302.685 294.728 301.148 296.813C300.16 298.131 298.953 299.557 297.855 300.765C297.087 299.997 288.525 295.935 288.525 295.825Z" fill="#50D1DD"/>
<path d="M312.452 310.863C313.55 311.083 314.757 311.302 315.855 311.522C319.806 312.29 323.538 309.217 323.538 305.265C323.538 298.57 323.648 292.533 323.648 288.471C323.648 285.617 321.453 283.203 318.599 283.093L301.366 282.325C298.731 282.215 296.426 284.191 296.097 286.825C295.658 290.447 295.439 295.935 294.999 301.972C294.78 305.155 296.975 308.119 300.049 308.778C304.11 309.546 308.281 310.095 312.452 310.863Z" fill="#FAB9AF"/>
<path d="M301.147 282.325L304.001 282.434C304.879 284.739 306.854 286.605 310.038 286.715C313.221 286.825 315.416 285.178 316.514 282.983L319.038 283.093C321.672 283.203 323.758 285.398 323.648 288.032C323.538 294.838 323.429 308.009 323.648 319.974C323.868 330.73 327.49 339.95 325.404 342.804C325.404 342.804 296.646 344.561 289.512 336.877C290.939 329.742 291.707 320.632 292.914 311.083C294.122 301.643 295.329 292.093 296.098 286.605C296.317 284.081 298.512 282.215 301.147 282.325Z" fill="#25BBCC"/>
<path d="M309.16 277.495H309.489C312.014 277.824 314.319 275.958 314.539 273.543L315.307 266.848L310.477 266.299L309.16 277.495Z" fill="#00558C"/>
<path d="M308.28 284.52L314.756 283.093L309.926 274.422L304.219 276.836L305.755 282.764C305.975 284.081 307.073 284.739 308.28 284.52Z" fill="#FAB9AF"/>
<path d="M304.111 276.946L309.819 274.531L311.795 278.044C310.917 279.91 309.819 281.995 307.624 282.654C306.965 282.873 306.197 282.764 305.538 282.654L304.111 276.946Z" fill="#FA968C"/>
<path d="M304.551 280.788C308.722 281.337 312.454 278.373 312.893 274.202L313.881 265.86L301.148 264.323C301.148 264.323 300.38 270.799 300.709 275.3C301.038 278.702 302.465 280.568 304.551 280.788Z" fill="#FAB9AF"/>
<path d="M311.818 268.962L311.686 270.052L314.083 270.343L314.215 269.253L311.818 268.962Z" fill="#00558C"/>
<path d="M310.915 272.446C310.696 274.092 311.354 275.519 312.342 275.629C313.33 275.739 314.647 273.763 314.867 272.116C315.086 270.47 314.098 269.811 313.111 269.702C312.013 269.592 311.135 270.799 310.915 272.446Z" fill="#FAB9AF"/>
<path d="M299.831 267.616C299.611 266.519 299.721 265.421 300.051 264.433C300.051 264.433 300.49 260.701 302.026 260.152C303.453 259.713 305.648 260.811 306.966 261.25C307.954 261.579 311.246 261.799 311.246 261.799C313.881 262.128 315.747 264.433 315.417 267.067L315.308 268.055L312.893 269.811L312.015 271.677H311.795C310.917 271.568 310.368 270.799 310.368 270.031C310.478 268.714 309.71 267.397 308.283 267.287L304.441 266.848C302.136 266.519 300.709 267.726 300.49 269.372L300.38 270.909L299.831 267.616Z" fill="#00558C"/>
<path d="M325.623 289.569C322.33 310.424 300.817 333.694 263.607 331.608C262.729 331.608 262.07 330.84 262.18 329.962C262.18 329.194 262.839 328.645 263.497 328.535C288.633 325.132 309.927 312.839 314.867 288.032C315.635 284.41 318.598 282.873 321.343 283.422C324.196 283.971 326.062 286.715 325.623 289.569Z" fill="#FAB9AF"/>
<path d="M311.137 297.801C313.662 292.313 314.43 288.91 314.43 288.91C314.43 288.91 314.649 288.142 314.759 287.923C315.308 285.727 316.406 284.52 316.406 284.52C316.406 284.52 318.82 281.995 323.321 284.081C326.943 285.837 325.955 290.118 325.955 290.118C325.845 290.667 326.284 295.386 320.577 303.948C320.686 303.838 310.808 298.57 311.137 297.801Z" fill="#50D1DD"/>
<path d="M259.547 327.657C259.547 327.657 264.047 327.437 264.596 328.864C265.145 330.182 265.254 331.279 263.279 332.048C261.303 332.926 258.23 333.035 256.364 332.816C254.498 332.596 251.534 330.84 251.314 330.401C250.656 328.974 253.949 329.743 255.595 330.072C257.242 330.401 259.108 330.621 258.998 329.743C258.888 328.864 255.705 328.535 255.376 327.657C255.046 326.669 259.547 327.657 259.547 327.657Z" fill="#FAB9AF"/>
<path d="M245.827 298.021C245.827 298.021 250.328 297.582 250.657 296.155C250.986 294.728 250.876 293.74 248.901 293.191C246.815 292.642 243.742 292.862 241.985 293.411C240.559 293.85 238.693 295.167 237.814 295.935H242.425C244.291 295.935 245.059 295.386 245.059 296.045C245.059 296.923 241.985 297.692 241.766 298.679C241.437 299.667 245.827 298.021 245.827 298.021Z" fill="#FA968C"/>
</svg>
