<svg width="511" height="482" viewBox="0 0 511 482" fill="none" xmlns="http://www.w3.org/2000/svg">
<path d="M42.8905 418.885C4.02825 398.638 80.1199 380.023 123.01 373.274H341.705C371.424 373.274 510 387.316 510 418.885C510 450.454 461.34 469.504 421.825 478.975C382.201 488.445 341.705 463.19 311.987 460.033C282.269 456.877 247.217 482.132 221.962 478.975C196.707 475.818 173.302 464.497 156.212 441.092C139.121 417.47 91.4411 444.14 42.8905 418.885Z" fill="#E1E9F5" stroke="#E1E9F5"/>
<path d="M477.777 416.926C488.9 416.926 497.916 415.951 497.916 414.749C497.916 413.546 488.9 412.571 477.777 412.571C466.655 412.571 457.639 413.546 457.639 414.749C457.639 415.951 466.655 416.926 477.777 416.926Z" fill="#D1DDEE"/>
<path d="M494.76 385.901C494.76 385.901 497.046 385.575 498.788 384.051C500.529 382.527 502.271 380.785 502.271 380.785C502.271 380.785 498.679 380.567 496.937 382.091C495.304 383.615 494.76 385.901 494.76 385.901Z" fill="#47CE92"/>
<path d="M489.971 388.732C489.971 388.732 491.278 386.772 491.169 384.486C491.06 382.091 490.189 380.023 490.189 380.023C490.189 380.023 488.447 382.2 488.447 384.595C488.556 386.881 489.971 388.732 489.971 388.732Z" fill="#47CE92"/>
<path d="M499.985 388.187C499.985 388.187 497.808 387.534 495.522 388.187C493.236 388.949 491.494 390.364 491.494 390.364C491.494 390.364 494.107 391.453 496.284 390.691C498.461 390.038 499.985 388.187 499.985 388.187Z" fill="#47CE92"/>
<path d="M486.161 394.501C486.161 394.501 486.705 392.215 485.943 390.038C485.072 387.861 483.657 386.119 483.657 386.119C483.657 386.119 482.677 388.732 483.548 390.909C484.31 393.195 486.161 394.501 486.161 394.501Z" fill="#47CE92"/>
<path d="M495.738 394.719C495.738 394.719 493.67 393.739 491.384 394.174C489.098 394.61 487.139 395.807 487.139 395.807C487.139 395.807 489.534 397.222 491.928 396.787C494.106 396.352 495.738 394.719 495.738 394.719Z" fill="#47CE92"/>
<path d="M482.46 400.379C482.46 400.379 483.004 398.093 482.133 395.916C481.263 393.739 479.739 392.106 479.739 392.106C479.739 392.106 478.868 394.719 479.739 396.896C480.501 399.073 482.46 400.379 482.46 400.379Z" fill="#47CE92"/>
<path d="M492.473 399.182C492.473 399.182 490.296 398.42 488.01 399.073C485.724 399.726 483.873 401.141 483.873 401.141C483.873 401.141 486.377 402.23 488.663 401.577C490.949 401.032 492.473 399.182 492.473 399.182Z" fill="#47CE92"/>
<path d="M491.058 405.387C491.058 405.387 488.99 404.407 486.595 404.951C484.309 405.387 482.35 406.584 482.35 406.584C482.35 406.584 484.744 407.999 487.139 407.455C489.425 407.02 491.058 405.387 491.058 405.387Z" fill="#47CE92"/>
<path d="M480.5 405.822C480.5 405.822 480.5 403.536 479.193 401.577C477.887 399.617 475.928 398.311 475.928 398.311C475.928 398.311 475.71 401.141 477.016 402.992C478.323 404.951 480.5 405.822 480.5 405.822Z" fill="#47CE92"/>
<path d="M495.74 384.922C485.834 391.344 479.303 408.761 479.303 414.313" stroke="#5F9E86" stroke-miterlimit="10"/>
<path d="M462.212 360.537C462.212 360.537 464.389 357.38 464.607 353.353C464.824 349.325 464.933 345.08 464.933 345.08C464.933 345.08 460.688 349.107 460.47 353.135C460.252 357.163 462.212 360.537 462.212 360.537Z" fill="#B5C6EA"/>
<path d="M460.034 369.899C460.034 369.899 459.381 365.98 456.659 363.15C453.938 360.32 450.672 358.796 450.672 358.796C450.672 358.796 451.107 363.585 453.829 366.416C456.441 369.246 460.034 369.899 460.034 369.899Z" fill="#B5C6EA"/>
<path d="M470.485 357.163C470.485 357.163 467.219 359.013 465.586 362.606C463.844 366.198 463.518 370.117 463.518 370.117C463.518 370.117 467.545 368.266 469.287 364.674C470.92 361.082 470.485 357.163 470.485 357.163Z" fill="#B5C6EA"/>
<path d="M462.103 381.656C462.103 381.656 460.252 378.172 456.986 376.431C453.721 374.689 450.02 374.471 450.02 374.471C450.02 374.471 451.87 378.825 455.245 380.567C458.51 382.309 462.103 381.656 462.103 381.656Z" fill="#B5C6EA"/>
<path d="M473.098 370.117C473.098 370.117 469.723 371.423 467.546 374.798C465.369 378.063 464.498 381.982 464.498 381.982C464.498 381.982 468.743 380.785 470.921 377.41C473.098 374.145 473.098 370.117 473.098 370.117Z" fill="#B5C6EA"/>
<path d="M464.498 393.195C464.498 393.195 462.648 389.82 459.164 388.187C455.79 386.554 452.197 386.446 452.197 386.446C452.197 386.446 454.157 390.8 457.531 392.433C460.906 393.957 464.498 393.195 464.498 393.195Z" fill="#B5C6EA"/>
<path d="M474.293 379.696C474.293 379.696 471.028 381.438 469.286 385.03C467.544 388.514 467 392.542 467 392.542C467 392.542 471.137 390.8 472.878 387.316C474.729 383.724 474.293 379.696 474.293 379.696Z" fill="#B5C6EA"/>
<path d="M462.211 358.142C458.401 378.063 470.158 407.346 476.254 414.095" stroke="#9FB3D6" stroke-miterlimit="10"/>
<path d="M62.7032 408.653C73.8255 408.653 82.8419 407.678 82.8419 406.475C82.8419 405.273 73.8255 404.298 62.7032 404.298C51.5809 404.298 42.5645 405.273 42.5645 406.475C42.5645 407.678 51.5809 408.653 62.7032 408.653Z" fill="#D1DDEE"/>
<path d="M79.6855 378.608C79.6855 378.608 81.9716 378.281 83.7133 376.757C85.455 375.233 87.1967 373.491 87.1967 373.491C87.1967 373.491 83.6044 373.274 81.8627 374.798C80.2298 376.431 79.6855 378.608 79.6855 378.608Z" fill="#47CE92"/>
<path d="M74.8971 381.547C74.8971 381.547 76.2034 379.587 76.0945 377.301C75.9856 374.907 75.1148 372.838 75.1148 372.838C75.1148 372.838 73.373 375.015 73.373 377.41C73.4819 379.696 74.8971 381.547 74.8971 381.547Z" fill="#47CE92"/>
<path d="M84.8015 381.003C84.8015 381.003 82.6243 380.349 80.3383 381.003C78.0523 381.765 76.3105 383.18 76.3105 383.18C76.3105 383.18 78.9231 384.268 81.1003 383.506C83.3863 382.853 84.8015 381.003 84.8015 381.003Z" fill="#47CE92"/>
<path d="M71.0858 387.316C71.0858 387.316 71.6301 385.03 70.8681 382.853C69.9973 380.676 68.5821 378.934 68.5821 378.934C68.5821 378.934 67.6024 381.547 68.3644 383.724C69.1264 386.01 71.0858 387.316 71.0858 387.316Z" fill="#47CE92"/>
<path d="M80.6662 387.534C80.6662 387.534 78.5979 386.554 76.3119 386.99C74.0259 387.425 72.0664 388.623 72.0664 388.623C72.0664 388.623 74.4613 390.038 76.7473 389.602C79.0333 389.167 80.6662 387.534 80.6662 387.534Z" fill="#47CE92"/>
<path d="M67.3858 393.195C67.3858 393.195 67.9301 390.909 67.0593 388.732C66.1884 386.554 64.6644 384.922 64.6644 384.922C64.6644 384.922 63.7935 387.534 64.6644 389.711C65.4264 391.888 67.3858 393.195 67.3858 393.195Z" fill="#47CE92"/>
<path d="M77.3991 391.997C77.3991 391.997 75.222 391.235 72.9359 391.888C70.6499 392.542 68.9082 393.957 68.9082 393.957C68.9082 393.957 71.4119 395.045 73.6979 394.392C75.8751 393.848 77.3991 391.997 77.3991 391.997Z" fill="#47CE92"/>
<path d="M75.984 398.202C75.984 398.202 73.8069 397.222 71.5208 397.767C69.2348 398.202 67.2754 399.4 67.2754 399.4C67.2754 399.4 69.6703 400.815 71.9563 400.271C74.3512 399.835 75.984 398.202 75.984 398.202Z" fill="#47CE92"/>
<path d="M65.4255 398.638C65.4255 398.638 65.4255 396.352 64.1192 394.392C62.8129 392.433 60.8535 391.126 60.8535 391.126C60.8535 391.126 60.6357 393.957 61.942 395.807C63.2483 397.767 65.4255 398.638 65.4255 398.638Z" fill="#47CE92"/>
<path d="M80.6661 377.628C70.76 384.051 64.2285 401.468 64.2285 407.02" stroke="#5F9E86" stroke-miterlimit="10"/>
<path d="M47.0296 353.353C47.0296 353.353 49.2067 350.196 49.4244 346.168C49.6421 342.14 49.751 337.895 49.751 337.895C49.751 337.895 45.5055 341.923 45.2878 345.95C45.179 349.978 47.0296 353.353 47.0296 353.353Z" fill="#B5C6EA"/>
<path d="M44.9594 362.715C44.9594 362.715 44.3063 358.796 41.5848 355.965C38.8634 353.135 35.5977 351.611 35.5977 351.611C35.5977 351.611 36.0331 356.401 38.7545 359.231C41.3671 362.061 44.9594 362.715 44.9594 362.715Z" fill="#B5C6EA"/>
<path d="M55.4103 349.978C55.4103 349.978 52.1445 351.829 50.5117 355.421C48.7699 359.013 48.4434 362.932 48.4434 362.932C48.4434 362.932 52.4711 361.082 54.2128 357.489C55.8457 353.897 55.4103 349.978 55.4103 349.978Z" fill="#B5C6EA"/>
<path d="M47.0285 374.471C47.0285 374.471 45.178 370.988 41.9122 369.246C38.6465 367.504 34.9453 367.287 34.9453 367.287C34.9453 367.287 36.7959 371.641 40.1705 373.383C43.4362 375.124 47.0285 374.471 47.0285 374.471Z" fill="#B5C6EA"/>
<path d="M58.0236 362.932C58.0236 362.932 54.649 364.239 52.4718 367.613C50.2947 370.879 49.4238 374.798 49.4238 374.798C49.4238 374.798 53.6693 373.6 55.8464 370.226C58.0236 366.96 58.0236 362.932 58.0236 362.932Z" fill="#B5C6EA"/>
<path d="M49.424 386.01C49.424 386.01 47.5734 382.635 44.09 381.003C40.7154 379.37 37.123 379.261 37.123 379.261C37.123 379.261 39.0825 383.615 42.4571 385.248C45.8317 386.772 49.424 386.01 49.424 386.01Z" fill="#B5C6EA"/>
<path d="M59.2193 372.512C59.2193 372.512 55.9535 374.253 54.2118 377.846C52.4701 381.329 51.9258 385.357 51.9258 385.357C51.9258 385.357 56.0624 383.615 57.8041 380.132C59.6547 376.539 59.2193 372.512 59.2193 372.512Z" fill="#B5C6EA"/>
<path d="M47.1368 350.958C43.3267 370.879 55.0834 400.162 61.1794 406.911" stroke="#9FB3D6" stroke-miterlimit="10"/>
<path d="M215.323 396.243C280.674 396.243 333.651 389.858 333.651 381.982C333.651 374.107 280.674 367.722 215.323 367.722C149.972 367.722 96.9941 374.107 96.9941 381.982C96.9941 389.858 149.972 396.243 215.323 396.243Z" fill="#D1DDEE"/>
<g opacity="0.5">
<path opacity="0.5" d="M21.4457 148.373C18.0711 129.432 25.5823 117.349 33.9644 113.648C42.3464 109.946 57.1511 107.334 68.69 120.615C86.9781 141.624 102.763 195.291 110.383 201.169C122.901 210.858 163.179 235.895 183.971 263.654C206.178 298.815 234.807 372.294 171.452 384.486C92.3122 399.726 83.9301 342.794 79.7935 326.138C75.8747 310.463 79.7935 266.375 72.8266 238.617C69.1255 223.921 25.5823 171.995 21.4457 148.373Z" fill="#E4EAF4"/>
<path opacity="0.5" d="M183.643 262.239C205.85 297.4 234.48 370.879 171.124 383.071L33.6367 112.124C33.6367 112.124 56.8235 105.81 68.3624 119.091C86.6505 140.1 102.435 193.767 110.055 199.645C122.574 209.443 162.851 234.48 183.643 262.239Z" fill="#8AA8D3" fill-opacity="0.5"/>
<path opacity="0.5" d="M33.5293 112.341L171.779 380.132" stroke="#203342" stroke-opacity="0.1" stroke-width="2"/>
<path opacity="0.5" d="M66.8398 213.035C71.7384 219.566 82.6242 221.744 87.5228 219.566M85.89 170.036C86.9786 174.39 89.7 192.352 77.7256 197.795L85.89 170.036Z" stroke="#203342" stroke-opacity="0.1" stroke-width="2"/>
<path opacity="0.5" d="M39.0801 169.492C43.9787 176.023 58.1302 175.479 63.0288 173.302M55.9531 128.126C57.0416 132.48 65.206 146.087 53.2316 151.53L55.9531 128.126Z" stroke="#203342" stroke-opacity="0.1" stroke-width="2"/>
<path opacity="0.5" d="M104.395 249.502C118.546 246.237 117.24 228.493 116.913 223.376" stroke="#203342" stroke-opacity="0.1" stroke-width="2"/>
<path opacity="0.5" d="M131.066 303.387C152.293 301.21 156.974 253.53 156.648 248.414M115.826 273.451C108.859 273.886 94.0543 273.451 85.3457 262.565L115.826 273.451Z" stroke="#203342" stroke-opacity="0.1" stroke-width="2"/>
<path opacity="0.5" d="M161 357.816C188.759 354.55 189.086 306.87 188.759 301.754M145.76 333.323C138.793 333.758 107.116 333.323 95.6855 309.374L145.76 333.323Z" stroke="#203342" stroke-opacity="0.1" stroke-width="2"/>
<path opacity="0.5" d="M231.543 200.19C245.259 287.385 231.107 361.735 219.786 363.476C208.465 365.218 146.633 324.832 132.917 237.637C119.201 150.442 158.826 49.5303 170.147 47.6798C185.713 45.3937 217.827 112.994 231.543 200.19Z" fill="#D1F2E4"/>
<path opacity="0.5" d="M220.438 363.585C231.759 361.844 245.911 287.385 232.195 200.299C218.479 113.103 186.366 45.5026 170.799 47.8975L220.438 363.585Z" fill="#89CFB0" fill-opacity="0.5"/>
<path opacity="0.5" d="M171.887 47.3532L223.05 357.598" stroke="#649D84" stroke-opacity="0.3" stroke-width="2"/>
<path opacity="0.5" d="M145 112.45L186.584 140.644" stroke="#649D84" stroke-opacity="0.3" stroke-width="2"/>
<path opacity="0.5" d="M186.582 140.1L205.197 110.382" stroke="#649D84" stroke-opacity="0.3" stroke-width="2"/>
<path opacity="0.5" d="M195.836 196.706L137.924 170.036" stroke="#649D84" stroke-opacity="0.3" stroke-width="2"/>
<path opacity="0.5" d="M195.836 196.706L218.261 169.165" stroke="#649D84" stroke-opacity="0.3" stroke-width="2"/>
<path opacity="0.5" d="M204.545 250.047L137.924 221.199" stroke="#649D84" stroke-opacity="0.3" stroke-width="2"/>
<path opacity="0.5" d="M204.545 250.047L230.235 208.354" stroke="#649D84" stroke-opacity="0.3" stroke-width="2"/>
<path opacity="0.5" d="M215.106 305.455L156.322 284.772" stroke="#649D84" stroke-opacity="0.3" stroke-width="2"/>
<path opacity="0.5" d="M373.383 222.832C343.338 291.413 295.114 336.371 284.228 331.581C273.343 326.791 238.617 265.722 268.662 197.142C298.706 128.452 382.2 78.2688 392.977 83.0586C407.891 89.59 403.428 154.143 373.383 222.832Z" fill="#E8F8F1"/>
<path opacity="0.5" d="M284.01 332.017C294.896 336.806 343.12 291.848 373.164 223.268C403.209 154.687 407.563 90.0255 392.759 83.494L284.01 332.017Z" fill="#D6F0E4"/>
<path opacity="0.5" d="M392.544 85.78L277.154 336.589" stroke="#649D84" stroke-opacity="0.2" stroke-width="2"/>
<path opacity="0.5" d="M338.875 117.784L357.272 160.674" stroke="#649D84" stroke-opacity="0.2" stroke-width="2"/>
<path opacity="0.5" d="M357.598 160.348L386.989 149.135" stroke="#649D84" stroke-opacity="0.2" stroke-width="2"/>
<path opacity="0.5" d="M336.481 206.068L304.586 155.34" stroke="#649D84" stroke-opacity="0.2" stroke-width="2"/>
<path opacity="0.5" d="M336.48 206.068L367.832 198.448" stroke="#649D84" stroke-opacity="0.2" stroke-width="2"/>
<path opacity="0.5" d="M316.56 249.176L279.004 192.134" stroke="#649D84" stroke-opacity="0.2" stroke-width="2"/>
<path opacity="0.5" d="M316.561 249.176L357.491 233.174" stroke="#649D84" stroke-opacity="0.2" stroke-width="2"/>
<path opacity="0.5" d="M296.856 294.896L261.26 247.978" stroke="#649D84" stroke-opacity="0.2" stroke-width="2"/>
<path opacity="0.5" d="M210.86 138.032C214.561 122.247 224.467 115.389 232.196 115.281C239.925 115.172 252.335 118.22 256.798 132.371C263.873 154.796 258.213 201.823 262.132 208.898C268.554 220.655 291.415 253.53 298.273 282.16C303.715 316.885 301.212 383.506 247.98 371.75C181.468 357.054 194.096 310.027 196.382 295.658C198.559 282.16 216.411 249.285 220.33 225.445C222.507 212.599 206.179 157.735 210.86 138.032Z" fill="#DFE7F3"/>
<path opacity="0.5" d="M297.292 281.942C302.734 316.668 300.231 383.289 246.999 371.532L231.215 115.172C238.944 115.063 251.354 118.111 255.817 132.262C262.892 154.687 257.232 201.714 261.151 208.789C267.573 220.437 290.434 253.421 297.292 281.942Z" fill="#86C1E2" fill-opacity="0.5"/>
<path opacity="0.5" d="M231.979 114.954L247.545 370.552" stroke="#203342" stroke-opacity="0.1" stroke-width="2"/>
<path opacity="0.5" d="M223.158 204.653C224.682 211.402 232.411 216.845 236.983 216.845" stroke="#203342" stroke-opacity="0.1" stroke-width="2"/>
<path opacity="0.5" d="M216.52 161.219C218.044 167.968 229.256 172.431 233.828 172.431M243.843 134.875C243.19 138.685 244.823 151.966 233.719 152.183L243.843 134.875Z" stroke="#203342" stroke-opacity="0.1" stroke-width="2"/>
<path opacity="0.5" d="M239.814 245.91C251.898 248.196 257.014 233.936 258.538 229.908" stroke="#203342" stroke-opacity="0.1" stroke-width="2"/>
<path opacity="0.5" d="M242.101 296.856C259.3 302.407 279.439 267.028 280.854 262.892M240.468 268.444C234.916 266.375 223.595 260.932 220.547 249.502L240.468 268.444Z" stroke="#203342" stroke-opacity="0.1" stroke-width="2"/>
<path opacity="0.5" d="M246.674 349.543C269.425 356.51 286.08 319.607 287.495 315.47M243.19 325.267C237.638 323.199 213.145 311.987 212.492 289.453L243.19 325.267Z" stroke="#203342" stroke-opacity="0.1" stroke-width="2"/>
</g>
<path d="M390.256 429.662H169.928C169.057 429.662 165.791 427.812 165.791 425.526C165.791 423.239 169.057 421.389 169.928 421.389H390.256C391.127 421.389 394.719 423.239 394.719 425.526C394.61 427.812 391.018 429.662 390.256 429.662Z" fill="white"/>
<path d="M390.256 429.662H169.928C169.057 429.662 165.791 427.812 165.791 425.526C165.791 423.239 169.057 421.389 169.928 421.389H390.256C391.127 421.389 394.719 423.239 394.719 425.526C394.61 427.812 391.018 429.662 390.256 429.662Z" fill="#C3D0E0"/>
<path d="M356.075 402.012L347.911 397.767L343.992 405.387L347.693 407.237L346.278 409.959C345.298 411.918 346.061 414.422 348.02 415.511L349.979 416.49L353.245 410.177L356.511 403.754C356.946 403.101 356.729 402.339 356.075 402.012Z" fill="#3454A7"/>
<path d="M350.436 416.765L357.578 402.81L356.221 402.116L349.08 416.07L350.436 416.765Z" fill="white"/>
<path d="M344.754 406.475L345.516 404.734" stroke="white" stroke-width="0.75" stroke-miterlimit="10" stroke-linecap="round" stroke-linejoin="round"/>
<path d="M345.734 407.129L346.496 405.278" stroke="white" stroke-width="0.75" stroke-miterlimit="10" stroke-linecap="round" stroke-linejoin="round"/>
<path d="M346.822 407.673L347.584 405.931" stroke="white" stroke-width="0.75" stroke-miterlimit="10" stroke-linecap="round" stroke-linejoin="round"/>
<path d="M353.246 403.427C353.246 404.407 352.484 405.278 351.395 405.278C350.307 405.278 349.545 404.516 349.545 403.427C349.545 402.448 350.307 401.577 351.395 401.577C352.484 401.577 353.246 402.448 353.246 403.427Z" fill="white"/>
<path d="M379.915 349.434L375.887 345.08C375.343 344.535 374.581 344.535 374.036 344.971L367.287 351.176L373.057 357.489L376.105 354.659L377.846 356.618C379.37 358.251 381.983 358.36 383.616 356.836L385.249 355.312L379.915 349.434Z" fill="#3454A7"/>
<path d="M385.603 355.066L375.32 343.817L374.195 344.846L384.478 356.094L385.603 355.066Z" fill="white"/>
<path d="M374.254 357.163L372.947 355.856" stroke="white" stroke-width="0.75" stroke-miterlimit="10" stroke-linecap="round" stroke-linejoin="round"/>
<path d="M375.234 356.401L373.818 355.094" stroke="white" stroke-width="0.75" stroke-miterlimit="10" stroke-linecap="round" stroke-linejoin="round"/>
<path d="M376.214 355.639L374.799 354.224" stroke="white" stroke-width="0.75" stroke-miterlimit="10" stroke-linecap="round" stroke-linejoin="round"/>
<path d="M375.451 350.196C375.451 351.176 374.689 352.046 373.601 352.046C372.512 352.046 371.75 351.284 371.75 350.196C371.75 349.216 372.512 348.345 373.601 348.345C374.689 348.345 375.451 349.216 375.451 350.196Z" fill="white"/>
<path d="M333.542 373.274C336.155 380.023 344.754 382.091 350.197 377.193L373.928 358.251L365.873 349.652L348.673 361.844L343.992 337.024C342.904 331.146 342.36 325.267 339.203 320.151L333.869 312.966L311.444 315.252L307.416 313.728L305.13 340.943L302.626 366.089C301.973 372.294 304.586 378.39 309.376 382.309L343.339 407.673L348.782 397.114L320.37 371.423L325.813 352.7L333.542 373.274Z" fill="#712A3E"/>
<path d="M317.432 326.465L323.963 358.251L325.596 352.591L317.432 326.465Z" fill="#3A131F"/>
<path d="M348.564 361.844L348.891 364.021L354.334 357.707L348.564 361.844Z" fill="#3A131F"/>
<path d="M377.303 319.933C377.412 319.825 377.521 319.607 377.521 319.498C377.521 319.063 377.303 318.736 376.867 318.627H376.541C376.759 318.518 376.867 318.409 376.976 318.192C377.085 317.865 376.759 317.43 376.432 317.43L375.343 317.212C375.234 317.212 375.235 317.103 375.126 317.103C374.364 316.668 369.574 315.361 366.961 315.144C366.961 315.144 354.878 300.121 354.334 299.795L343.448 288.038L337.025 298.597L346.061 307.415C346.387 308.068 365.437 323.09 365.437 323.09L365.546 323.199L366.09 323.635C366.199 323.635 366.199 323.743 366.308 323.743C366.852 324.288 368.159 325.376 369.9 326.247C371.642 327.118 370.88 324.941 370.336 323.743L375.452 323.09L376.541 323.199C376.976 323.199 377.303 322.981 377.412 322.546C377.412 322.219 377.194 321.893 376.976 321.784H377.085H377.194C377.629 321.784 377.956 321.566 378.065 321.131C377.956 320.26 377.629 319.933 377.303 319.933Z" fill="#FFDCCE"/>
<path d="M287.168 267.137L281.181 249.502C281.29 249.176 281.508 248.74 281.943 248.305C283.141 246.999 282.705 245.366 282.705 245.366C283.25 244.495 284.012 243.624 284.556 242.753C284.665 242.644 284.665 242.535 284.665 242.427C284.665 242.318 284.556 242.209 284.447 242.1C283.794 241.665 283.032 241.773 282.488 242.209C282.161 242.427 281.943 242.753 281.617 243.08C281.508 243.189 281.072 243.624 280.964 243.951L281.943 237.637C282.052 237.093 281.617 236.548 281.072 236.439C280.855 236.439 280.528 236.439 280.31 236.657C280.202 236.766 280.093 236.875 279.984 237.093V236.984C275.629 235.242 274.541 245.039 274.541 245.039L274.105 249.611L275.847 270.076V270.185C275.847 272.254 277.045 274.322 279.004 275.302L288.475 280.962L293.482 270.512L287.168 267.137Z" fill="#FFDCCE"/>
<path d="M333.869 277.043C331.8 274.975 329.079 273.886 326.249 273.886H324.834C324.507 273.886 324.18 273.886 323.854 273.886H323.636H322.765V273.995L322.112 274.104L311.771 275.084C310.464 275.193 309.267 275.41 308.287 275.846L293.7 270.512L288.693 280.962L288.148 282.16L304.695 292.828C305.457 301.972 306.654 316.232 306.763 318.736C306.763 319.607 335.393 315.579 335.393 315.252C334.74 308.721 333.216 299.686 332.454 295.223L336.481 299.033L336.917 298.271L343.339 287.711L343.993 286.514L333.869 277.043Z" fill="#FFB380"/>
<path opacity="0.46" d="M298.381 288.8L306.219 291.086L305.674 305.02L304.695 292.828L298.381 288.8Z" fill="#FF8B2E"/>
<path opacity="0.46" d="M332.346 295.223L329.842 290.215V295.331L334.087 305.564L332.346 295.223Z" fill="#FF8B2E"/>
<path d="M334.304 262.021C333.106 261.477 331.691 260.824 329.84 260.17L325.486 253.966C326.357 253.639 327.119 253.095 327.772 252.441C329.732 250.373 329.949 247.434 328.316 245.801C326.684 244.277 323.744 244.604 321.785 246.672C321.349 247.107 321.023 247.543 320.805 247.978C319.172 246.672 316.777 245.801 313.294 245.801C304.803 245.801 303.823 254.401 303.823 254.401C303.823 254.401 305.021 254.728 306.545 254.945C307.089 255.054 307.633 255.054 308.178 255.054L305.13 261.15C302.517 262.565 300.775 263.654 299.578 264.634C298.489 265.613 298.925 267.246 300.231 267.79C301.102 268.117 302.19 268.77 302.952 270.294C304.803 273.451 311.552 274.431 317.539 272.145L317.431 272.362C324.071 274.54 331.691 272.58 333.215 268.879C333.65 267.79 334.195 267.028 334.848 266.593C336.263 265.178 336.045 262.892 334.304 262.021Z" fill="#1C3472"/>
<path d="M322.874 259.517V259.735C321.35 260.606 319.391 259.953 318.738 258.429C318.738 258.32 318.629 258.102 318.629 257.993C311.009 256.796 311.771 253.095 311.771 253.095C311.118 255.054 308.505 255.163 306.437 254.945L305.239 262.021C304.477 266.375 307.417 270.512 311.771 271.274C311.989 271.274 312.097 271.274 312.315 271.383L312.206 276.499C312.097 278.785 313.948 280.636 316.125 280.745C318.411 280.853 320.262 279.003 320.371 276.826L320.697 266.266C320.806 265.831 320.915 265.504 321.024 265.069L321.568 265.178C323.092 265.396 324.616 264.416 324.834 262.892C324.943 261.368 324.181 259.953 322.874 259.517Z" fill="#FFDCCE"/>
<path opacity="0.46" d="M311.335 270.621C307.307 269.968 304.477 266.049 305.239 262.021L306.436 254.836L305.13 262.13C304.368 266.484 307.307 270.621 311.662 271.383C311.879 271.383 311.988 271.383 312.206 271.492L312.097 276.281L318.411 269.532C319.717 268.444 320.588 266.811 320.914 265.069L319.935 264.851C319.064 268.661 315.363 271.274 311.335 270.621Z" fill="#FF8B2E"/>
<path d="M322.765 261.259L321.785 262.674L322.656 263.218" stroke="#C6A58F" stroke-miterlimit="10" stroke-linecap="round"/>
<path d="M315.363 259.3C315.146 259.3 314.928 259.191 314.71 259.082C314.492 258.973 314.275 258.864 314.057 258.755C313.839 258.646 313.622 258.538 313.404 258.538C313.186 258.429 312.968 258.32 312.751 258.211C312.642 258.102 312.642 257.776 312.968 257.667C313.295 257.449 313.948 257.449 314.601 257.667C315.254 257.993 315.69 258.429 315.69 258.755C315.799 259.082 315.581 259.3 315.363 259.3Z" fill="#1C3472"/>
<path d="M307.198 257.558C307.416 257.667 307.525 257.558 307.742 257.558C307.96 257.558 308.178 257.558 308.287 257.449C308.504 257.449 308.722 257.449 308.831 257.449C309.049 257.449 309.266 257.449 309.375 257.34C309.484 257.231 309.593 257.122 309.375 256.905C309.158 256.687 308.722 256.469 308.178 256.578C307.634 256.578 307.198 256.905 306.98 257.122C306.98 257.34 307.089 257.449 307.198 257.558Z" fill="#1C3472"/>
<path d="M237.637 418.341L232.63 415.946L234.481 412.136L225.228 407.564L221.091 416.055C220.764 416.708 221.091 417.47 221.744 417.797L229.908 421.715L239.706 426.505L240.141 425.526C241.447 422.913 240.25 419.647 237.637 418.341Z" fill="#FF7F14"/>
<path d="M240.055 425.579L220.98 416.265L220.312 417.634L239.387 426.949L240.055 425.579Z" fill="#EAEAEA"/>
<path d="M233.065 416.381C232.847 416.381 232.847 416.055 232.956 415.946C233.609 415.402 235.025 414.531 235.351 415.619C235.569 416.708 233.936 416.599 233.065 416.381Z" stroke="#EAEAEA" stroke-width="0.75" stroke-miterlimit="10" stroke-linecap="round" stroke-linejoin="round"/>
<path d="M230.236 414.531C230.889 413.333 232.196 414.966 232.74 415.837C232.849 415.946 232.74 416.164 232.631 416.273C232.522 416.273 232.522 416.381 232.413 416.273C231.543 416.164 229.583 415.728 230.236 414.531Z" stroke="#EAEAEA" stroke-width="0.75" stroke-miterlimit="10" stroke-linecap="round" stroke-linejoin="round"/>
<path d="M232.738 416.381C232.738 416.381 232.194 418.014 230.67 418.123" stroke="#EAEAEA" stroke-width="0.75" stroke-miterlimit="10" stroke-linecap="round" stroke-linejoin="round"/>
<path d="M227.732 414.64C227.296 415.619 226.099 415.946 225.228 415.511C224.248 415.075 223.922 413.878 224.357 413.007C224.793 412.027 225.99 411.701 226.861 412.136C227.841 412.571 228.167 413.769 227.732 414.64Z" fill="#EAEAEA"/>
<path d="M173.627 355.748L164.266 354.006C163.504 353.897 162.851 354.332 162.742 355.094L161 363.912L158.932 374.689L160.02 374.907C162.959 375.451 165.79 373.491 166.334 370.661L167.314 365.218L171.559 365.98L173.627 355.748Z" fill="#FF7F14"/>
<path d="M160.188 374.816L164.164 353.965L162.667 353.679L158.691 374.531L160.188 374.816Z" fill="#EAEAEA"/>
<path d="M167.207 365.654C167.207 365.436 167.425 365.327 167.642 365.436C168.296 365.98 169.602 367.069 168.622 367.613C167.534 368.157 167.316 366.525 167.207 365.654Z" stroke="#EAEAEA" stroke-width="0.75" stroke-miterlimit="10" stroke-linecap="round" stroke-linejoin="round"/>
<path d="M168.186 362.497C169.492 362.823 168.295 364.456 167.642 365.218C167.533 365.327 167.315 365.327 167.206 365.218C167.097 365.218 167.097 365.109 167.097 365C166.989 364.13 166.88 362.17 168.186 362.497Z" stroke="#EAEAEA" stroke-width="0.75" stroke-miterlimit="10" stroke-linecap="round" stroke-linejoin="round"/>
<path d="M167.205 365.327C167.205 365.327 165.463 365.218 165.027 363.803" stroke="#EAEAEA" stroke-width="0.75" stroke-miterlimit="10" stroke-linecap="round" stroke-linejoin="round"/>
<path d="M170.362 358.796C170.362 359.993 169.382 360.973 168.185 360.973C166.988 360.973 166.008 359.993 166.008 358.796C166.008 357.598 166.988 356.618 168.185 356.618C169.382 356.618 170.362 357.598 170.362 358.796Z" fill="#EAEAEA"/>
<path d="M247.651 351.284L236.765 324.941L226.206 322.328L211.402 320.804L200.298 324.832L201.495 361.408L173.301 354.006C172.866 354.115 171.342 367.395 171.342 367.395L206.176 376.975C211.51 378.499 217.171 375.995 219.566 371.097C220.763 368.593 221.525 365.871 221.743 363.477L223.158 350.849L230.561 359.231C230.561 359.231 223.92 407.891 224.138 407.891C224.138 407.891 235.677 414.422 235.786 414.095L248.849 363.803C249.719 359.775 249.393 355.312 247.651 351.284Z" fill="#485D7B"/>
<path d="M225.01 333.214L226.099 354.332L223.051 351.284L225.01 333.214Z" fill="#1C3472"/>
<path d="M186.693 318.954C186.584 318.3 186.366 317.756 186.04 317.321C185.931 317.103 185.713 316.994 185.604 316.776C185.386 316.341 185.713 315.579 185.822 315.144C185.931 314.817 185.931 314.382 186.04 314.055H185.931L178.746 315.688C178.202 316.668 177.658 318.409 177.984 320.804L177.113 326.029C177.113 326.356 177.222 326.683 177.549 326.683H177.875C178.202 326.683 178.528 326.574 178.528 326.247L179.399 321.022L178.42 326.791C178.311 327.118 178.637 327.445 178.964 327.553L179.29 327.662C179.617 327.771 179.944 327.445 180.052 327.118L179.944 327.771C179.835 328.098 180.161 328.424 180.488 328.533L180.814 328.642C181.141 328.751 181.468 328.424 181.576 328.098L182.665 321.675L181.576 327.771C181.468 328.098 181.794 328.424 182.121 328.533L182.447 328.642C182.774 328.751 183.1 328.424 183.209 328.098L184.407 321.457C184.624 321.566 184.624 322.546 184.624 322.764C184.733 323.308 184.951 324.07 185.495 324.179C186.148 324.288 186.366 323.526 186.475 323.09C186.584 321.784 186.802 320.26 186.693 318.954Z" fill="#FFDCCE"/>
<path d="M272.253 249.176L264.089 247.107L263.001 246.89L253.53 265.94L236.875 268.879C235.024 267.682 232.847 266.92 230.561 266.702C228.057 266.484 225.445 266.266 222.941 266.049C218.913 265.722 214.015 264.416 210.096 265.722C207.592 266.593 205.197 268.008 202.802 269.097C201.06 269.968 199.21 270.838 197.468 271.709C193.549 273.56 189.63 275.519 185.711 277.37C185.058 277.696 184.405 278.023 183.752 278.35C182.337 279.003 181.357 280.309 181.139 281.942L176.676 314.055C176.567 315.252 177.547 316.123 178.636 315.906L185.82 314.273H185.929C186.473 314.164 186.8 313.728 187.018 313.184L192.896 290.868L202.802 287.385C201.605 297.509 199.645 318.627 199.21 324.288C199.101 325.05 199.754 325.703 200.516 325.703L236.984 325.812C237.746 325.812 238.399 325.267 238.508 324.505L242.426 286.949L260.388 278.023C262.892 277.37 264.633 275.302 265.178 272.907V272.798L272.798 249.611L272.253 249.176Z" fill="#FFB4BB"/>
<path d="M272.798 244.495C272.798 244.495 273.887 233.174 268.661 234.044C268.661 234.044 268.661 234.045 268.661 234.153C268.661 233.936 268.553 233.827 268.444 233.609C268.226 233.391 268.008 233.282 267.682 233.174C267.029 233.174 266.484 233.609 266.484 234.262L266.049 241.665C266.049 241.338 265.613 240.794 265.613 240.576C265.396 240.141 265.178 239.705 264.851 239.379C264.307 238.725 263.436 238.399 262.674 238.834C262.565 238.943 262.348 238.943 262.348 239.161C262.348 239.27 262.348 239.379 262.348 239.487C262.783 240.685 263.327 241.773 263.763 242.862C263.763 242.862 263.001 244.604 263.981 246.345C264.089 246.563 264.198 246.781 264.307 246.999L272.471 249.067L272.798 244.495Z" fill="#FFDCCE"/>
<path d="M253.53 265.94L255.707 269.968L251.57 266.266L253.53 265.94Z" fill="#DD979F"/>
<path d="M242.427 286.623L239.488 284.663L240.903 300.992L242.427 286.623Z" fill="#DD979F"/>
<path d="M202.911 287.058L205.524 285.643L201.496 300.774L202.911 287.058Z" fill="#DD979F"/>
<path d="M244.386 243.08C243.841 242.209 242.644 241.773 241.555 241.991C242.535 239.923 242.753 237.746 241.664 235.895C239.814 232.52 234.588 231.867 230.125 234.48C228.166 235.568 226.751 237.092 225.771 238.725C225.553 238.943 225.227 239.052 225.009 239.27C224.138 238.616 222.614 238.616 221.417 239.378C219.893 240.358 219.239 242.1 220.001 243.297L220.11 243.406C219.022 244.495 218.913 246.345 219.784 247.761C220.328 248.523 220.981 249.067 221.852 249.393C220.872 250.373 220.655 251.679 221.199 252.659C221.961 253.857 223.811 254.074 225.335 253.095C226.859 252.115 227.513 250.373 226.751 249.176C226.642 248.958 226.533 248.849 226.315 248.74C226.642 248.196 226.968 247.543 227.186 246.89C229.581 248.523 233.5 248.523 236.983 246.563C237.31 246.345 237.528 246.237 237.854 246.019C238.072 246.019 238.29 246.019 238.507 246.019C238.616 246.237 238.616 246.345 238.725 246.563C239.487 247.869 241.446 248.087 242.97 247.107C244.603 246.128 245.148 244.277 244.386 243.08Z" fill="#1C3472"/>
<path d="M228.167 243.951C228.167 243.951 226.643 251.135 223.921 250.591C223.703 250.591 222.833 249.176 222.615 248.849C221.526 249.176 220.655 250.047 220.547 251.353C220.438 252.877 221.526 254.292 223.05 254.401L223.703 254.51L223.486 257.558L222.506 269.097C222.397 270.947 223.703 272.471 225.554 272.689L228.82 273.016C230.67 273.124 232.194 271.818 232.412 269.968L232.956 263.654L233.61 263.763C236.549 263.98 239.052 261.912 239.379 258.973V258.646L240.468 246.345C240.032 246.237 239.488 246.128 238.835 246.128C235.134 246.019 228.493 246.128 228.167 243.951Z" fill="#FFDCCE"/>
<path d="M229.036 248.74C229.363 248.849 229.69 248.74 230.016 248.74C230.343 248.631 230.778 248.631 231.105 248.631C231.431 248.631 231.758 248.523 232.193 248.523C232.52 248.523 232.955 248.523 233.173 248.305C233.391 248.196 233.5 247.761 233.173 247.434C232.846 247.107 231.976 246.781 230.887 246.89C229.798 246.999 229.145 247.543 228.819 247.978C228.601 248.305 228.819 248.631 229.036 248.74Z" fill="#1C3472"/>
<path d="M239.271 248.087C239.053 248.196 238.726 248.196 238.509 248.196C238.182 248.196 237.964 248.196 237.638 248.196C237.42 248.196 237.093 248.196 236.767 248.305C236.44 248.305 236.223 248.414 236.005 248.305C235.787 248.196 235.678 247.978 235.896 247.652C236.114 247.325 236.767 246.999 237.529 246.89C238.4 246.89 238.944 247.107 239.271 247.434C239.597 247.761 239.488 247.978 239.271 248.087Z" fill="#1C3472"/>
<path d="M222.725 250.482L223.269 252.006L222.289 252.441" stroke="#C6A58F" stroke-miterlimit="10" stroke-linecap="round"/>
<path d="M274.43 219.675C274.43 219.675 277.369 225.989 275.192 231.105" stroke="#47CE92" stroke-miterlimit="10"/>
<path d="M269.096 225.336C269.096 225.336 272.47 229.364 272.144 231.867" stroke="#47CE92" stroke-miterlimit="10"/>
<path d="M282.485 227.295C282.485 227.295 278.349 230.452 278.131 232.956" stroke="#47CE92" stroke-miterlimit="10"/>
<path d="M311.66 170.58L309.701 168.621L272.145 200.516V206.177L274.104 208.136C274.431 208.463 274.866 208.463 275.084 208.136L311.66 171.56C311.878 171.233 311.878 170.798 311.66 170.58Z" fill="#267F55"/>
<path d="M305.239 165.137L274.541 195.835L262.675 183.97C262.349 183.643 261.913 183.643 261.696 183.97L256.253 189.413C255.926 189.739 255.926 190.175 256.253 190.392L272.146 206.286L309.702 168.73L306.219 165.246C305.892 164.811 305.457 164.811 305.239 165.137Z" fill="#47CE92"/>
</svg>
