<svg width="581" height="516" viewBox="0 0 581 516" fill="none" xmlns="http://www.w3.org/2000/svg">
<path d="M26.7217 441.091C-19.3097 417.108 70.819 395.06 121.621 387.066H380.661C415.861 387.066 580.001 403.699 580.001 441.091C580.001 478.484 522.365 501.048 475.56 512.266C428.626 523.484 380.661 493.57 345.46 489.83C310.26 486.091 268.741 516.005 238.827 512.266C208.913 508.527 181.191 495.117 160.948 467.395C140.704 439.415 84.2287 471.005 26.7217 441.091Z" fill="#E1E9F5" stroke="#E1E9F5"/>
<path d="M541.832 438.77C555.006 438.77 565.686 437.616 565.686 436.192C565.686 434.767 555.006 433.613 541.832 433.613C528.658 433.613 517.979 434.767 517.979 436.192C517.979 437.616 528.658 438.77 541.832 438.77Z" fill="#D1DDEE"/>
<path d="M561.949 402.023C561.949 402.023 564.657 401.636 566.72 399.831C568.783 398.025 570.846 395.962 570.846 395.962C570.846 395.962 566.591 395.704 564.528 397.51C562.594 399.315 561.949 402.023 561.949 402.023Z" fill="#47CE92"/>
<path d="M556.276 405.375C556.276 405.375 557.823 403.054 557.694 400.346C557.565 397.51 556.534 395.06 556.534 395.06C556.534 395.06 554.471 397.639 554.471 400.475C554.6 403.183 556.276 405.375 556.276 405.375Z" fill="#47CE92"/>
<path d="M568.137 404.73C568.137 404.73 565.559 403.957 562.851 404.73C560.143 405.633 558.08 407.309 558.08 407.309C558.08 407.309 561.175 408.598 563.753 407.696C566.332 406.922 568.137 404.73 568.137 404.73Z" fill="#47CE92"/>
<path d="M551.764 412.209C551.764 412.209 552.409 409.501 551.506 406.922C550.475 404.343 548.798 402.28 548.798 402.28C548.798 402.28 547.638 405.375 548.669 407.954C549.572 410.662 551.764 412.209 551.764 412.209Z" fill="#47CE92"/>
<path d="M563.108 412.467C563.108 412.467 560.658 411.306 557.951 411.822C555.243 412.338 552.922 413.756 552.922 413.756C552.922 413.756 555.759 415.432 558.595 414.916C561.174 414.401 563.108 412.467 563.108 412.467Z" fill="#47CE92"/>
<path d="M547.381 419.172C547.381 419.172 548.026 416.464 546.994 413.885C545.963 411.306 544.158 409.372 544.158 409.372C544.158 409.372 543.126 412.467 544.158 415.045C545.06 417.624 547.381 419.172 547.381 419.172Z" fill="#47CE92"/>
<path d="M559.241 417.753C559.241 417.753 556.662 416.851 553.954 417.624C551.247 418.398 549.055 420.074 549.055 420.074C549.055 420.074 552.02 421.363 554.728 420.59C557.436 419.945 559.241 417.753 559.241 417.753Z" fill="#47CE92"/>
<path d="M557.565 425.103C557.565 425.103 555.115 423.942 552.279 424.587C549.571 425.103 547.25 426.521 547.25 426.521C547.25 426.521 550.087 428.197 552.923 427.553C555.631 427.037 557.565 425.103 557.565 425.103Z" fill="#47CE92"/>
<path d="M545.059 425.618C545.059 425.618 545.059 422.911 543.511 420.59C541.964 418.269 539.643 416.722 539.643 416.722C539.643 416.722 539.385 420.074 540.932 422.266C542.48 424.587 545.059 425.618 545.059 425.618Z" fill="#47CE92"/>
<path d="M563.11 400.862C551.377 408.47 543.641 429.1 543.641 435.676" stroke="#5F9E86" stroke-miterlimit="10"/>
<path d="M523.396 371.98C523.396 371.98 525.974 368.24 526.232 363.47C526.49 358.699 526.619 353.67 526.619 353.67C526.619 353.67 521.59 358.441 521.333 363.212C521.075 367.983 523.396 371.98 523.396 371.98Z" fill="#B5C6EA"/>
<path d="M520.817 383.068C520.817 383.068 520.044 378.427 516.82 375.074C513.597 371.722 509.729 369.917 509.729 369.917C509.729 369.917 510.244 375.59 513.468 378.942C516.562 382.295 520.817 383.068 520.817 383.068Z" fill="#B5C6EA"/>
<path d="M533.196 367.983C533.196 367.983 529.327 370.175 527.393 374.43C525.33 378.685 524.943 383.326 524.943 383.326C524.943 383.326 529.714 381.134 531.777 376.879C533.711 372.624 533.196 367.983 533.196 367.983Z" fill="#B5C6EA"/>
<path d="M523.267 396.994C523.267 396.994 521.075 392.868 517.207 390.805C513.339 388.742 508.955 388.484 508.955 388.484C508.955 388.484 511.147 393.641 515.144 395.705C519.012 397.768 523.267 396.994 523.267 396.994Z" fill="#B5C6EA"/>
<path d="M536.292 383.326C536.292 383.326 532.295 384.874 529.716 388.871C527.137 392.739 526.105 397.381 526.105 397.381C526.105 397.381 531.134 395.962 533.713 391.965C536.292 388.097 536.292 383.326 536.292 383.326Z" fill="#B5C6EA"/>
<path d="M526.103 410.662C526.103 410.662 523.911 406.664 519.785 404.73C515.788 402.796 511.533 402.667 511.533 402.667C511.533 402.667 513.854 407.825 517.851 409.759C521.848 411.564 526.103 410.662 526.103 410.662Z" fill="#B5C6EA"/>
<path d="M537.707 394.673C537.707 394.673 533.839 396.736 531.776 400.991C529.713 405.117 529.068 409.888 529.068 409.888C529.068 409.888 533.968 407.825 536.031 403.699C538.223 399.444 537.707 394.673 537.707 394.673Z" fill="#B5C6EA"/>
<path d="M523.395 369.143C518.882 392.739 532.808 427.424 540.028 435.418" stroke="#9FB3D6" stroke-miterlimit="10"/>
<path d="M50.1878 428.971C63.3619 428.971 74.0416 427.816 74.0416 426.392C74.0416 424.968 63.3619 423.813 50.1878 423.813C37.0137 423.813 26.334 424.968 26.334 426.392C26.334 427.816 37.0137 428.971 50.1878 428.971Z" fill="#D1DDEE"/>
<path d="M70.3047 393.384C70.3047 393.384 73.0124 392.997 75.0755 391.192C77.1385 389.386 79.2015 387.323 79.2015 387.323C79.2015 387.323 74.9465 387.066 72.8835 388.871C70.9494 390.805 70.3047 393.384 70.3047 393.384Z" fill="#47CE92"/>
<path d="M64.6313 396.865C64.6313 396.865 66.1786 394.544 66.0497 391.836C65.9207 389 64.8892 386.55 64.8892 386.55C64.8892 386.55 62.8262 389.129 62.8262 391.965C62.9551 394.673 64.6313 396.865 64.6313 396.865Z" fill="#47CE92"/>
<path d="M76.3639 396.22C76.3639 396.22 73.7851 395.447 71.0774 396.22C68.3697 397.123 66.3066 398.799 66.3066 398.799C66.3066 398.799 69.4012 400.088 71.98 399.186C74.6877 398.412 76.3639 396.22 76.3639 396.22Z" fill="#47CE92"/>
<path d="M60.116 403.699C60.116 403.699 60.7607 400.991 59.8581 398.412C58.8266 395.833 57.1504 393.77 57.1504 393.77C57.1504 393.77 55.99 396.865 56.8925 399.444C57.7951 402.151 60.116 403.699 60.116 403.699Z" fill="#47CE92"/>
<path d="M71.4655 403.957C71.4655 403.957 69.0157 402.796 66.3079 403.312C63.6002 403.828 61.2793 405.246 61.2793 405.246C61.2793 405.246 64.116 406.922 66.8237 406.407C69.5314 405.891 71.4655 403.957 71.4655 403.957Z" fill="#47CE92"/>
<path d="M55.7366 410.662C55.7366 410.662 56.3813 407.954 55.3498 405.375C54.3183 402.796 52.5131 400.862 52.5131 400.862C52.5131 400.862 51.4816 403.957 52.5131 406.535C53.4157 409.114 55.7366 410.662 55.7366 410.662Z" fill="#47CE92"/>
<path d="M67.5944 409.243C67.5944 409.243 65.0156 408.341 62.3079 409.114C59.6001 409.888 57.5371 411.564 57.5371 411.564C57.5371 411.564 60.5027 412.853 63.2104 412.08C65.7892 411.435 67.5944 409.243 67.5944 409.243Z" fill="#47CE92"/>
<path d="M65.9206 416.593C65.9206 416.593 63.3418 415.432 60.6341 416.077C57.9264 416.593 55.6055 418.011 55.6055 418.011C55.6055 418.011 58.4421 419.687 61.1499 419.043C63.9865 418.527 65.9206 416.593 65.9206 416.593Z" fill="#47CE92"/>
<path d="M53.414 417.108C53.414 417.108 53.414 414.401 51.8667 412.08C50.3195 409.759 47.9985 408.212 47.9985 408.212C47.9985 408.212 47.7407 411.564 49.2879 413.756C50.8352 416.077 53.414 417.108 53.414 417.108Z" fill="#47CE92"/>
<path d="M71.466 392.223C59.7325 399.831 51.9961 420.461 51.9961 427.037" stroke="#5F9E86" stroke-miterlimit="10"/>
<path d="M31.6232 363.47C31.6232 363.47 34.202 359.73 34.4599 354.96C34.7177 350.189 34.8467 345.16 34.8467 345.16C34.8467 345.16 29.818 349.931 29.5602 354.702C29.4312 359.473 31.6232 363.47 31.6232 363.47Z" fill="#B5C6EA"/>
<path d="M29.1728 374.558C29.1728 374.558 28.3991 369.917 25.1757 366.564C21.9522 363.212 18.084 361.407 18.084 361.407C18.084 361.407 18.5997 367.08 21.8232 370.432C24.9178 373.785 29.1728 374.558 29.1728 374.558Z" fill="#B5C6EA"/>
<path d="M41.551 359.473C41.551 359.473 37.6828 361.665 35.7487 365.92C33.6856 370.175 33.2988 374.816 33.2988 374.816C33.2988 374.816 38.0696 372.624 40.1326 368.369C42.0667 364.114 41.551 359.473 41.551 359.473Z" fill="#B5C6EA"/>
<path d="M31.6228 388.484C31.6228 388.484 29.4309 384.358 25.5627 382.295C21.6945 380.232 17.3105 379.974 17.3105 379.974C17.3105 379.974 19.5025 385.131 23.4996 387.195C27.3678 389.258 31.6228 388.484 31.6228 388.484Z" fill="#B5C6EA"/>
<path d="M44.6472 374.816C44.6472 374.816 40.65 376.364 38.0712 380.361C35.4925 384.229 34.4609 388.871 34.4609 388.871C34.4609 388.871 39.4896 387.452 42.0684 383.455C44.6472 379.587 44.6472 374.816 44.6472 374.816Z" fill="#B5C6EA"/>
<path d="M34.4588 402.152C34.4588 402.152 32.2669 398.154 28.1408 396.22C24.1437 394.286 19.8887 394.157 19.8887 394.157C19.8887 394.157 22.2096 399.315 26.2067 401.249C30.2038 403.054 34.4588 402.152 34.4588 402.152Z" fill="#B5C6EA"/>
<path d="M46.0628 386.163C46.0628 386.163 42.1946 388.226 40.1316 392.481C38.0685 396.607 37.4238 401.378 37.4238 401.378C37.4238 401.378 42.3235 399.315 44.3866 395.189C46.5785 390.934 46.0628 386.163 46.0628 386.163Z" fill="#B5C6EA"/>
<path d="M31.7506 360.633C27.2377 384.229 41.1632 418.914 48.3838 426.908" stroke="#9FB3D6" stroke-miterlimit="10"/>
<path d="M230.964 414.272C308.371 414.272 371.121 406.709 371.121 397.381C371.121 388.052 308.371 380.49 230.964 380.49C153.557 380.49 90.8066 388.052 90.8066 397.381C90.8066 406.709 153.557 414.272 230.964 414.272Z" fill="#D1DDEE"/>
<g opacity="0.5">
<path opacity="0.5" d="M1.32084 120.677C-2.67629 98.2411 6.22054 83.9288 16.1489 79.5449C26.0772 75.1609 43.613 72.0664 57.2806 87.797C78.9424 112.682 97.6386 176.249 106.664 183.212C121.492 194.688 169.2 224.344 193.827 257.223C220.131 298.871 254.042 385.905 178.999 400.346C85.2604 418.398 75.3321 350.962 70.4324 331.235C65.7906 312.667 70.4324 260.447 62.1803 227.567C57.7963 210.161 6.22054 148.656 1.32084 120.677Z" fill="#E4EAF4"/>
<path opacity="0.5" d="M193.44 255.547C219.744 297.195 253.655 384.229 178.612 398.67L15.7617 77.7397C15.7617 77.7397 43.2258 70.2612 56.8934 85.9918C78.5553 110.877 97.2515 174.444 106.277 181.407C121.105 193.012 168.813 222.668 193.44 255.547Z" fill="#8AA8D3" fill-opacity="0.5"/>
<path opacity="0.5" d="M15.6328 77.9976L179.386 395.189" stroke="#203342" stroke-opacity="0.1" stroke-width="2"/>
<path opacity="0.5" d="M55.0898 197.267C60.8921 205.003 73.7861 207.582 79.5883 205.003M77.6543 146.336C78.9437 151.493 82.1671 172.768 67.9838 179.215L77.6543 146.336Z" stroke="#203342" stroke-opacity="0.1" stroke-width="2"/>
<path opacity="0.5" d="M22.209 145.691C28.0113 153.427 44.7734 152.782 50.5757 150.204M42.1946 96.6938C43.484 101.851 53.1545 117.969 38.9711 124.416L42.1946 96.6938Z" stroke="#203342" stroke-opacity="0.1" stroke-width="2"/>
<path opacity="0.5" d="M99.5723 240.461C116.334 236.593 114.787 215.576 114.4 209.516" stroke="#203342" stroke-opacity="0.1" stroke-width="2"/>
<path opacity="0.5" d="M131.164 304.286C156.308 301.708 161.852 245.232 161.465 239.172M113.113 268.828C104.861 269.344 87.3249 268.828 77.0098 255.934L113.113 268.828Z" stroke="#203342" stroke-opacity="0.1" stroke-width="2"/>
<path opacity="0.5" d="M166.62 368.756C199.499 364.888 199.886 308.412 199.499 302.352M148.568 339.745C140.316 340.261 102.795 339.745 89.2559 311.378L148.568 339.745Z" stroke="#203342" stroke-opacity="0.1" stroke-width="2"/>
<path opacity="0.5" d="M250.175 182.052C266.421 285.332 249.659 373.398 236.249 375.461C222.839 377.524 149.602 329.687 133.355 226.407C117.109 123.126 164.043 3.5995 177.453 1.40753C195.891 -1.3002 233.928 78.7712 250.175 182.052Z" fill="#D1F2E4"/>
<path opacity="0.5" d="M237.023 375.59C250.433 373.527 267.195 285.332 250.948 182.181C234.702 78.9002 196.665 -1.17126 178.227 1.66541L237.023 375.59Z" fill="#89CFB0" fill-opacity="0.5"/>
<path opacity="0.5" d="M179.516 1.02071L240.117 368.498" stroke="#649D84" stroke-opacity="0.3" stroke-width="2"/>
<path opacity="0.5" d="M147.668 78.1265L196.923 111.522" stroke="#649D84" stroke-opacity="0.3" stroke-width="2"/>
<path opacity="0.5" d="M196.92 110.877L218.969 75.6767" stroke="#649D84" stroke-opacity="0.3" stroke-width="2"/>
<path opacity="0.5" d="M207.883 177.926L139.287 146.336" stroke="#649D84" stroke-opacity="0.3" stroke-width="2"/>
<path opacity="0.5" d="M207.883 177.926L234.444 145.304" stroke="#649D84" stroke-opacity="0.3" stroke-width="2"/>
<path opacity="0.5" d="M218.198 241.106L139.287 206.937" stroke="#649D84" stroke-opacity="0.3" stroke-width="2"/>
<path opacity="0.5" d="M218.195 241.106L248.625 191.722" stroke="#649D84" stroke-opacity="0.3" stroke-width="2"/>
<path opacity="0.5" d="M230.707 306.736L161.08 282.238" stroke="#649D84" stroke-opacity="0.3" stroke-width="2"/>
<path opacity="0.5" d="M418.183 208.871C382.596 290.103 325.475 343.355 312.582 337.682C299.688 332.008 258.556 259.673 294.143 178.441C329.73 97.0806 428.627 37.6395 441.392 43.3129C459.057 51.0492 453.77 127.51 418.183 208.871Z" fill="#E8F8F1"/>
<path opacity="0.5" d="M312.32 338.197C325.214 343.871 382.334 290.619 417.922 209.387C453.509 128.155 458.667 51.565 441.131 43.8286L312.32 338.197Z" fill="#D6F0E4"/>
<path opacity="0.5" d="M440.877 46.5363L304.201 343.613" stroke="#649D84" stroke-opacity="0.2" stroke-width="2"/>
<path opacity="0.5" d="M377.309 84.4445L399.099 135.247" stroke="#649D84" stroke-opacity="0.2" stroke-width="2"/>
<path opacity="0.5" d="M399.484 134.86L434.298 121.579" stroke="#649D84" stroke-opacity="0.2" stroke-width="2"/>
<path opacity="0.5" d="M374.473 189.014L336.693 128.929" stroke="#649D84" stroke-opacity="0.2" stroke-width="2"/>
<path opacity="0.5" d="M374.473 189.014L411.607 179.989" stroke="#649D84" stroke-opacity="0.2" stroke-width="2"/>
<path opacity="0.5" d="M350.877 240.075L306.393 172.51" stroke="#649D84" stroke-opacity="0.2" stroke-width="2"/>
<path opacity="0.5" d="M350.877 240.075L399.358 221.12" stroke="#649D84" stroke-opacity="0.2" stroke-width="2"/>
<path opacity="0.5" d="M327.538 294.229L285.375 238.656" stroke="#649D84" stroke-opacity="0.2" stroke-width="2"/>
<path opacity="0.5" d="M225.676 108.427C230.06 89.7311 241.794 81.6079 250.949 81.479C260.103 81.35 274.802 84.9603 280.089 101.722C288.47 128.284 281.765 183.986 286.407 192.367C294.014 206.292 321.092 245.232 329.215 279.143C335.662 320.275 332.696 399.186 269.645 385.26C190.863 367.854 205.82 312.152 208.527 295.132C211.106 279.143 232.252 240.203 236.894 211.966C239.473 196.751 220.132 131.765 225.676 108.427Z" fill="#DFE7F3"/>
<path opacity="0.5" d="M328.053 278.885C334.5 320.017 331.535 398.928 268.483 385.003L249.787 81.35C258.942 81.2211 273.641 84.8314 278.927 101.594C287.309 128.155 280.604 183.857 285.245 192.238C292.853 206.035 319.93 245.103 328.053 278.885Z" fill="#86C1E2" fill-opacity="0.5"/>
<path opacity="0.5" d="M250.691 81.0921L269.13 383.842" stroke="#203342" stroke-opacity="0.1" stroke-width="2"/>
<path opacity="0.5" d="M240.244 187.338C242.049 195.333 251.204 201.779 256.619 201.779" stroke="#203342" stroke-opacity="0.1" stroke-width="2"/>
<path opacity="0.5" d="M232.381 135.891C234.186 143.886 247.467 149.172 252.882 149.172M264.745 104.688C263.971 109.201 265.905 124.932 252.753 125.189L264.745 104.688Z" stroke="#203342" stroke-opacity="0.1" stroke-width="2"/>
<path opacity="0.5" d="M259.975 236.206C274.287 238.914 280.347 222.023 282.152 217.252" stroke="#203342" stroke-opacity="0.1" stroke-width="2"/>
<path opacity="0.5" d="M262.682 296.55C283.055 303.126 306.909 261.221 308.585 256.321M260.748 262.897C254.172 260.447 240.763 254 237.152 240.461L260.748 262.897Z" stroke="#203342" stroke-opacity="0.1" stroke-width="2"/>
<path opacity="0.5" d="M268.096 358.957C295.045 367.209 314.772 323.498 316.449 318.599M263.97 330.203C257.394 327.753 228.383 314.473 227.609 287.782L263.97 330.203Z" stroke="#203342" stroke-opacity="0.1" stroke-width="2"/>
</g>
<path d="M438.168 453.856H177.195C176.163 453.856 172.295 451.664 172.295 448.957C172.295 446.249 176.163 444.057 177.195 444.057H438.168C439.2 444.057 443.455 446.249 443.455 448.957C443.326 451.664 439.071 453.856 438.168 453.856Z" fill="white"/>
<path d="M438.168 453.856H177.195C176.163 453.856 172.295 451.664 172.295 448.957C172.295 446.249 176.163 444.057 177.195 444.057H438.168C439.2 444.057 443.455 446.249 443.455 448.957C443.326 451.664 439.071 453.856 438.168 453.856Z" fill="#C3D0E0"/>
<path d="M397.681 421.106L388.011 416.077L383.369 425.103L387.753 427.295L386.077 430.518C384.916 432.839 385.819 435.805 388.14 437.094L390.461 438.255L394.329 430.776L398.197 423.169C398.713 422.395 398.455 421.492 397.681 421.106Z" fill="#3454A7"/>
<path d="M391.002 438.579L399.461 422.051L397.854 421.228L389.395 437.757L391.002 438.579Z" fill="white"/>
<path d="M384.27 426.392L385.172 424.329" stroke="white" stroke-width="0.75" stroke-miterlimit="10" stroke-linecap="round" stroke-linejoin="round"/>
<path d="M385.432 427.166L386.334 424.974" stroke="white" stroke-width="0.75" stroke-miterlimit="10" stroke-linecap="round" stroke-linejoin="round"/>
<path d="M386.721 427.81L387.623 425.747" stroke="white" stroke-width="0.75" stroke-miterlimit="10" stroke-linecap="round" stroke-linejoin="round"/>
<path d="M394.329 422.782C394.329 423.942 393.427 424.974 392.137 424.974C390.848 424.974 389.945 424.071 389.945 422.782C389.945 421.621 390.848 420.59 392.137 420.59C393.427 420.59 394.329 421.621 394.329 422.782Z" fill="white"/>
<path d="M425.918 358.828L421.147 353.67C420.502 353.026 419.6 353.026 418.955 353.541L410.961 360.891L417.795 368.369L421.405 365.017L423.468 367.338C425.273 369.272 428.368 369.401 430.302 367.596L432.236 365.791L425.918 358.828Z" fill="#3454A7"/>
<path d="M432.656 365.499L420.477 352.175L419.144 353.393L431.324 366.717L432.656 365.499Z" fill="white"/>
<path d="M419.213 367.983L417.666 366.435" stroke="white" stroke-width="0.75" stroke-miterlimit="10" stroke-linecap="round" stroke-linejoin="round"/>
<path d="M420.372 367.08L418.695 365.533" stroke="white" stroke-width="0.75" stroke-miterlimit="10" stroke-linecap="round" stroke-linejoin="round"/>
<path d="M421.534 366.177L419.857 364.501" stroke="white" stroke-width="0.75" stroke-miterlimit="10" stroke-linecap="round" stroke-linejoin="round"/>
<path d="M420.632 359.73C420.632 360.891 419.729 361.922 418.44 361.922C417.151 361.922 416.248 361.02 416.248 359.73C416.248 358.57 417.151 357.538 418.44 357.538C419.729 357.538 420.632 358.57 420.632 359.73Z" fill="white"/>
<path d="M370.99 387.066C374.085 395.06 384.271 397.51 390.718 391.707L418.827 369.272L409.285 359.086L388.913 373.527L383.368 344.129C382.079 337.166 381.434 330.203 377.695 324.143L371.377 315.633L344.815 318.341L340.045 316.536L337.337 348.771L334.371 378.556C333.598 385.905 336.692 393.126 342.366 397.768L382.595 427.81L389.042 415.303L355.388 384.874L361.835 362.696L370.99 387.066Z" fill="#712A3E"/>
<path d="M351.908 331.622L359.645 369.272L361.579 362.567L351.908 331.622Z" fill="#3A131F"/>
<path d="M388.783 373.527L389.17 376.106L395.617 368.627L388.783 373.527Z" fill="#3A131F"/>
<path d="M422.823 323.885C422.952 323.756 423.081 323.498 423.081 323.369C423.081 322.854 422.823 322.467 422.307 322.338H421.92C422.178 322.209 422.307 322.08 422.436 321.822C422.565 321.435 422.178 320.92 421.791 320.92L420.502 320.662C420.373 320.662 420.373 320.533 420.244 320.533C419.341 320.017 413.668 318.47 410.574 318.212C410.574 318.212 396.261 300.418 395.617 300.031L382.723 286.106L375.115 298.613L385.817 309.057C386.204 309.831 408.768 327.624 408.768 327.624L408.897 327.753L409.542 328.269C409.671 328.269 409.671 328.398 409.8 328.398C410.445 329.043 411.992 330.332 414.055 331.364C416.118 332.395 415.215 329.816 414.571 328.398L420.631 327.624L421.92 327.753C422.436 327.753 422.823 327.496 422.952 326.98C422.952 326.593 422.694 326.206 422.436 326.077H422.565H422.694C423.21 326.077 423.596 325.819 423.725 325.304C423.596 324.272 423.21 323.885 422.823 323.885Z" fill="#FFDCCE"/>
<path d="M316.063 261.35L308.971 240.461C309.1 240.075 309.358 239.559 309.873 239.043C311.292 237.496 310.776 235.562 310.776 235.562C311.421 234.53 312.323 233.499 312.968 232.467C313.097 232.338 313.097 232.209 313.097 232.08C313.097 231.951 312.968 231.822 312.839 231.693C312.065 231.178 311.163 231.307 310.518 231.822C310.131 232.08 309.873 232.467 309.487 232.854C309.358 232.983 308.842 233.499 308.713 233.885L309.873 226.407C310.002 225.762 309.487 225.118 308.842 224.989C308.584 224.989 308.197 224.989 307.939 225.247C307.81 225.375 307.682 225.504 307.553 225.762V225.633C302.395 223.57 301.106 235.175 301.106 235.175L300.59 240.59L302.653 264.831V264.96C302.653 267.41 304.071 269.86 306.392 271.02L317.61 277.725L323.541 265.347L316.063 261.35Z" fill="#FFDCCE"/>
<path d="M371.377 273.083C368.927 270.633 365.704 269.344 362.351 269.344H360.675C360.288 269.344 359.902 269.344 359.515 269.344H359.257H358.225V269.473L357.452 269.602L345.203 270.762C343.655 270.891 342.237 271.149 341.076 271.665L323.799 265.347L317.867 277.725L317.223 279.143L336.821 291.779C337.724 302.61 339.142 319.501 339.271 322.467C339.271 323.498 373.182 318.728 373.182 318.341C372.409 310.604 370.604 299.902 369.701 294.616L374.472 299.129L374.988 298.226L382.595 285.719L383.369 284.301L371.377 273.083Z" fill="#FFB380"/>
<path opacity="0.46" d="M329.344 287.008L338.627 289.716L337.983 306.221L336.822 291.779L329.344 287.008Z" fill="#FF8B2E"/>
<path opacity="0.46" d="M369.573 294.616L366.607 288.685V294.745L371.636 306.865L369.573 294.616Z" fill="#FF8B2E"/>
<path d="M371.894 255.289C370.475 254.645 368.799 253.871 366.607 253.097L361.45 245.748C362.481 245.361 363.384 244.716 364.157 243.943C366.478 241.493 366.736 238.012 364.802 236.077C362.868 234.272 359.387 234.659 357.066 237.109C356.55 237.625 356.163 238.14 355.905 238.656C353.971 237.109 351.134 236.077 347.008 236.077C336.951 236.077 335.791 246.264 335.791 246.264C335.791 246.264 337.209 246.65 339.014 246.908C339.659 247.037 340.304 247.037 340.948 247.037L337.338 254.258C334.243 255.934 332.18 257.224 330.762 258.384C329.473 259.544 329.988 261.479 331.536 262.123C332.567 262.51 333.857 263.284 334.759 265.089C336.951 268.828 344.945 269.989 352.037 267.281L351.908 267.539C359.773 270.117 368.799 267.797 370.604 263.413C371.12 262.123 371.765 261.221 372.538 260.705C374.215 259.029 373.957 256.321 371.894 255.289Z" fill="#1C3472"/>
<path d="M358.353 252.324V252.582C356.548 253.613 354.227 252.84 353.453 251.034C353.453 250.905 353.324 250.648 353.324 250.519C344.299 249.1 345.201 244.716 345.201 244.716C344.427 247.037 341.333 247.166 338.883 246.908L337.465 255.289C336.562 260.447 340.044 265.347 345.201 266.249C345.459 266.249 345.588 266.249 345.846 266.378L345.717 272.438C345.588 275.146 347.78 277.338 350.359 277.467C353.066 277.596 355.258 275.404 355.387 272.825L355.774 260.318C355.903 259.802 356.032 259.416 356.161 258.9L356.806 259.029C358.611 259.287 360.416 258.126 360.674 256.321C360.803 254.516 359.9 252.84 358.353 252.324Z" fill="#FFDCCE"/>
<path opacity="0.46" d="M344.687 265.476C339.917 264.702 336.564 260.06 337.467 255.289L338.885 246.779L337.338 255.418C336.435 260.576 339.917 265.476 345.074 266.378C345.332 266.378 345.461 266.378 345.719 266.507L345.59 272.181L353.068 264.186C354.616 262.897 355.647 260.963 356.034 258.9L354.874 258.642C353.842 263.155 349.458 266.249 344.687 265.476Z" fill="#FF8B2E"/>
<path d="M358.225 254.387L357.064 256.063L358.096 256.708" stroke="#C6A58F" stroke-miterlimit="10" stroke-linecap="round"/>
<path d="M349.457 252.066C349.199 252.066 348.941 251.937 348.683 251.808C348.425 251.679 348.167 251.55 347.91 251.421C347.652 251.292 347.394 251.163 347.136 251.163C346.878 251.034 346.62 250.906 346.362 250.777C346.233 250.648 346.233 250.261 346.62 250.132C347.007 249.874 347.781 249.874 348.554 250.132C349.328 250.519 349.844 251.034 349.844 251.421C349.973 251.808 349.715 252.066 349.457 252.066Z" fill="#1C3472"/>
<path d="M339.785 250.003C340.043 250.132 340.172 250.003 340.43 250.003C340.688 250.003 340.946 250.003 341.075 249.874C341.333 249.874 341.59 249.874 341.719 249.874C341.977 249.874 342.235 249.874 342.364 249.745C342.493 249.616 342.622 249.487 342.364 249.229C342.106 248.971 341.59 248.714 340.946 248.842C340.301 248.842 339.785 249.229 339.527 249.487C339.527 249.745 339.656 249.874 339.785 250.003Z" fill="#1C3472"/>
<path d="M257.393 440.446L251.462 437.61L253.654 433.097L242.694 427.681L237.794 437.739C237.408 438.512 237.794 439.415 238.568 439.802L248.238 444.444L259.843 450.117L260.359 448.956C261.906 445.862 260.488 441.994 257.393 440.446Z" fill="#FF7F14"/>
<path d="M260.258 449.02L237.664 437.987L236.872 439.609L259.466 450.642L260.258 449.02Z" fill="#EAEAEA"/>
<path d="M251.975 438.126C251.717 438.126 251.717 437.739 251.846 437.61C252.62 436.965 254.296 435.934 254.683 437.223C254.941 438.512 253.007 438.383 251.975 438.126Z" stroke="#EAEAEA" stroke-width="0.75" stroke-miterlimit="10" stroke-linecap="round" stroke-linejoin="round"/>
<path d="M248.628 435.934C249.401 434.515 250.949 436.449 251.593 437.481C251.722 437.61 251.593 437.868 251.464 437.997C251.335 437.997 251.335 438.126 251.206 437.997C250.175 437.868 247.854 437.352 248.628 435.934Z" stroke="#EAEAEA" stroke-width="0.75" stroke-miterlimit="10" stroke-linecap="round" stroke-linejoin="round"/>
<path d="M251.59 438.126C251.59 438.126 250.946 440.06 249.141 440.189" stroke="#EAEAEA" stroke-width="0.75" stroke-miterlimit="10" stroke-linecap="round" stroke-linejoin="round"/>
<path d="M245.661 436.063C245.145 437.223 243.727 437.61 242.695 437.094C241.535 436.578 241.148 435.16 241.664 434.128C242.179 432.968 243.598 432.581 244.629 433.097C245.79 433.613 246.176 435.031 245.661 436.063Z" fill="#EAEAEA"/>
<path d="M181.577 366.307L170.488 364.244C169.585 364.116 168.812 364.631 168.683 365.534L166.62 375.978L164.17 388.743L165.459 389.001C168.941 389.646 172.293 387.325 172.938 383.972L174.098 377.525L179.127 378.428L181.577 366.307Z" fill="#FF7F14"/>
<path d="M165.656 388.893L170.365 364.194L168.592 363.856L163.883 388.555L165.656 388.893Z" fill="#EAEAEA"/>
<path d="M173.971 378.04C173.971 377.782 174.229 377.653 174.486 377.782C175.26 378.427 176.807 379.716 175.647 380.361C174.358 381.005 174.1 379.071 173.971 378.04Z" stroke="#EAEAEA" stroke-width="0.75" stroke-miterlimit="10" stroke-linecap="round" stroke-linejoin="round"/>
<path d="M175.128 374.3C176.676 374.687 175.257 376.621 174.484 377.524C174.355 377.653 174.097 377.653 173.968 377.524C173.839 377.524 173.839 377.395 173.839 377.266C173.71 376.235 173.581 373.914 175.128 374.3Z" stroke="#EAEAEA" stroke-width="0.75" stroke-miterlimit="10" stroke-linecap="round" stroke-linejoin="round"/>
<path d="M173.967 377.653C173.967 377.653 171.904 377.524 171.389 375.848" stroke="#EAEAEA" stroke-width="0.75" stroke-miterlimit="10" stroke-linecap="round" stroke-linejoin="round"/>
<path d="M177.706 369.917C177.706 371.335 176.546 372.495 175.128 372.495C173.709 372.495 172.549 371.335 172.549 369.917C172.549 368.498 173.709 367.338 175.128 367.338C176.546 367.338 177.706 368.498 177.706 369.917Z" fill="#EAEAEA"/>
<path d="M269.254 361.02L256.36 329.816L243.853 326.722L226.317 324.917L213.165 329.687L214.583 373.011L181.188 364.243C180.672 364.372 178.867 380.103 178.867 380.103L220.128 391.449C226.446 393.255 233.151 390.289 235.987 384.487C237.406 381.521 238.308 378.298 238.566 375.461L240.242 360.504L249.01 370.432C249.01 370.432 241.145 428.068 241.403 428.068C241.403 428.068 255.07 435.805 255.199 435.418L270.672 375.848C271.704 371.077 271.317 365.791 269.254 361.02Z" fill="#485D7B"/>
<path d="M242.438 339.616L243.727 364.63L240.117 361.02L242.438 339.616Z" fill="#1C3472"/>
<path d="M197.05 322.725C196.921 321.951 196.663 321.306 196.276 320.791C196.147 320.533 195.889 320.404 195.76 320.146C195.503 319.63 195.889 318.728 196.018 318.212C196.147 317.825 196.147 317.309 196.276 316.922H196.147L187.637 318.857C186.993 320.017 186.348 322.08 186.735 324.917L185.703 331.106C185.703 331.493 185.832 331.879 186.219 331.879H186.606C186.993 331.879 187.379 331.751 187.379 331.364L188.411 325.175L187.25 332.008C187.121 332.395 187.508 332.782 187.895 332.911L188.282 333.04C188.669 333.169 189.056 332.782 189.184 332.395L189.056 333.169C188.927 333.556 189.313 333.942 189.7 334.071L190.087 334.2C190.474 334.329 190.861 333.942 190.99 333.556L192.279 325.948L190.99 333.169C190.861 333.556 191.248 333.942 191.634 334.071L192.021 334.2C192.408 334.329 192.795 333.942 192.924 333.556L194.342 325.69C194.6 325.819 194.6 326.98 194.6 327.238C194.729 327.882 194.987 328.785 195.631 328.914C196.405 329.043 196.663 328.14 196.792 327.624C196.921 326.077 197.179 324.272 197.05 322.725Z" fill="#FFDCCE"/>
<path d="M298.394 240.074L288.724 237.625L287.435 237.367L276.217 259.931L256.489 263.413C254.297 261.994 251.718 261.092 249.011 260.834C246.045 260.576 242.95 260.318 239.985 260.06C235.214 259.673 229.412 258.126 224.77 259.673C221.804 260.705 218.968 262.381 216.131 263.67C214.068 264.702 211.876 265.733 209.813 266.765C205.171 268.957 200.529 271.278 195.888 273.47C195.114 273.857 194.34 274.243 193.567 274.63C191.89 275.404 190.73 276.951 190.472 278.885L185.186 316.922C185.057 318.341 186.217 319.372 187.507 319.114L196.017 317.18H196.145C196.79 317.051 197.177 316.536 197.435 315.891L204.398 289.458L216.131 285.332C214.713 297.324 212.392 322.338 211.876 329.043C211.747 329.945 212.521 330.719 213.423 330.719L256.618 330.848C257.521 330.848 258.294 330.203 258.423 329.301L263.065 284.817L284.34 274.243C287.306 273.47 289.369 271.02 290.013 268.183V268.054L299.039 240.59L298.394 240.074Z" fill="#FFB4BB"/>
<path d="M299.04 234.53C299.04 234.53 300.33 221.12 294.141 222.152C294.141 222.152 294.141 222.152 294.141 222.281C294.141 222.023 294.012 221.894 293.883 221.636C293.625 221.378 293.367 221.249 292.98 221.12C292.206 221.12 291.562 221.636 291.562 222.41L291.046 231.178C291.046 230.791 290.53 230.146 290.53 229.888C290.272 229.373 290.015 228.857 289.628 228.47C288.983 227.696 287.952 227.31 287.049 227.825C286.92 227.954 286.662 227.954 286.662 228.212C286.662 228.341 286.662 228.47 286.662 228.599C287.178 230.017 287.823 231.307 288.338 232.596C288.338 232.596 287.436 234.659 288.596 236.722C288.725 236.98 288.854 237.238 288.983 237.496L298.653 239.946L299.04 234.53Z" fill="#FFDCCE"/>
<path d="M276.219 259.931L278.798 264.702L273.898 260.318L276.219 259.931Z" fill="#DD979F"/>
<path d="M263.067 284.43L259.586 282.109L261.262 301.45L263.067 284.43Z" fill="#DD979F"/>
<path d="M216.262 284.945L219.357 283.269L214.586 301.192L216.262 284.945Z" fill="#DD979F"/>
<path d="M265.385 232.854C264.74 231.822 263.322 231.307 262.032 231.564C263.193 229.115 263.451 226.536 262.161 224.344C259.969 220.347 253.78 219.573 248.494 222.668C246.173 223.957 244.496 225.762 243.336 227.696C243.078 227.954 242.691 228.083 242.433 228.341C241.402 227.567 239.597 227.567 238.178 228.47C236.373 229.63 235.6 231.693 236.502 233.112L236.631 233.241C235.342 234.53 235.213 236.722 236.244 238.398C236.889 239.301 237.663 239.946 238.694 240.332C237.534 241.493 237.276 243.04 237.921 244.201C238.823 245.619 241.015 245.877 242.82 244.716C244.625 243.556 245.399 241.493 244.496 240.074C244.368 239.817 244.239 239.688 243.981 239.559C244.368 238.914 244.754 238.14 245.012 237.367C247.849 239.301 252.491 239.301 256.617 236.98C257.004 236.722 257.261 236.593 257.648 236.335C257.906 236.335 258.164 236.335 258.422 236.335C258.551 236.593 258.551 236.722 258.68 236.98C259.582 238.527 261.903 238.785 263.708 237.625C265.643 236.464 266.287 234.272 265.385 232.854Z" fill="#1C3472"/>
<path d="M246.175 233.885C246.175 233.885 244.37 242.395 241.147 241.751C240.889 241.751 239.857 240.075 239.599 239.688C238.31 240.075 237.278 241.106 237.15 242.653C237.021 244.458 238.31 246.135 240.115 246.264L240.889 246.393L240.631 250.003L239.47 263.67C239.341 265.862 240.889 267.668 243.081 267.925L246.949 268.312C249.141 268.441 250.946 266.894 251.204 264.702L251.849 257.223L252.622 257.352C256.104 257.61 259.069 255.16 259.456 251.679V251.292L260.745 236.722C260.23 236.593 259.585 236.464 258.811 236.464C254.427 236.335 246.562 236.464 246.175 233.885Z" fill="#FFDCCE"/>
<path d="M247.205 239.559C247.591 239.688 247.978 239.559 248.365 239.559C248.752 239.43 249.268 239.43 249.654 239.43C250.041 239.43 250.428 239.301 250.944 239.301C251.331 239.301 251.846 239.301 252.104 239.043C252.362 238.914 252.491 238.398 252.104 238.011C251.717 237.625 250.686 237.238 249.397 237.367C248.107 237.496 247.333 238.14 246.947 238.656C246.689 239.043 246.947 239.43 247.205 239.559Z" fill="#1C3472"/>
<path d="M259.327 238.785C259.069 238.914 258.682 238.914 258.425 238.914C258.038 238.914 257.78 238.914 257.393 238.914C257.135 238.914 256.748 238.914 256.362 239.043C255.975 239.043 255.717 239.172 255.459 239.043C255.201 238.914 255.072 238.656 255.33 238.269C255.588 237.883 256.362 237.496 257.264 237.367C258.296 237.367 258.94 237.625 259.327 238.012C259.714 238.398 259.585 238.656 259.327 238.785Z" fill="#1C3472"/>
<path d="M239.731 241.622L240.375 243.427L239.215 243.943" stroke="#C6A58F" stroke-miterlimit="10" stroke-linecap="round"/>
<path d="M300.973 205.132C300.973 205.132 304.454 212.61 301.875 218.671" stroke="#47CE92" stroke-miterlimit="10"/>
<path d="M294.654 211.837C294.654 211.837 298.651 216.608 298.265 219.573" stroke="#47CE92" stroke-miterlimit="10"/>
<path d="M310.513 214.158C310.513 214.158 305.613 217.897 305.355 220.863" stroke="#47CE92" stroke-miterlimit="10"/>
<path d="M345.071 146.98L342.75 144.659L298.266 182.439V189.143L300.587 191.464C300.973 191.851 301.489 191.851 301.747 191.464L345.071 148.141C345.329 147.754 345.329 147.238 345.071 146.98Z" fill="#267F55"/>
<path d="M337.465 140.533L301.104 176.894L287.05 162.84C286.663 162.453 286.147 162.453 285.889 162.84L279.442 169.287C279.056 169.674 279.056 170.189 279.442 170.447L298.268 189.272L342.752 144.788L338.626 140.662C338.239 140.146 337.723 140.146 337.465 140.533Z" fill="#47CE92"/>
</svg>
