<svg width="11" height="11" viewBox="0 0 11 11" fill="none" xmlns="http://www.w3.org/2000/svg">
<path d="M5.5 11C8.53757 11 11 8.53757 11 5.5C11 2.46243 8.53757 0 5.5 0C2.46243 0 0 2.46243 0 5.5C0 8.53757 2.46243 11 5.5 11Z" fill="#7D2181"/>
<path d="M11 5.49997C11 8.52498 8.525 11 5.5 11C3.74688 11 2.20001 10.2094 1.20312 8.93748C2.13125 9.69374 3.33438 10.1406 4.64061 10.1406C7.66562 10.1406 10.1406 7.66562 10.1406 4.64061C10.1406 3.33438 9.69374 2.13125 8.93749 1.20312C10.2094 2.19996 11 3.74684 11 5.49997Z" fill="#7D2181"/>
<path d="M8.00935 8.00935C7.80311 8.21559 7.45934 8.21559 7.2531 8.00935L5.49998 6.25624L3.74687 8.00935C3.54063 8.21559 3.19686 8.21559 2.99062 8.00935C2.78438 7.80311 2.78438 7.45934 2.99062 7.2531L4.74373 5.49998L2.99062 3.74687C2.78438 3.54063 2.78438 3.19686 2.99062 2.99062C3.19686 2.78438 3.54063 2.78438 3.74687 2.99062L5.49998 4.74373L7.2531 2.99062C7.45934 2.78438 7.80311 2.78438 8.00935 2.99062C8.21559 3.19686 8.21559 3.54063 8.00935 3.74687L6.25624 5.49998L8.00935 7.2531C8.21559 7.45934 8.21559 7.80308 8.00935 8.00935Z" fill="white"/>
</svg>
