<svg width="24" height="28" viewBox="0 0 24 28" fill="none" xmlns="http://www.w3.org/2000/svg">
<g filter="url(#filter0_d)">
<path d="M2 21.6667V1.66667C2 0.746192 2.74619 0 3.66667 0H20.3333C21.2538 0 22 0.746192 22 1.66667V18.3333L17 23.3333H3.66667C2.74619 23.3333 2 22.5871 2 21.6667Z" fill="#B0D3F0"/>
<path d="M17 23.3334V20C17 19.0796 17.7462 18.3334 18.6667 18.3334H22L17 23.3334Z" fill="#7BA4CA"/>
<path d="M5.33203 6.13299H4.4987C4.26858 6.13299 4.08203 5.94644 4.08203 5.71632C4.08203 5.4862 4.26858 5.29965 4.4987 5.29965H5.33203C5.56215 5.29965 5.7487 5.4862 5.7487 5.71632C5.7487 5.94644 5.56215 6.13299 5.33203 6.13299Z" fill="#285680"/>
<path d="M16.6875 6H7.3125C7.13991 6 7 5.77614 7 5.5C7 5.22386 7.13991 5 7.3125 5H16.6875C16.8601 5 17 5.22386 17 5.5C17 5.77614 16.8601 6 16.6875 6Z" fill="#285680"/>
<path d="M5.33203 11.6447H4.4987C4.26858 11.6447 4.08203 11.4581 4.08203 11.228C4.08203 10.9979 4.26858 10.8113 4.4987 10.8113H5.33203C5.56215 10.8113 5.7487 10.9979 5.7487 11.228C5.7487 11.4581 5.56215 11.6447 5.33203 11.6447Z" fill="#285680"/>
<path d="M16.582 11.6447H6.9987C6.76858 11.6447 6.58203 11.4581 6.58203 11.228C6.58203 10.9979 6.76858 10.8113 6.9987 10.8113H16.582C16.8122 10.8113 16.9987 10.9979 16.9987 11.228C16.9987 11.4581 16.8122 11.6447 16.582 11.6447Z" fill="#285680"/>
<path d="M5.33203 17.1563H4.4987C4.26858 17.1563 4.08203 16.9697 4.08203 16.7396C4.08203 16.5095 4.26858 16.323 4.4987 16.323H5.33203C5.56215 16.323 5.7487 16.5095 5.7487 16.7396C5.7487 16.9697 5.56215 17.1563 5.33203 17.1563Z" fill="#285680"/>
<path d="M13.6654 17.1563H6.9987C6.76858 17.1563 6.58203 16.9697 6.58203 16.7396C6.58203 16.5095 6.76858 16.323 6.9987 16.323H13.6654C13.8955 16.323 14.082 16.5095 14.082 16.7396C14.082 16.9697 13.8955 17.1563 13.6654 17.1563Z" fill="#285680"/>
<path d="M20.3346 14.5833C20.1045 14.5833 19.918 14.3968 19.918 14.1667V8.33334C19.918 8.10322 20.1045 7.91667 20.3346 7.91667C20.5648 7.91667 20.7513 8.10322 20.7513 8.33334V14.1667C20.7513 14.3968 20.5648 14.5833 20.3346 14.5833Z" fill="#ECF0F1"/>
<path d="M20.3346 17.0834C20.1045 17.0834 19.918 16.8968 19.918 16.6667V15.8334C19.918 15.6032 20.1045 15.4167 20.3346 15.4167C20.5648 15.4167 20.7513 15.6032 20.7513 15.8334V16.6667C20.7513 16.8968 20.5648 17.0834 20.3346 17.0834Z" fill="#ECF0F1"/>
</g>
<defs>
<filter id="filter0_d" x="0" y="0" width="24" height="27.3334" filterUnits="userSpaceOnUse" color-interpolation-filters="sRGB">
<feFlood flood-opacity="0" result="BackgroundImageFix"/>
<feColorMatrix in="SourceAlpha" type="matrix" values="0 0 0 0 0 0 0 0 0 0 0 0 0 0 0 0 0 0 127 0"/>
<feOffset dy="2"/>
<feGaussianBlur stdDeviation="1"/>
<feColorMatrix type="matrix" values="0 0 0 0 0.12549 0 0 0 0 0.2 0 0 0 0 0.258824 0 0 0 0.15 0"/>
<feBlend mode="normal" in2="BackgroundImageFix" result="effect1_dropShadow"/>
<feBlend mode="normal" in="SourceGraphic" in2="effect1_dropShadow" result="shape"/>
</filter>
</defs>
</svg>
