<svg width="20" height="20" viewBox="0 0 20 20" fill="none" xmlns="http://www.w3.org/2000/svg">
<path d="M10 0C4.47715 0 0 4.47715 0 10C0 15.5229 4.47715 20 10 20C15.5229 20 20 15.5229 20 10C20 4.47715 15.5229 0 10 0ZM10 18.75C5.1675 18.75 1.25 14.8325 1.25 10C1.25 5.1675 5.1675 1.25 10 1.25C14.8325 1.25 18.75 5.1675 18.75 10C18.75 14.8325 14.8325 18.75 10 18.75Z" fill="#0EA89B"/>
<path d="M8.12539 12.8687L5.44414 10.1812L4.55664 11.0687L7.68164 14.1937C7.92543 14.4361 8.3191 14.4361 8.56289 14.1937L15.4379 7.31875L14.5566 6.4375L8.12539 12.8687Z" fill="#0EA89B"/>
</svg>
