<svg width="695" height="521" viewBox="0 0 695 521" fill="none" xmlns="http://www.w3.org/2000/svg">
<path d="M104.228 355.677C188.359 355.677 202.503 300.332 236.005 291.751C259.457 291.751 306.372 241.062 355.206 298.939C371.378 318.107 521.888 319.859 584.425 328.814C646.962 337.768 640.262 344.484 640.262 355.677C640.262 366.87 598.943 361.274 594.476 373.586C590.902 383.436 610.11 388.137 620.161 389.257C645.845 399.331 689.511 419.926 693.866 437.387C698.333 455.296 689.639 474.276 667.064 478.802C655.897 481.04 620.161 477.682 581.075 483.279C541.989 488.876 505.137 526.932 433.666 519.097C410.214 516.526 415.798 500.069 388.996 485.518C362.194 470.967 333.16 491.114 289.607 501.188C249.998 510.349 162.86 518.833 143.314 515.739C122.096 512.381 53.9748 505.665 93.0607 477.682C120.979 457.695 135.497 451.938 128.796 438.506C123.102 427.092 86.0312 429.49 33.5438 420.536C17.2885 417.762 -61.0978 355.677 104.228 355.677Z" fill="#E1E9F5"/>
<ellipse cx="466.02" cy="438.505" rx="71.8798" ry="11.98" fill="#D1DDEE"/>
<ellipse cx="634.339" cy="449.886" rx="34.1429" ry="4.19299" fill="#D1DDEE"/>
<ellipse cx="285.722" cy="434.312" rx="82.0628" ry="14.975" fill="#D1DDEE"/>
<ellipse cx="191.68" cy="373.215" rx="109.018" ry="25.7569" fill="#D1DDEE"/>
<path d="M0.891575 117.026C-2.77669 96.2302 5.47715 82.8769 14.6478 78.7994C23.8185 74.7218 40.2129 71.8866 52.8589 86.4446C72.9407 109.562 90.4 168.662 98.7123 175.13C112.468 185.834 156.793 213.357 179.72 243.938C204.175 282.674 235.661 363.511 165.964 376.967C78.8425 393.786 69.6718 331.095 65.0865 312.746C60.7635 295.447 65.0865 246.997 57.4443 216.415C53.3666 200.098 5.47691 143.02 0.891575 117.026Z" fill="#ABC3E9"/>
<path d="M179.448 242.291C203.903 281.028 235.389 361.864 165.692 375.32L14.376 77.1526C14.376 77.1526 39.941 70.2398 52.5871 84.7978C72.6689 107.916 90.1282 167.015 98.4404 173.483C112.196 184.187 156.521 211.71 179.448 242.291Z" fill="#8AA8D3"/>
<line x1="14.0663" y1="77.4497" x2="166.212" y2="372.157" stroke="#203342" stroke-opacity="0.4" stroke-width="2"/>
<path d="M71.88 140.803C73.078 145.595 76.073 165.362 62.895 171.352M50.915 188.124C56.306 195.312 68.286 197.708 73.677 195.312" stroke="#203342" stroke-opacity="0.4" stroke-width="2"/>
<path d="M38.9352 94.6804C40.1332 99.4724 49.1181 114.447 35.9402 120.437M20.3662 140.204C25.7572 147.392 41.3312 146.793 46.7221 144.397" stroke="#203342" stroke-opacity="0.4" stroke-width="2"/>
<path d="M92.2461 228.257C107.82 224.663 106.422 205.096 106.023 199.505" stroke="#203342" stroke-opacity="0.4" stroke-width="2"/>
<path d="M104.825 254.613C97.158 255.092 80.8652 254.613 71.2812 242.633M121.597 287.558C144.958 285.162 150.149 232.65 149.75 227.059" stroke="#203342" stroke-opacity="0.4" stroke-width="2"/>
<path d="M137.77 320.503C130.103 320.982 95.2411 320.503 82.6621 294.147M154.542 347.458C185.091 343.864 185.49 291.352 185.091 285.761" stroke="#203342" stroke-opacity="0.4" stroke-width="2"/>
<path d="M232.145 174.08C247.229 270.033 231.716 351.867 219.201 353.835C206.685 355.802 138.648 311.324 123.563 215.372C108.479 119.419 152.06 8.32723 164.576 6.35973C181.677 3.67128 217.061 78.1276 232.145 174.08Z" fill="#A8E5CA"/>
<path d="M219.949 353.835C232.464 351.867 247.977 270.033 232.893 174.08C217.809 78.1277 182.426 3.67135 165.324 6.3598L219.949 353.835Z" fill="#89CFB0"/>
<line x1="166.31" y1="5.86597" x2="222.616" y2="347.295" stroke="#649D84" stroke-opacity="0.9" stroke-width="2"/>
<path d="M136.909 77.4141L182.694 108.457" stroke="#649D84" stroke-opacity="0.9" stroke-width="2"/>
<path d="M182.694 107.858L203.161 75.1802" stroke="#649D84" stroke-opacity="0.9" stroke-width="2"/>
<path d="M192.878 170.154L129.128 140.746" stroke="#649D84" stroke-opacity="0.9" stroke-width="2"/>
<path d="M192.877 170.154L217.585 139.81" stroke="#649D84" stroke-opacity="0.9" stroke-width="2"/>
<path d="M202.461 228.856L129.13 197.053" stroke="#649D84" stroke-opacity="0.9" stroke-width="2"/>
<path d="M202.461 228.856L230.713 183.003" stroke="#649D84" stroke-opacity="0.9" stroke-width="2"/>
<line x1="214.109" y1="289.699" x2="149.417" y2="266.937" stroke="#649D84" stroke-opacity="0.9" stroke-width="2"/>
<path d="M388.286 198.895C355.239 274.425 302.139 323.857 290.201 318.634C278.263 313.411 239.984 246.166 273.031 170.636C306.078 95.1062 397.936 39.8933 409.874 45.1165C426.186 52.2536 421.333 123.365 388.286 198.895Z" fill="#A8E6CA"/>
<path d="M289.916 319.08C301.854 324.303 354.954 274.871 388 199.341C421.047 123.811 425.901 52.6997 409.589 45.5626L289.916 319.08Z" fill="#89CFB0"/>
<line y1="-1" x2="303.944" y2="-1" transform="matrix(-0.417919 0.908484 -0.896939 -0.442155 408.269 47.5347)" stroke="#649D84" stroke-opacity="0.9" stroke-width="2"/>
<path d="M350.301 83.3833L370.535 130.634" stroke="#649D84" stroke-opacity="0.9" stroke-width="2"/>
<path d="M370.836 130.204L403.201 117.856" stroke="#649D84" stroke-opacity="0.9" stroke-width="2"/>
<path d="M347.588 180.536L312.495 124.677" stroke="#649D84" stroke-opacity="0.9" stroke-width="2"/>
<path d="M347.589 180.536L382.1 172.175" stroke="#649D84" stroke-opacity="0.9" stroke-width="2"/>
<path d="M325.674 227.958L284.292 165.16" stroke="#649D84" stroke-opacity="0.9" stroke-width="2"/>
<path d="M325.673 227.958L370.723 210.377" stroke="#649D84" stroke-opacity="0.9" stroke-width="2"/>
<line y1="-1" x2="64.7714" y2="-1" transform="matrix(-0.604575 -0.796548 0.827074 -0.562093 305.031 277.546)" stroke="#649D84" stroke-opacity="0.9" stroke-width="2"/>
<path d="M209.377 105.649C213.508 88.2852 224.395 80.6971 232.88 80.6125C241.366 80.5278 255.04 83.832 259.97 99.3708C267.797 124.046 261.515 175.755 265.796 183.563C272.88 196.484 298.043 232.716 305.574 264.136C311.555 302.396 308.865 375.676 250.259 362.717C177.002 346.518 190.922 294.806 193.52 279.032C195.971 264.161 215.583 228.027 219.915 201.737C222.226 187.709 204.213 127.354 209.377 105.649Z" fill="#9AD2F1"/>
<path d="M304.53 263.982C310.51 302.241 307.82 375.521 249.214 362.563L231.836 80.4583C240.321 80.3736 253.996 83.6778 258.925 99.2166C266.752 123.892 260.471 175.6 264.751 183.409C271.835 196.33 296.999 232.562 304.53 263.982Z" fill="#86C1E2"/>
<line x1="232.434" y1="80.2042" x2="249.516" y2="361.544" stroke="#203342" stroke-opacity="0.4" stroke-width="2"/>
<path d="M255.473 149.314C254.759 153.451 250.3 169.845 237.999 169.977M222.927 178.902C224.65 186.34 233.14 192.316 238.154 192.305" stroke="#203342" stroke-opacity="0.4" stroke-width="2"/>
<path d="M245.7 102.147C244.986 106.283 246.828 121.01 234.527 121.141M215.633 131.16C217.356 138.599 229.669 143.481 234.682 143.469" stroke="#203342" stroke-opacity="0.4" stroke-width="2"/>
<path d="M241.276 224.291C254.617 226.845 260.249 211.154 261.858 206.671" stroke="#203342" stroke-opacity="0.4" stroke-width="2"/>
<path d="M242.006 249.099C235.881 246.839 223.38 240.872 220.043 228.268M243.732 280.469C262.715 286.627 284.781 247.588 286.39 243.105" stroke="#203342" stroke-opacity="0.4" stroke-width="2"/>
<path d="M244.991 311.632C238.867 309.372 211.93 297.03 211.202 272.222M248.774 338.345C273.756 346.041 292.098 305.356 293.707 300.873" stroke="#203342" stroke-opacity="0.4" stroke-width="2"/>
<path d="M328.092 154.267C328.092 154.267 333.825 148.963 334.828 146.525C335.831 144.088 342.281 123.012 342.281 123.012L360.483 111.829L379.831 115.7L394.593 126.596L389.72 137.493C389.72 137.493 390.15 139.5 389.29 140.934C388.86 141.651 376.678 156.418 376.391 160.863C376.105 165.164 371.232 158.712 371.232 158.712C371.232 158.712 368.939 162.583 366.215 164.734C364.496 166.024 359.623 169.178 355.896 169.178C352.313 169.178 347.584 162.153 347.584 162.153L342.424 167.171L337.121 168.318L328.092 154.267Z" fill="#FFDACD"/>
<path d="M334.397 147.386C334.397 147.386 335.401 127.744 335.114 123.442C334.827 118.138 333.968 96.6315 356.039 93.0472C377.537 89.6063 383.557 98.4954 386.71 105.951C388.143 109.535 391.87 118.854 394.163 119.571C397.029 120.288 401.329 116.847 401.902 115.7C402.619 114.41 406.345 121.148 404.625 126.31C403.049 130.898 401.185 135.629 391.296 137.78C381.407 139.93 377.537 133.192 377.537 133.192L368.365 142.368C368.365 142.368 369.368 134.339 366.645 132.905C364.638 131.758 363.205 132.618 361.485 134.339C359.765 136.059 356.182 142.511 354.606 144.088C353.029 145.522 342.853 151.257 334.397 147.386Z" fill="#55678A"/>
<path d="M432 197.996C432 197.996 429.42 189.824 422.254 190.971C415.088 192.118 417.238 200.434 418.384 203.444C419.818 207.316 424.404 215.631 422.111 216.778C419.818 217.925 437.303 212.334 440.026 211.187C443.322 209.753 447.335 205.595 446.619 200.29C446.045 195.702 443.752 193.839 439.739 193.839C434.866 193.552 432 197.996 432 197.996Z" fill="#FF2825"/>
<path d="M348.872 192.978C348.872 192.978 355.752 205.022 367.361 215.201C375.674 222.513 387.856 228.391 394.449 230.542C410.214 235.99 431.282 232.119 439.452 229.395C447.621 226.671 438.878 236.994 432.572 240.148C425.12 243.732 413.94 245.309 406.774 245.023C393.015 244.593 380.69 241.582 370.084 237.711C357.615 233.123 341.993 220.076 336.547 213.911C331.674 208.463 326.228 201.867 326.228 201.867L344.573 188.677L348.872 192.978Z" fill="#FED2B7"/>
<path d="M267.18 413.199L272.339 406.174H288.105L281.799 416.64L276.209 419.077L267.18 413.199Z" fill="#FFDFD1"/>
<path d="M259.492 425.959C259.492 425.959 259.01 419.508 263.023 416.353C267.036 413.199 269.903 412.769 272.483 412.626C275.062 412.482 282.228 414.346 283.088 419.938C283.948 425.529 294.124 424.382 294.124 424.382C294.124 424.382 303.87 423.952 307.166 425.959C310.463 427.967 311.179 429.831 311.036 431.838C310.893 433.845 310.32 435.135 309.746 436.282C309.173 437.429 259.205 436.999 259.205 436.999L259.492 425.959Z" fill="#712A3E"/>
<path d="M309.509 436.536C310.066 435.423 310.623 434.172 310.762 432.226L285.005 429.376L259.248 426.526V437.231C259.248 437.231 308.952 437.648 309.509 436.536Z" fill="#481725"/>
<path d="M315.622 423.665C315.622 423.665 314.905 417.214 318.918 414.059C322.931 410.905 330.814 413.199 330.814 413.199C333.824 416.497 338.553 420.798 340.703 421.515C346.006 423.665 348.156 423.522 350.879 423.235C353.459 422.805 358.618 421.658 361.915 423.665C365.211 425.673 365.928 427.536 365.785 429.544C365.641 431.551 365.068 432.841 364.495 433.988C363.921 435.135 315.622 434.705 315.622 434.705V423.665Z" fill="#712A3E"/>
<path d="M364.307 434.452C364.881 433.305 365.454 432.015 365.597 430.008L315.435 428.922V435.169C315.435 435.169 363.734 435.599 364.307 434.452Z" fill="#481725"/>
<path d="M319.349 419.508C319.635 420.798 320.352 423.092 322.788 423.522C324.222 423.809 327.518 424.096 329.525 422.518C332.248 420.511 331.674 409.902 331.674 409.902V398.575L319.205 399.005C319.205 399.292 318.345 414.49 319.349 419.508Z" fill="#FFDFD1"/>
<path d="M393.733 336.208C393.733 336.208 398.033 362.875 403.479 369.757C415.662 385.098 425.981 382.231 438.02 392.267C450.059 402.303 462.815 428.253 462.098 437.143C461.381 446.175 470.267 405.027 452.352 373.915C434.437 342.946 393.733 336.208 393.733 336.208Z" fill="#47CE92"/>
<path d="M394.142 336.373C394.142 336.373 398.441 363.04 403.888 369.922C416.07 385.263 426.389 382.396 438.428 392.432C450.467 402.468 463.223 428.418 462.506 437.307C461.79 446.34 465.967 419.302 448.051 388.19C430.136 357.221 394.142 336.373 394.142 336.373Z" fill="#5CBF93"/>
<path d="M546.371 371.908C546.371 371.908 536.482 391.98 530.463 396.138C517.134 405.457 509.538 400.582 497.642 405.601C485.603 410.619 469.264 428.11 467.688 435.422C466.111 442.734 468.978 407.894 490.762 387.679C512.404 367.32 546.371 371.908 546.371 371.908Z" fill="#47CE92"/>
<path d="M546.265 373.058C546.265 373.058 536.376 393.131 530.357 397.289C517.028 406.608 509.432 401.733 497.536 406.751C485.497 411.769 469.158 429.261 467.582 436.573C466.005 443.885 466.999 423.38 488.784 403.165C510.426 382.806 546.265 373.058 546.265 373.058Z" fill="#5CBF93"/>
<path d="M546.4 372.616C546.4 372.616 510.56 382.363 488.919 402.722C467.134 422.937 467.716 436.13 467.716 436.13" stroke="#209C92"/>
<path d="M466.398 424.239C466.398 424.239 465.538 382.661 465.968 368.754C466.255 355.42 467.831 338.789 490.906 321.871C513.981 304.953 535.336 304.666 535.336 304.666C535.336 304.666 535.049 327.892 529.746 337.785C523.727 348.825 517.277 352.122 503.662 362.445C500.652 364.739 491.909 372.481 488.183 377.069C479.154 388.683 466.398 424.239 466.398 424.239Z" fill="#47CE92"/>
<path d="M466.522 424.328C466.522 424.328 472.182 401.498 472.612 387.591C472.899 374.257 477.091 360.183 500.166 343.265C523.241 326.347 535.46 304.755 535.46 304.755C535.46 304.755 535.174 327.981 529.871 337.874C523.851 348.913 517.402 352.211 503.786 362.534C500.776 364.828 492.034 372.57 488.307 377.158C479.278 388.771 466.522 424.328 466.522 424.328Z" fill="#5CBF93"/>
<path d="M467.22 423.903C467.22 423.903 472.879 401.073 473.309 387.166C473.596 373.832 477.788 359.758 500.863 342.84C523.938 325.922 536.158 304.33 536.158 304.33" stroke="#209C92"/>
<path d="M395.884 293.196C395.884 293.196 401.043 303.662 409.929 306.243C418.672 308.824 426.125 307.533 431.858 309.827C437.59 312.121 444.183 316.423 452.353 324.451C460.522 332.624 440.457 299.361 431.858 293.196C423.258 287.031 411.936 286.888 407.063 288.465C404.483 289.182 395.884 293.196 395.884 293.196Z" fill="#47CE92"/>
<path d="M409.533 306.585C400.554 304.006 395.34 293.548 395.34 293.548C437.106 293.548 460.659 332.946 452.404 324.78C444.148 316.757 437.486 312.459 431.693 310.167C425.899 307.874 418.368 309.164 409.533 306.585Z" fill="#5CBF93"/>
<path d="M396.538 293.548C438.305 293.548 453.602 324.78 453.602 324.78" stroke="#209C92"/>
<path d="M486.607 275.705C486.607 275.705 491.623 282.3 489.473 288.895C487.323 295.633 475.428 302.229 470.985 305.383C466.542 308.394 476.144 298.644 477.291 295.347C478.437 291.762 477.434 284.737 479.441 281.583C481.447 278.429 486.607 275.705 486.607 275.705Z" fill="#47CE92"/>
<path d="M486.436 275.85C486.436 275.85 491.452 282.445 489.303 289.04C487.153 295.779 475.257 302.374 470.814 305.528C466.371 308.539 477.455 299.84 478.601 296.543C479.748 292.959 482.616 290.385 484.623 287.231C486.629 284.076 486.436 275.85 486.436 275.85Z" fill="#5CBF93"/>
<path d="M461.238 262.371C461.238 262.371 458.658 243.589 459.232 237.424C459.948 231.259 465.394 221.51 472.56 216.778C479.727 212.19 481.876 210.47 481.876 210.47C481.876 210.47 483.166 219.502 481.876 224.09C480.586 228.678 470.267 237.281 467.258 242.729C464.821 247.173 461.238 262.371 461.238 262.371Z" fill="#47CE92"/>
<path d="M460.924 262.787C460.924 262.787 462.454 249.996 463.027 243.831C463.744 237.666 467.841 226.998 475.007 222.267C482.173 217.679 481.562 210.886 481.562 210.886C481.562 210.886 482.852 219.919 481.562 224.507C480.272 229.094 469.953 237.697 466.943 243.145C464.507 247.59 460.924 262.787 460.924 262.787Z" fill="#5CBF93"/>
<path d="M461.229 262.787C461.229 262.787 462.76 249.996 463.333 243.831C464.049 237.666 468.147 226.998 475.313 222.267C482.479 217.679 481.868 210.886 481.868 210.886" stroke="#209C92" stroke-width="0.5"/>
<path d="M394.142 336.676C445.655 363.032 457.036 404.962 461.229 423.531" stroke="#209C92"/>
<path d="M354.607 189.107C354.607 189.107 361.486 201.151 373.095 211.33C381.408 218.642 393.59 224.52 400.183 226.671C415.948 232.119 437.017 228.248 445.186 225.524C453.355 222.8 444.613 233.123 438.307 236.277C430.854 239.861 419.675 241.438 412.509 241.152C398.75 240.722 386.424 237.711 375.818 233.84C363.349 229.252 347.727 216.205 342.281 210.04C337.408 204.591 331.962 197.996 331.962 197.996L350.307 184.806L354.607 189.107Z" fill="#FFDCCE"/>
<path d="M354.606 187.817C354.606 187.817 346.294 193.982 343.57 196.276C340.847 198.57 335.258 204.591 335.258 204.591L331.961 201.867C331.961 201.867 323.219 224.807 320.066 234.556C318.059 240.578 316.626 246.026 316.196 252.621C315.623 259.217 315.623 266.098 314.619 271.26C313.903 274.557 310.176 280.436 307.023 281.87C304.014 283.303 304.3 290.902 304.3 290.902L263.454 286.888L245.108 266.385C245.108 266.385 251.845 213.767 280.079 183.659C308.17 153.407 326.658 154.124 326.658 154.124C326.658 154.124 331.531 154.124 336.118 157.995C340.704 161.866 354.606 187.817 354.606 187.817Z" fill="#FCA373"/>
<path d="M317.772 404.023H333.251C333.251 404.023 339.414 358.574 339.414 348.682C339.414 336.351 310.176 280.436 310.176 280.436L298.424 286.171L318.919 350.402L317.772 404.023Z" fill="#627C98"/>
<path d="M245.108 266.385C245.108 266.385 241.955 298.931 264.457 314.989C286.958 331.046 301.004 350.402 301.72 353.556C302.58 356.997 272.339 406.317 272.339 406.317H290.541C290.541 406.317 323.792 358.001 327.662 353.126C331.531 348.251 314.476 320.867 314.476 320.867L298.281 286.027C285.525 288.035 261.733 276.135 245.108 266.385Z" fill="#485D7B"/>
<path d="M662.928 401.088C662.928 401.088 666.806 400.534 669.743 397.874C672.679 395.213 675.671 392.276 675.671 392.276C675.671 392.276 669.632 391.832 666.695 394.548C663.814 397.264 662.928 401.088 662.928 401.088Z" fill="#47CE92"/>
<path d="M654.838 406.021C654.838 406.021 656.998 402.751 656.943 398.76C656.832 394.77 655.336 391.167 655.336 391.167C655.336 391.167 652.344 394.881 652.455 398.871C652.511 402.862 654.838 406.021 654.838 406.021Z" fill="#47CE92"/>
<path d="M671.738 405.024C671.738 405.024 667.97 403.86 664.203 405.079C660.38 406.298 657.388 408.737 657.388 408.737C657.388 408.737 661.765 410.511 665.588 409.347C669.3 408.127 671.738 405.024 671.738 405.024Z" fill="#47CE92"/>
<path d="M648.356 415.776C648.356 415.776 649.353 411.952 647.968 408.238C646.583 404.469 644.034 401.587 644.034 401.587C644.034 401.587 642.428 406.021 643.757 409.79C645.142 413.504 648.356 415.776 648.356 415.776Z" fill="#47CE92"/>
<path d="M664.701 416.164C664.701 416.164 661.155 414.501 657.221 415.222C653.287 415.942 649.963 417.938 649.963 417.938C649.963 417.938 654.063 420.321 657.997 419.601C661.931 418.935 664.701 416.164 664.701 416.164Z" fill="#47CE92"/>
<path d="M642.095 425.697C642.095 425.697 642.982 421.873 641.541 418.159C640.101 414.446 637.441 411.619 637.441 411.619C637.441 411.619 635.945 416.109 637.386 419.822C638.827 423.536 642.095 425.697 642.095 425.697Z" fill="#47CE92"/>
<path d="M659.049 423.757C659.049 423.757 655.337 422.538 651.514 423.647C647.691 424.755 644.588 427.138 644.588 427.138C644.588 427.138 648.91 429.023 652.733 427.914C656.556 426.806 659.049 423.757 659.049 423.757Z" fill="#47CE92"/>
<path d="M656.611 434.233C656.611 434.233 653.01 432.625 649.076 433.401C645.142 434.122 641.873 436.228 641.873 436.228C641.873 436.228 646.028 438.556 649.907 437.78C653.841 437.004 656.611 434.233 656.611 434.233Z" fill="#47CE92"/>
<path d="M638.715 435.009C638.715 435.009 638.715 431.074 636.499 427.804C634.227 424.533 631.014 422.316 631.014 422.316C631.014 422.316 630.57 427.028 632.787 430.298C635.003 433.568 638.715 435.009 638.715 435.009Z" fill="#47CE92"/>
<path d="M664.7 399.426C647.967 410.4 636.775 439.942 636.775 449.253" stroke="#5F9E86" stroke-miterlimit="10"/>
<path d="M607.645 358.171C607.645 358.171 611.417 352.84 611.753 345.947C612.088 339.053 612.256 331.884 612.256 331.884C612.256 331.884 605.046 338.686 604.71 345.579C604.375 352.381 607.645 358.171 607.645 358.171Z" fill="#B5C6EA"/>
<path d="M604.038 374.073C604.038 374.073 602.864 367.455 598.337 362.675C593.809 357.896 588.192 355.322 588.192 355.322C588.192 355.322 588.947 363.411 593.474 368.19C598.002 372.97 604.038 374.073 604.038 374.073Z" fill="#B5C6EA"/>
<path d="M621.812 352.381C621.812 352.381 616.362 355.506 613.428 361.664C610.493 367.822 609.907 374.44 609.907 374.44C609.907 374.44 616.782 371.315 619.716 365.249C622.566 359.091 621.812 352.381 621.812 352.381Z" fill="#B5C6EA"/>
<path d="M607.56 393.926C607.56 393.926 604.458 388.044 598.84 385.102C593.223 382.161 587.019 381.702 587.019 381.702C587.019 381.702 590.121 389.147 595.822 392.088C601.523 395.029 607.56 393.926 607.56 393.926Z" fill="#B5C6EA"/>
<path d="M626.256 374.44C626.256 374.44 620.471 376.738 616.866 382.345C613.261 387.952 611.751 394.478 611.751 394.478C611.751 394.478 618.962 392.364 622.567 386.757C626.172 381.242 626.256 374.44 626.256 374.44Z" fill="#B5C6EA"/>
<path d="M611.584 413.596C611.584 413.596 608.398 407.805 602.613 405.048C596.912 402.291 590.792 402.015 590.792 402.015C590.792 402.015 594.061 409.368 599.846 412.125C605.464 414.883 611.584 413.596 611.584 413.596Z" fill="#B5C6EA"/>
<path d="M628.268 390.617C628.268 390.617 622.734 393.65 619.716 399.625C616.698 405.599 615.86 412.309 615.86 412.309C615.86 412.309 622.818 409.368 625.837 403.393C628.939 397.419 628.268 390.617 628.268 390.617Z" fill="#B5C6EA"/>
<path d="M607.727 354.035C601.188 387.768 621.226 437.494 631.538 448.891" stroke="#9FB3D6" stroke-miterlimit="10"/>
</svg>
