<svg width="31" height="27" viewBox="0 0 31 27" fill="none" xmlns="http://www.w3.org/2000/svg">
<g filter="url(#filter0_d)">
<path d="M25.3052 13.0219C25.3052 8.24489 20.5728 4.38311 14.7467 4.38311C13.1171 4.38311 11.5769 4.68446 10.204 5.2202C9.40044 4.03711 7.90483 3.45673 6.48736 3.90318L7.40258 6.81625C5.61679 8.23372 4.4337 10.1758 4.2328 12.3299C3.76403 12.7429 3.12784 13.2228 2.41352 13.4907C2.16797 13.5799 2.01172 13.8255 2.01172 14.0934C2.03404 14.9416 2.2461 16.7386 3.66358 18.0333C3.81983 18.1784 4.05422 18.2342 4.26628 18.2007C4.65692 18.1337 5.30427 17.9775 5.82885 17.6315C6.49852 18.4909 7.33561 19.2498 8.3178 19.8637L9.17721 23H13.0836L13.3069 21.5714C13.7756 21.6272 14.2667 21.6495 14.7578 21.6495C15.2712 21.6495 15.7846 21.616 16.2757 21.5602L16.499 23H20.4054L21.276 19.8079C23.7314 18.2342 25.3052 15.7787 25.3052 13.0219Z" fill="#FFABAB"/>
<path d="M17.3132 18.636C11.141 18.636 4.42198 16.8837 4.42198 11.7607C4.42198 11.5486 4.43314 11.3365 4.4443 11.1245C4.33269 11.5151 4.26572 11.9169 4.22108 12.3299C3.75231 12.7429 3.11612 13.2228 2.4018 13.4907C2.15626 13.5799 2 13.8255 2 14.0934C2.02232 14.9416 2.23439 16.7386 3.65186 18.0333C3.80812 18.1784 4.0425 18.2342 4.25456 18.2007C4.64521 18.1337 5.29256 17.9775 5.81713 17.6315C6.4868 18.4909 7.32389 19.2498 8.30608 19.8637L9.16549 23H13.0719L13.2951 21.5714C13.7639 21.6272 14.255 21.6495 14.7461 21.6495C15.2595 21.6495 15.7729 21.616 16.264 21.5602L16.4872 23H20.3937L21.2642 19.8079C21.3647 19.7409 23.6391 18.3052 24.3082 16.6802C22.5894 17.5842 19.5008 18.636 17.3132 18.636Z" fill="#FF9C9C"/>
<path d="M9.13179 5.22018C9.41082 5.10857 9.68985 5.01928 9.98004 4.92999C9.23224 4.05942 8.08264 3.61297 6.92188 3.80271C7.80361 3.94781 8.61838 4.46122 9.13179 5.22018Z" fill="#FFABAB"/>
<path d="M15.2048 21.5714C14.8812 21.6048 14.5463 21.6383 14.2227 21.6495C14.4012 21.6607 14.5798 21.6607 14.7584 21.6607C14.9147 21.6607 15.0709 21.6607 15.2272 21.6495L15.2048 21.5714Z" fill="#FFABAB"/>
<path d="M27.9499 9.95258C27.816 9.93025 27.6709 10.0084 27.6374 10.1423C27.5481 10.4548 27.4142 10.7673 27.2356 10.9794C27.1575 10.6781 26.9677 10.3432 26.6998 10.1758C26.4766 10.0419 26.2311 10.0419 26.019 10.1646C25.8739 10.2539 25.7623 10.399 25.7065 10.5664C25.5949 10.8901 25.6507 11.2026 25.8739 11.437C26.019 11.5933 26.2199 11.6937 26.4431 11.7495C26.3762 11.8053 26.298 11.8611 26.2199 11.8946C25.9409 12.0174 25.5837 12.0397 25.2042 11.9393L25.0703 12.4638C25.2377 12.5085 25.4498 12.542 25.673 12.542C25.9186 12.542 26.1864 12.4973 26.4431 12.3857C26.7557 12.2406 27.0124 11.9951 27.1463 11.7049C27.7378 11.4817 28.028 10.7227 28.1508 10.2874C28.2066 10.1423 28.1062 9.98606 27.9499 9.95258ZM26.7333 11.2361C26.5548 11.2361 26.365 11.1691 26.2646 11.0687C26.2088 11.0129 26.1529 10.9236 26.2199 10.745C26.2422 10.6892 26.2646 10.6446 26.298 10.6334C26.3092 10.6222 26.3315 10.6111 26.3539 10.6111C26.3762 10.6111 26.3985 10.6222 26.4208 10.6334C26.5994 10.745 26.7445 11.0799 26.7333 11.225V11.2361Z" fill="#FF9C9C"/>
<path d="M6.48828 3.90317C6.48828 3.90317 8.05085 4.36078 9.08884 7.6645C9.08884 7.6645 10.4505 6.38096 10.3054 5.94567C9.792 4.31613 8.08433 3.40091 6.48828 3.90317Z" fill="#FF9C9C"/>
<path d="M12.0555 6.1537C13.0154 5.99744 14.0199 5.90816 15.0356 5.90816C15.7276 5.90816 16.3973 5.96396 17.0669 6.03093L17.491 5.14919C16.6874 5.03758 15.8727 4.97061 15.0356 4.97061C13.8637 4.97061 12.7364 5.09338 11.6426 5.30545L12.0555 6.1537Z" fill="#FF9C9C"/>
<path d="M17.0616 3.63999C17.3862 2.27893 16.546 0.912403 15.1849 0.587773C13.8239 0.263144 12.4573 1.10334 12.1327 2.46441C11.8081 3.82547 12.6483 5.192 14.0093 5.51663C15.3704 5.84126 16.7369 5.00106 17.0616 3.63999Z" fill="#DBA753"/>
<path d="M14.5971 0.511826C14.4855 0.511826 14.385 0.522988 14.2734 0.534149C15.5235 0.690406 16.4834 1.75072 16.4834 3.04542C16.4834 4.34012 15.5235 5.40043 14.2734 5.55669C14.3739 5.56785 14.4855 5.57901 14.5971 5.57901C15.9923 5.57901 17.1307 4.44057 17.1307 3.04542C17.1307 1.65027 15.9923 0.511826 14.5971 0.511826Z" fill="#C5923F"/>
<path d="M16.209 3.65341C16.5422 2.76451 16.0918 1.7738 15.2028 1.4406C14.3139 1.1074 13.3232 1.55789 12.99 2.4468C12.6568 3.3357 13.1073 4.32642 13.9962 4.65961C14.8851 4.99281 15.8758 4.54232 16.209 3.65341Z" fill="#FDCA6B"/>
<path d="M14.721 3.65931C14.7769 3.57002 14.8103 3.46957 14.855 3.33563C14.8661 3.29099 14.8773 3.22402 14.8996 3.11241C14.9108 3.03428 14.9331 2.96731 14.9443 2.92267C14.9778 2.82222 15.0336 2.75525 15.0894 2.72177C15.1228 2.69944 15.1563 2.69944 15.1898 2.69944C15.2121 2.69944 15.2233 2.7106 15.2456 2.74409C15.2568 2.76641 15.2679 2.78873 15.2568 2.79989C15.2456 2.84454 15.201 2.87802 15.1563 2.91151L15.0559 2.97847L15.4019 3.44725L15.4912 3.39144C15.6474 3.29099 15.7479 3.15705 15.7814 2.97847C15.7925 2.90034 15.8037 2.82222 15.7925 2.74409L15.9376 2.66596L15.6921 2.18603L15.547 2.26416C15.4465 2.16371 15.3238 2.1079 15.1898 2.09674C15.0559 2.08558 14.9331 2.1079 14.8103 2.16371C14.6876 2.23067 14.5871 2.31996 14.5201 2.44274C14.4643 2.53203 14.4197 2.6548 14.3862 2.81106C14.3416 3.0008 14.3081 3.13473 14.2969 3.22402C14.2634 3.31331 14.23 3.36911 14.1741 3.4026C14.1295 3.42492 14.1072 3.42492 14.096 3.42492C14.0514 3.41376 14.0179 3.4026 13.9956 3.35795C13.9844 3.33563 13.9844 3.31331 13.9956 3.27983C14.0067 3.23518 14.0625 3.17937 14.1407 3.12357L14.23 3.06776L13.9398 2.57667L13.8393 2.63248C13.7054 2.7106 13.5938 2.82222 13.5268 2.94499C13.4598 3.06776 13.4263 3.2017 13.4487 3.34679L13.2812 3.43608L13.5268 3.91601L13.6831 3.83789C13.75 3.90485 13.817 3.96066 13.8951 3.99414C14.0737 4.07227 14.2634 4.06111 14.4643 3.9495C14.5536 3.88253 14.6429 3.79324 14.721 3.65931Z" fill="#DBA753"/>
<g opacity="0.2">
<path opacity="0.2" d="M16.7996 1.72839C16.5986 1.42704 16.3308 1.17033 16.0183 0.980591L13.0605 5.07675C13.3396 5.31114 13.6633 5.47855 14.0204 5.57901L16.7996 1.72839Z" fill="white"/>
<path opacity="0.2" d="M15.1698 0.534149L12.3906 4.38477C12.4911 4.52986 12.5915 4.6638 12.7143 4.77541L15.6385 0.723888C15.4934 0.645759 15.3372 0.578794 15.1698 0.534149Z" fill="white"/>
</g>
<path opacity="0.2" d="M23.2606 10.2353C23.6228 9.53429 22.6822 8.32842 21.1598 7.54186C19.6374 6.7553 18.1097 6.68591 17.7475 7.38687C17.3854 8.08783 18.3259 9.2937 19.8483 10.0803C21.3707 10.8668 22.8985 10.9362 23.2606 10.2353Z" fill="white"/>
<path d="M6.77598 11.85C7.115 11.85 7.38984 11.5751 7.38984 11.2361C7.38984 10.8971 7.115 10.6222 6.77598 10.6222C6.43695 10.6222 6.16211 10.8971 6.16211 11.2361C6.16211 11.5751 6.43695 11.85 6.77598 11.85Z" fill="black"/>
</g>
<defs>
<filter id="filter0_d" x="0" y="0.511826" width="30.1664" height="26.4882" filterUnits="userSpaceOnUse" color-interpolation-filters="sRGB">
<feFlood flood-opacity="0" result="BackgroundImageFix"/>
<feColorMatrix in="SourceAlpha" type="matrix" values="0 0 0 0 0 0 0 0 0 0 0 0 0 0 0 0 0 0 127 0"/>
<feOffset dy="2"/>
<feGaussianBlur stdDeviation="1"/>
<feColorMatrix type="matrix" values="0 0 0 0 0.12549 0 0 0 0 0.2 0 0 0 0 0.258824 0 0 0 0.2 0"/>
<feBlend mode="normal" in2="BackgroundImageFix" result="effect1_dropShadow"/>
<feBlend mode="normal" in="SourceGraphic" in2="effect1_dropShadow" result="shape"/>
</filter>
</defs>
</svg>
