<svg width="18" height="18" viewBox="0 0 18 18" fill="none" xmlns="http://www.w3.org/2000/svg">
<path d="M14.296 4.21522C13.6316 3.61405 12.6612 3.68788 12.0811 4.2785C11.4905 4.87967 11.4484 5.90276 12.1866 6.57772C13.3679 7.64295 13.9585 9.26717 13.6737 10.902C13.2941 13.1168 11.3639 14.8254 9.00148 14.8359C6.57569 14.8359 4.71944 13.0852 4.33979 10.9758C4.0339 9.341 4.59292 7.69569 5.81632 6.57772C6.5546 5.90276 6.51245 4.87967 5.92182 4.2785C5.34175 3.68788 4.3714 3.61405 3.6964 4.22577C1.84022 5.91323 0.869836 8.40236 1.13351 10.923C1.56593 14.9309 4.94093 17.9894 9.00148 18C9.01202 18 9.01202 18 9.02261 18C13.041 18 16.3316 14.9309 16.8378 11.1867C17.1859 8.58163 16.2366 5.97651 14.296 4.21522Z" fill="#0EA89B"/>
<path d="M16.8383 11.1867C16.3321 14.9309 13.0414 18 9.02308 18C9.01253 18 9.01254 18 9.00195 18V14.8359C11.3645 14.8254 13.2945 13.1168 13.6742 10.902C13.959 9.26717 13.3684 7.64295 12.1871 6.57772C11.4489 5.90276 11.491 4.87967 12.0816 4.2785C12.6617 3.68788 13.6321 3.61405 14.2965 4.21522C16.2371 5.97651 17.1864 8.58163 16.8383 11.1867Z" fill="#A8E0DB"/>
<path d="M9.00195 0C8.12653 0 7.41992 0.706606 7.41992 1.58203V7.98047C7.41992 8.85589 8.12653 9.5625 9.00195 9.5625C9.87738 9.5625 10.584 8.85589 10.584 7.98047V1.58203C10.584 0.706606 9.87734 0 9.00195 0Z" fill="#0EA89B"/>
<path d="M10.584 1.58203V7.98047C10.584 8.85589 9.87738 9.5625 9.00195 9.5625V0C9.87734 0 10.584 0.706606 10.584 1.58203Z" fill="#A8E0DB"/>
</svg>
