<svg width="61" height="66" viewBox="0 0 61 66" fill="none" xmlns="http://www.w3.org/2000/svg">
<path d="M44.3478 64.3043H6.65217C4.88791 64.3043 3.1959 63.6035 1.94838 62.356C0.700852 61.1084 0 59.4164 0 57.6522V6.65217C0 4.88791 0.700852 3.1959 1.94838 1.94838C3.1959 0.700852 4.88791 0 6.65217 0H37.6957L51 13.3043V57.6522C51 59.4164 50.2991 61.1084 49.0516 62.356C47.8041 63.6035 46.1121 64.3043 44.3478 64.3043Z" fill="#CFD2FC"/>
<path d="M9.97852 18.8479H41.022V36.587H9.97852V18.8479Z" fill="#5153FF"/>
<path d="M19.9561 24.3914H41.0213V36.587H19.9561V24.3914Z" fill="#8690FA"/>
<path d="M0 51H51V59.125C51 60.4179 50.2991 61.6579 49.0516 62.5721C47.8041 63.4864 46.1121 64 44.3478 64H6.65217C4.88791 64 3.1959 63.4864 1.94838 62.5721C0.700852 61.6579 0 60.4179 0 59.125V51Z" fill="#5153FF"/>
<path d="M50.9997 13.3043H44.3475C42.5832 13.3043 40.8912 12.6035 39.6437 11.356C38.3962 10.1084 37.6953 8.41644 37.6953 6.65217V0L50.9997 13.3043Z" fill="#8690FA"/>
<path d="M9.97852 23.2827H41.022V25.5001H9.97852V23.2827Z" fill="white"/>
<path d="M9.97852 29.9348H41.022V32.1522H9.97852V29.9348Z" fill="white"/>
<path d="M18.8477 18.8479H21.065V36.587H18.8477V18.8479Z" fill="white"/>
<path d="M29.9346 18.8479H32.152V36.587H29.9346V18.8479Z" fill="white"/>
<circle cx="49.5" cy="54.5" r="11.5" fill="white"/>
<path d="M49.5 63C54.1944 63 58 59.1944 58 54.5C58 49.8056 54.1944 46 49.5 46C44.8056 46 41 49.8056 41 54.5C41 59.1944 44.8056 63 49.5 63Z" fill="#47CE92"/>
<path d="M58 54.5C58 59.175 54.175 63 49.5 63C46.7906 63 44.4 61.7781 42.8594 59.8125C44.2937 60.9812 46.1531 61.6719 48.1719 61.6719C52.8469 61.6719 56.6719 57.8469 56.6719 53.1719C56.6719 51.1531 55.9812 49.2937 54.8125 47.8594C56.7781 49.3999 58 51.7906 58 54.5Z" fill="#0EA89B"/>
<path d="M47.6077 57.4815L44.8972 54.773L44 55.6674L47.1591 58.8168C47.4056 59.0611 47.8035 59.0611 48.05 58.8168L55 51.8881L54.1091 51L47.6077 57.4815Z" fill="white"/>
</svg>
