<svg width="51" height="65" viewBox="0 0 51 65" fill="none" xmlns="http://www.w3.org/2000/svg">
<g opacity="0.5">
<path d="M44.3478 64.3043H6.65217C4.88791 64.3043 3.1959 63.6035 1.94838 62.356C0.700852 61.1084 0 59.4164 0 57.6522V6.65217C0 4.88791 0.700852 3.1959 1.94838 1.94838C3.1959 0.700852 4.88791 0 6.65217 0H37.6957L51 13.3043V57.6522C51 59.4164 50.2991 61.1084 49.0516 62.356C47.8041 63.6035 46.1121 64.3043 44.3478 64.3043Z" fill="#CFD2FC"/>
<path d="M9.97852 18.8478H41.022V36.5869H9.97852V18.8478Z" fill="#5153FF"/>
<path d="M19.9561 24.3914H41.0213V36.587H19.9561V24.3914Z" fill="#8690FA"/>
<path d="M0 51H51V59.125C51 60.4179 50.2991 61.6579 49.0516 62.5721C47.8041 63.4864 46.1121 64 44.3478 64H6.65217C4.88791 64 3.1959 63.4864 1.94838 62.5721C0.700852 61.6579 0 60.4179 0 59.125V51Z" fill="#5153FF"/>
<path d="M50.9997 13.3043H44.3475C42.5832 13.3043 40.8912 12.6035 39.6437 11.356C38.3962 10.1084 37.6953 8.41644 37.6953 6.65217V0L50.9997 13.3043Z" fill="#8690FA"/>
<path d="M9.97852 23.2826H41.022V25.5H9.97852V23.2826Z" fill="white"/>
<path d="M9.97852 29.9347H41.022V32.1521H9.97852V29.9347Z" fill="white"/>
<path d="M18.8477 18.8478H21.065V36.5869H18.8477V18.8478Z" fill="white"/>
<path d="M29.9346 18.8478H32.152V36.5869H29.9346V18.8478Z" fill="white"/>
</g>
</svg>
