<svg width="17" height="12" viewBox="0 0 17 12" fill="none" xmlns="http://www.w3.org/2000/svg">
<path d="M14.8918 0H0.501982C0.224683 0 0 0.224683 0 0.501982V10.5414C0 10.8187 0.224683 11.0434 0.501982 11.0434H14.8918C15.169 11.0434 15.3938 10.8187 15.3938 10.5414V0.501982C15.3938 0.224683 15.1689 0 14.8918 0Z" fill="#0EA89B" fill-opacity="0.36"/>
<path d="M12.8839 3.01027C12.6061 3.01027 12.3819 2.78606 12.3819 2.50828C12.3819 2.23387 12.1577 2.0063 11.8799 2.0063H3.51376C3.23601 2.0063 3.01178 2.23387 3.01178 2.50828C3.01178 2.78603 2.78757 3.01027 2.50979 3.01027C2.23201 3.01027 2.00781 3.23783 2.00781 3.51225V7.52801C2.00781 7.80576 2.23201 8.02999 2.50979 8.02999C2.78757 8.02999 3.01178 8.25756 3.01178 8.53197C3.01178 8.80972 3.23598 9.03396 3.51376 9.03396H11.8799C12.1577 9.03396 12.3819 8.80975 12.3819 8.53197C12.3819 8.25756 12.6061 8.02999 12.8839 8.02999C13.1617 8.02999 13.3859 7.80579 13.3859 7.52801V3.51225C13.3858 3.23783 13.1616 3.01027 12.8839 3.01027Z" fill="white"/>
<path d="M10.8759 5.00515H4.51761C4.24031 5.00515 4.01562 4.78047 4.01562 4.50317C4.01562 4.22587 4.24031 4.00119 4.51761 4.00119H10.8759C11.1532 4.00119 11.3779 4.22587 11.3779 4.50317C11.3779 4.78047 11.1532 5.00515 10.8759 5.00515Z" fill="#CCE7F1"/>
<path d="M5.8562 7.01301H4.51761C4.24031 7.01301 4.01562 6.78833 4.01562 6.51103C4.01562 6.23373 4.24031 6.00905 4.51761 6.00905H5.8562C6.1335 6.00905 6.35819 6.23373 6.35819 6.51103C6.35819 6.78833 6.13347 7.01301 5.8562 7.01301Z" fill="#CCE7F1"/>
<path d="M16.324 11.0202L15.4605 10.709L15.1493 11.569C14.9921 11.9974 14.3964 12.0141 14.2157 11.5991L13.2318 9.33023L12.248 11.5991C12.0673 12.0174 11.4716 11.994 11.3143 11.569L11.0031 10.709L10.1397 11.0202C9.72808 11.1741 9.32982 10.7558 9.50718 10.3476L11.0332 6.86055H15.4305L16.9565 10.3476C17.1338 10.7525 16.7356 11.1708 16.324 11.0202Z" fill="#CCE7F1"/>
<path d="M13.2315 8.56877C11.8475 8.56877 10.7217 7.44292 10.7217 6.05892C10.7217 4.67492 11.8475 3.54907 13.2315 3.54907C14.6155 3.54907 15.7414 4.67492 15.7414 6.05892C15.7414 7.44292 14.6155 8.56877 13.2315 8.56877Z" fill="#0EA89B"/>
</svg>
