<svg width="20" height="13" viewBox="0 0 20 13" fill="none" xmlns="http://www.w3.org/2000/svg">
<path d="M17.3333 1.08334V11.1695C17.3328 11.3675 17.2596 11.5572 17.1297 11.6972C16.9997 11.8372 16.8237 11.9161 16.64 11.9167H0.693333C0.509619 11.9161 0.333585 11.8372 0.203679 11.6972C0.0737723 11.5572 0.000548679 11.3675 0 11.1695V1.08334L0.693333 1.44196L1.73333 1.97989L7.76533 5.09914C8.04656 5.24485 8.35462 5.32051 8.66667 5.32051C8.97872 5.32051 9.28677 5.24485 9.568 5.09914L17.3333 1.08334Z" fill="#CCE7F1"/>
<path d="M17.3333 0.662889V1.65722L13.7211 3.31445L9.568 5.22025C9.28677 5.34954 8.97872 5.41667 8.66667 5.41667C8.35462 5.41667 8.04656 5.34954 7.76533 5.22025L0 1.65722V0.662889C0.000548679 0.487241 0.0737723 0.318938 0.203679 0.194735C0.333585 0.070533 0.509619 0.000524586 0.693333 0H16.64C16.8237 0.000524586 16.9997 0.070533 17.1297 0.194735C17.2596 0.318938 17.3328 0.487241 17.3333 0.662889Z" fill="#A8E0DB"/>
<path d="M19.5 8.12531C19.4999 9.18162 19.1568 10.2093 18.5222 11.0538C17.8876 11.8982 16.9959 12.5137 15.9812 12.8075C14.9666 13.1014 13.884 13.0578 12.8964 12.6832C11.9087 12.3087 11.0694 11.6234 10.5048 10.7307C9.9402 9.8379 9.68085 8.78591 9.76579 7.73302C9.85072 6.68013 10.2753 5.68331 10.9757 4.89259C11.6761 4.10187 12.6144 3.56003 13.6494 3.34863C14.6843 3.13723 15.7599 3.2677 16.7143 3.7204C17.5478 4.11579 18.2521 4.7396 18.7452 5.51934C19.2383 6.29907 19.5001 7.20273 19.5 8.12531Z" fill="#0EA89B"/>
<path d="M15.6969 5V7.37067H18V8.62933H15.6969V11H14.3031V8.62933H12V7.37067H14.3031V5H15.6969Z" fill="white"/>
</svg>
